<svg width="12" height="9" viewBox="0 0 12 9" xmlns="http://www.w3.org/2000/svg" xmlns:xlink="http://www.w3.org/1999/xlink"><title>CN@2x</title><defs><rect id="a" width="12" height="8.571" rx="2"/></defs><g fill="none" fill-rule="evenodd"><mask id="b" fill="#fff"><use xlink:href="#a"/></mask><use fill="#FFF" xlink:href="#a"/><path fill="#F1361D" mask="url(#b)" d="M0 0h12v8.571H0z"/><path d="M5.788 2.562l-.36.219.01-.421L5.22 2l.421.01.36-.22-.01.422.22.36-.422-.01zM4.732 1.4l-.415-.071.283-.311.071-.415.311.283.415.07-.283.312-.07.415-.312-.283zm.209 3.73l-.352.232-.005-.421-.231-.352.42-.005.352-.231.005.42.232.352-.421.005zm.724-1.134l-.419.046.187-.377-.046-.419.377.187.418-.046-.186.377.046.418-.377-.186zm-2.808-.47l-1.007.718.371-1.18-.994-.737 1.237-.01.393-1.174.393 1.173 1.238.011-.995.737.372 1.18z" fill="#FFDC42" mask="url(#b)"/></g></svg>