<svg width="12" height="9" viewBox="0 0 12 9" xmlns="http://www.w3.org/2000/svg" xmlns:xlink="http://www.w3.org/1999/xlink"><title>GB@2x</title><defs><rect id="a" width="12" height="8.571" rx="2"/></defs><g fill="none" fill-rule="evenodd"><mask id="b" fill="#fff"><use xlink:href="#a"/></mask><use fill="#FFF" xlink:href="#a"/><path fill="#0A17A7" mask="url(#b)" d="M0 0h12v8.571H0z"/><path d="M2.86 5.714H0V2.857h2.86L-1.189.127l.64-.948 5.12 3.454V-.571H7.43v3.204l5.12-3.454.64.947-4.05 2.731H12v2.857H9.14l4.049 2.731-.64.948-5.12-3.454v3.204H4.57V5.939L-.55 9.393l-.64-.948 4.05-2.73z" fill="#FFF" mask="url(#b)"/><path d="M8 2.714l5.43-3.571" stroke="#DB1F35" stroke-width=".667" stroke-linecap="round" mask="url(#b)"/><path d="M8.577 9.15l4.866-3.28" stroke="#DB1F35" stroke-width=".667" stroke-linecap="round" mask="url(#b)" transform="matrix(1 0 0 -1 0 15.02)"/><path d="M3.43 2.704l-5.075-3.42" stroke="#DB1F35" stroke-width=".667" stroke-linecap="round" mask="url(#b)"/><path d="M3.981 9.562L-1.645 5.83" stroke="#DB1F35" stroke-width=".667" stroke-linecap="round" mask="url(#b)" transform="matrix(1 0 0 -1 0 15.392)"/><path fill="#E6273E" mask="url(#b)" d="M0 5.143h5.143V8.57h1.714V5.143H12V3.429H6.857V0H5.143v3.429H0z"/></g></svg>