<svg width="82" height="82" viewBox="0 0 82 82" xmlns="http://www.w3.org/2000/svg" xmlns:xlink="http://www.w3.org/1999/xlink"><title>steer copy 12@2x</title><defs><path d="M39 10.463c-16.14 0-29.25 12.904-29.25 28.79 0 15.885 13.11 28.789 29.25 28.789s29.25-12.904 29.25-28.79c0-15.885-13.11-28.789-29.25-28.789zm0 2.4c14.823 0 26.813 11.8 26.813 26.39 0 14.589-11.99 26.39-26.813 26.39-14.823 0-26.813-11.801-26.813-26.39 0-14.59 11.99-26.39 26.813-26.39z" id="a"/><path d="M39 16.461c-12.774 0-23.156 10.218-23.156 22.791 0 12.574 10.382 22.792 23.156 22.792s23.156-10.218 23.156-22.792c0-12.573-10.382-22.791-23.156-22.791zm0 2.4c11.457 0 20.719 9.115 20.719 20.391 0 11.277-9.262 20.393-20.719 20.393s-20.719-9.116-20.719-20.393c0-11.276 9.262-20.392 20.719-20.392z" id="b"/><path d="M39 27.257c-6.717 0-12.188 5.385-12.188 11.995 0 6.611 5.471 11.996 12.188 11.996 6.717 0 12.188-5.385 12.188-11.996 0-6.61-5.471-11.995-12.188-11.995zm0 2.399c5.4 0 9.75 4.282 9.75 9.596 0 5.315-4.35 9.597-9.75 9.597s-9.75-4.282-9.75-9.597c0-5.314 4.35-9.596 9.75-9.596z" id="c"/><path d="M39 33.255c-3.351 0-6.094 2.7-6.094 5.997 0 3.299 2.743 5.998 6.094 5.998 3.351 0 6.094-2.7 6.094-5.998S42.35 33.255 39 33.255zm0 2.399c2.034 0 3.656 1.597 3.656 3.598 0 2.002-1.622 3.6-3.656 3.6s-3.656-1.598-3.656-3.6c0-2.001 1.622-3.598 3.656-3.598z" id="d"/><path id="e" d="M35.344 17.66v10.796h2.437V17.661z"/><path id="f" d="M40.219 17.66v10.796h2.437V17.661z"/><path id="g" d="M35.344 50.198v10.796h2.437V50.198z"/><path id="h" d="M40.219 50.198v10.796h2.437V50.198z"/><path id="i" d="M50.045 35.729v2.399h10.969v-2.4z"/><path id="j" d="M50.045 40.527v2.4h10.969v-2.4z"/><path id="k" d="M16.986 35.729v2.399h10.97v-2.4z"/><path id="l" d="M16.986 40.527v2.4h10.97v-2.4z"/><path id="m" d="M51.983 21.465l-7.76 7.633 1.723 1.697 7.76-7.633z"/><path id="n" d="M55.43 24.858l-7.756 7.633 1.723 1.696 7.756-7.633-1.724-1.696z"/><path id="o" d="M28.603 44.472l-7.756 7.634 1.724 1.696 7.755-7.633z"/><path id="p" d="M32.054 47.865l-7.76 7.633 1.723 1.696 7.76-7.633-1.723-1.696z"/><path id="q" d="M26.017 21.465l-1.723 1.697 7.76 7.633 1.723-1.697-7.76-7.633z"/><path id="r" d="M22.57 24.858l-1.723 1.696 7.756 7.633 1.723-1.696-7.755-7.633z"/><path id="s" d="M49.397 44.472l-1.723 1.697 7.755 7.633 1.724-1.696-7.756-7.634z"/><path id="t" d="M45.946 47.865l-1.723 1.696 7.76 7.633 1.723-1.696z"/><path d="M39 .869c-1.96 0-3.618 1.547-3.618 3.477v7.956h2.437V4.346c0-.582.49-1.078 1.181-1.078.692 0 1.18.496 1.18 1.078v7.956h2.438V4.346c0-1.93-1.658-3.477-3.618-3.477z" id="u"/><path d="M39 77.64c-1.96 0-3.618-1.547-3.618-3.477v-7.956h2.437v7.956c0 .582.49 1.078 1.181 1.078.692 0 1.18-.496 1.18-1.078v-7.956h2.438v7.956c0 1.93-1.658 3.477-3.618 3.477z" id="v"/><path d="M78 39.255c0-1.93-1.572-3.562-3.532-3.562h-8.084v2.4h8.084c.59 0 1.094.48 1.094 1.162 0 .68-.503 1.162-1.094 1.162h-8.084v2.399h8.084c1.96 0 3.532-1.633 3.532-3.561z" id="w"/><path d="M0 39.255c0-1.93 1.572-3.562 3.532-3.562h8.084v2.4H3.532c-.59 0-1.095.48-1.095 1.162 0 .68.504 1.162 1.095 1.162h8.084v2.399H3.532C1.572 42.816 0 41.183 0 39.255z" id="x"/><path d="M66.577 12.112c-1.386-1.364-3.67-1.424-5.056-.06l-5.716 5.626 1.723 1.696 5.717-5.626c.418-.411 1.12-.421 1.609.06.489.482.478 1.172.06 1.584l-5.716 5.626 1.724 1.697 5.716-5.627c1.386-1.364 1.325-3.612-.06-4.976z" id="y"/><path d="M11.423 66.397c-1.386-1.364-1.447-3.612-.06-4.976l5.715-5.627 1.724 1.697-5.716 5.626c-.418.412-.429 1.102.06 1.584.49.481 1.191.471 1.61.06l5.716-5.626 1.723 1.696-5.716 5.626c-1.386 1.365-3.67 1.304-5.056-.06z" id="z"/><path d="M11.423 12.112c1.386-1.364 3.67-1.424 5.056-.06l5.716 5.626-1.723 1.696-5.717-5.626c-.418-.411-1.12-.421-1.609.06-.489.482-.478 1.172-.06 1.584l5.716 5.626-1.724 1.697-5.716-5.627c-1.386-1.364-1.325-3.612.06-4.976z" id="A"/><path d="M66.577 66.397c1.386-1.364 1.447-3.612.06-4.976l-5.715-5.627-1.724 1.697 5.716 5.626c.418.412.429 1.102-.06 1.584-.49.481-1.191.471-1.61.06l-5.716-5.626-1.723 1.696 5.716 5.626c1.386 1.365 3.67 1.304 5.056-.06z" id="B"/></defs><g fill="none" fill-rule="evenodd"><g fill-rule="nonzero" transform="translate(2 2)"><use fill-rule="evenodd" xlink:href="#a"/><path stroke="#BF8725" stroke-width="2" d="M39 9.463c16.689 0 30.25 13.348 30.25 29.79 0 16.44-13.561 29.789-30.25 29.789S8.75 55.694 8.75 39.252C8.75 22.811 22.311 9.463 39 9.463zm0 4.4c-14.274 0-25.813 11.356-25.813 25.39 0 14.033 11.54 25.39 25.813 25.39 14.274 0 25.813-11.357 25.813-25.39 0-14.034-11.54-25.39-25.813-25.39z"/></g><g fill-rule="nonzero" transform="translate(2 2)"><use fill-rule="evenodd" xlink:href="#b"/><path stroke="#BF8725" stroke-width="2" d="M39 15.461c13.323 0 24.156 10.662 24.156 23.791 0 13.13-10.833 23.792-24.156 23.792-13.323 0-24.156-10.663-24.156-23.792 0-13.129 10.833-23.791 24.156-23.791zm0 4.4c-10.908 0-19.719 8.67-19.719 19.391 0 10.721 8.81 19.393 19.719 19.393 10.908 0 19.719-8.672 19.719-19.393 0-10.72-8.81-19.392-19.719-19.392z"/></g><g fill-rule="nonzero" transform="translate(2 2)"><use fill-rule="evenodd" xlink:href="#c"/><path stroke="#BF8725" stroke-width="2" d="M39 26.257c7.265 0 13.188 5.829 13.188 12.995 0 7.167-5.923 12.996-13.188 12.996-7.265 0-13.188-5.829-13.188-12.996 0-7.166 5.923-12.995 13.188-12.995zm0 4.399c-4.85 0-8.75 3.838-8.75 8.596 0 4.759 3.9 8.597 8.75 8.597s8.75-3.838 8.75-8.597c0-4.758-3.9-8.596-8.75-8.596z"/></g><g fill-rule="nonzero" transform="translate(2 2)"><use fill-rule="evenodd" xlink:href="#d"/><path stroke="#BF8725" stroke-width="2" d="M39 32.255c3.9 0 7.094 3.143 7.094 6.997 0 3.855-3.194 6.998-7.094 6.998-3.9 0-7.094-3.143-7.094-6.998 0-3.854 3.194-6.997 7.094-6.997zm0 4.399c-1.485 0-2.656 1.153-2.656 2.598 0 1.446 1.171 2.6 2.656 2.6s2.656-1.154 2.656-2.6c0-1.445-1.171-2.598-2.656-2.598z"/></g><g transform="translate(2 2)"><use xlink:href="#e"/><path stroke="#BF8725" stroke-width="2" d="M34.344 16.66h4.437v12.796h-4.437V16.661z"/></g><g transform="translate(2 2)"><use xlink:href="#f"/><path stroke="#BF8725" stroke-width="2" d="M39.219 16.66h4.437v12.796H39.22V16.661z"/></g><g transform="translate(2 2)"><use xlink:href="#g"/><path stroke="#BF8725" stroke-width="2" d="M34.344 49.198h4.437v12.796h-4.437V49.198z"/></g><g transform="translate(2 2)"><use xlink:href="#h"/><path stroke="#BF8725" stroke-width="2" d="M39.219 49.198h4.437v12.796H39.22V49.198z"/></g><g transform="translate(2 2)"><use xlink:href="#i"/><path stroke="#BF8725" stroke-width="2" d="M49.045 34.729h12.969v4.399h-12.97v-4.4z"/></g><g transform="translate(2 2)"><use xlink:href="#j"/><path stroke="#BF8725" stroke-width="2" d="M49.045 39.527h12.969v4.4h-12.97v-4.4z"/></g><g transform="translate(2 2)"><use xlink:href="#k"/><path stroke="#BF8725" stroke-width="2" d="M15.986 34.729h12.97v4.399h-12.97v-4.4z"/></g><g transform="translate(2 2)"><use xlink:href="#l"/><path stroke="#BF8725" stroke-width="2" d="M15.986 39.527h12.97v4.4h-12.97v-4.4z"/></g><g transform="translate(2 2)"><use xlink:href="#m"/><path stroke="#BF8725" stroke-width="2" d="M51.983 20.063l3.149 3.099-9.186 9.036-3.15-3.1 9.187-9.035z"/></g><g transform="translate(2 2)"><use xlink:href="#n"/><path stroke="#BF8725" stroke-width="2" d="M55.43 23.455l3.148 3.1-9.18 9.035-3.15-3.099 9.181-9.036z"/></g><g transform="translate(2 2)"><use xlink:href="#o"/><path stroke="#BF8725" stroke-width="2" d="M28.603 43.07l3.149 3.099-9.181 9.036-3.15-3.1 9.182-9.036z"/></g><g transform="translate(2 2)"><use xlink:href="#p"/><path stroke="#BF8725" stroke-width="2" d="M32.054 46.462l3.15 3.1-9.187 9.035-3.149-3.1 9.186-9.035z"/></g><g transform="translate(2 2)"><use xlink:href="#q"/><path stroke="#BF8725" stroke-width="2" d="M26.017 20.063l9.186 9.035-3.149 3.1-9.186-9.036 3.15-3.1z"/></g><g transform="translate(2 2)"><use xlink:href="#r"/><path stroke="#BF8725" stroke-width="2" d="M22.57 23.455l9.182 9.036-3.15 3.1-9.18-9.037 3.149-3.1z"/></g><g transform="translate(2 2)"><use xlink:href="#s"/><path stroke="#BF8725" stroke-width="2" d="M49.397 43.07l9.181 9.036-3.149 3.099-9.18-9.036 3.148-3.1z"/></g><g transform="translate(2 2)"><use xlink:href="#t"/><path stroke="#BF8725" stroke-width="2" d="M45.946 46.462l9.186 9.036-3.15 3.099-9.185-9.036 3.149-3.099z"/></g><g transform="translate(2 2)"><use xlink:href="#u"/><path stroke="#BF8725" stroke-width="2" d="M39-.131c2.518 0 4.618 2 4.618 4.477v8.956h-4.437V4.346c0-.034-.047-.078-.181-.078s-.18.044-.18.078v8.956h-4.438V4.346c0-2.477 2.1-4.477 4.618-4.477z"/></g><g transform="translate(2 2)"><use xlink:href="#v"/><path stroke="#BF8725" stroke-width="2" d="M39 78.64c-2.518 0-4.618-2-4.618-4.477v-8.956h4.437v8.957c0 .033.047.077.181.077s.18-.044.18-.078v-8.956h4.438v8.956c0 2.477-2.1 4.477-4.618 4.477z"/></g><g transform="translate(2 2)"><use xlink:href="#w"/><path stroke="#BF8725" stroke-width="2" d="M79 39.255c0 2.493-2.032 4.56-4.532 4.56h-9.084v-4.398h9.084c.05 0 .094-.046.094-.162 0-.117-.044-.163-.094-.163h-9.084v-4.399h9.084c2.5 0 4.532 2.068 4.532 4.562z"/></g><g transform="translate(2 2)"><use xlink:href="#x"/><path stroke="#BF8725" stroke-width="2" d="M-1 39.255c0-2.494 2.032-4.562 4.532-4.562h9.084v4.4H3.532c-.05 0-.095.045-.095.162 0 .116.045.162.095.162h9.084v4.399H3.532c-2.5 0-4.532-2.068-4.532-4.561z"/></g><g transform="translate(2 2)"><use xlink:href="#y"/><path stroke="#BF8725" stroke-width="2" d="M67.279 11.4c1.79 1.761 1.839 4.651.06 6.401l-6.417 6.317-3.15-3.1.724-.712 5.717-5.627c.025-.025.024-.074-.061-.158-.094-.092-.172-.094-.206-.06l-6.418 6.317-3.149-3.1 6.44-6.339c1.77-1.741 4.678-1.693 6.46.06z"/></g><g transform="translate(2 2)"><use xlink:href="#z"/><path stroke="#BF8725" stroke-width="2" d="M22.897 61.544L17.18 67.17c-1.77 1.741-4.678 1.694-6.46-.06-1.79-1.762-1.839-4.652-.06-6.402l6.417-6.317 3.15 3.1-.725.713-5.716 5.626c-.025.025-.024.075.06.158.094.092.173.094.207.06l6.418-6.316 3.149 3.1-.724.712z"/></g><g transform="translate(2 2)"><use xlink:href="#A"/><path stroke="#BF8725" stroke-width="2" d="M10.721 11.4c1.782-1.754 4.69-1.802 6.46-.06l6.44 6.338-3.15 3.1-.7-.69-5.717-5.627c-.034-.034-.112-.032-.206.06-.085.084-.086.133-.06.158l6.44 6.34-3.15 3.099-.701-.69-5.716-5.627c-1.779-1.75-1.73-4.64.06-6.402z"/></g><g transform="translate(2 2)"><use xlink:href="#B"/><path stroke="#BF8725" stroke-width="2" d="M67.279 67.11c-1.782 1.754-4.69 1.801-6.46.06l-6.44-6.339 3.15-3.1.7.691 5.717 5.626c.034.034.113.032.206-.06.085-.083.086-.133.06-.158l-6.44-6.34 3.15-3.099.701.69 5.716 5.627c1.779 1.75 1.73 4.64-.06 6.402z"/></g></g></svg>