<svg width="24" height="24" viewBox="0 0 24 24" xmlns="http://www.w3.org/2000/svg"><title>instagram</title><g fill="none" fill-rule="evenodd"><path d="M0 0h24v24H0z"/><circle stroke="#FFF" opacity=".147" cx="12" cy="12" r="11.5"/><path d="M12 7.081c1.602 0 1.792.006 2.424.035.585.027.903.125 1.115.207.28.108.48.239.69.448.21.21.34.41.448.69.082.212.18.53.207 1.114.029.633.035.823.035 2.425 0 1.602-.006 1.792-.035 2.425-.027.585-.125.902-.207 1.114a1.86 1.86 0 0 1-.448.69c-.21.21-.41.34-.69.448-.212.083-.53.18-1.115.207-.632.029-.822.035-2.424.035-1.602 0-1.792-.006-2.425-.035-.585-.027-.902-.124-1.114-.207a1.859 1.859 0 0 1-.69-.448c-.21-.21-.34-.41-.448-.69-.083-.212-.18-.53-.207-1.114-.029-.633-.035-.823-.035-2.425 0-1.602.006-1.792.035-2.424.027-.585.124-.903.207-1.115.108-.28.239-.48.448-.69.21-.21.41-.34.69-.448.212-.082.53-.18 1.114-.207.633-.029.823-.035 2.425-.035M12 6c1.63 0 1.834.007 2.474.036.638.03 1.075.13 1.456.279.395.153.73.358 1.063.692.334.334.539.668.692 1.063.148.381.25.818.279 1.456.03.64.036.844.036 2.474 0 1.63-.007 1.834-.036 2.474-.03.638-.13 1.075-.279 1.456-.153.395-.358.73-.692 1.063a2.941 2.941 0 0 1-1.063.692c-.381.148-.818.25-1.456.279-.64.03-.844.036-2.474.036-1.63 0-1.834-.007-2.474-.036-.638-.03-1.075-.13-1.456-.279a2.941 2.941 0 0 1-1.063-.692 2.941 2.941 0 0 1-.692-1.063c-.148-.381-.25-.818-.279-1.456C6.006 13.834 6 13.63 6 12c0-1.63.007-1.834.036-2.474.03-.638.13-1.075.279-1.456.153-.395.358-.73.692-1.063a2.941 2.941 0 0 1 1.063-.692c.381-.148.818-.25 1.456-.279C10.166 6.006 10.37 6 12 6zm.012 2.929a3.083 3.083 0 1 0 0 6.166 3.083 3.083 0 0 0 0-6.166zm0 5.084a2.001 2.001 0 1 1 0-4.003 2.001 2.001 0 0 1 0 4.003zm3.893-5.227a.714.714 0 1 0-1.429 0 .714.714 0 0 0 1.429 0z" fill="#FFF"/></g></svg>