<svg width="52" height="45" viewBox="0 0 52 45" xmlns="http://www.w3.org/2000/svg"><title>manc_logo_blue copy@2x</title><g fill="none"><path d="M44.757 22.824c-1.244-.148-3.528.465-3.751.817-1.653-.092-2.247-.538-2.563-1.077a12.524 12.524 0 0 0-2.322-5.627c-.167-.65-.018-1.337 1.059-2.581.334.074 1.801-.446 3.12-1.95.539-.613.724-1.672.074-2.303-.594-.576-1.56-.52-2.173-.037-.984.78-2.172 2.823-2.08 3.231-1.225 1.096-1.968 1.207-2.581 1.04a12.236 12.236 0 0 0-5.627-2.321c-.576-.335-.966-.929-1.077-2.563.278-.186.965-1.597.835-3.584-.055-.818-.668-1.69-1.578-1.69-.836 0-1.467.742-1.56 1.504-.149 1.244.464 3.528.817 3.751-.093 1.653-.539 2.247-1.077 2.563a12.524 12.524 0 0 0-5.627 2.322c-.65.167-1.337.018-2.582-1.059.075-.334-.445-1.801-1.95-3.12-.613-.539-1.671-.724-2.303-.074-.575.594-.52 1.56-.037 2.173.78.984 2.823 2.172 3.232 2.08 1.095 1.225 1.207 1.968 1.04 2.581a12.236 12.236 0 0 0-2.322 5.627c-.334.576-.928.966-2.563 1.077-.185-.278-1.597-.965-3.584-.835-.817.055-1.69.668-1.69 1.578 0 .836.743 1.467 1.504 1.56 1.245.149 3.529-.464 3.752-.817 1.653.093 2.247.539 2.563 1.077a12.524 12.524 0 0 0 2.321 5.627c.167.65.019 1.337-1.058 2.582-.335-.075-1.802.445-3.12 1.95-.539.613-.725 1.671-.075 2.303.595.575 1.56.52 2.173.037.984-.78 2.173-2.823 2.08-3.232 1.226-1.095 1.969-1.207 2.582-1.04a12.236 12.236 0 0 0 5.627 2.322c.575.334.965.928 1.077 2.563-.279.185-.966 1.597-.836 3.584.056.817.669 1.69 1.579 1.69.835 0 1.467-.743 1.56-1.504.148-1.245-.465-3.529-.817-3.752.092-1.653.538-2.247 1.077-2.563a12.524 12.524 0 0 0 5.627-2.321c.65-.167 1.337-.019 2.581 1.058-.074.335.446 1.802 1.95 3.12.613.539 1.672.725 2.303.075.576-.595.52-1.56.037-2.173-.78-.984-2.823-2.173-3.231-2.08-1.096-1.226-1.207-1.969-1.04-2.582a12.236 12.236 0 0 0 2.321-5.627c.335-.575.929-.965 2.563-1.077.186.279 1.597.966 3.584.836.818-.056 1.69-.669 1.69-1.579-.018-.835-.742-1.485-1.504-1.56M37.46 13.91c.445-.111 1.3-.539 2.34-1.616.018-.018.018 0 .018.019-.241.761-1.82 1.727-2.358 1.597m-1.096-.483c.241-.984 1.096-2.488 1.968-3.083 1.208-.817 1.783 0 1.579-.093-2.136-.928-3.194 3.566-3.361 3.659-.91.501-2.229 1.393-3.269.706 1.504.427 2.711-.817 3.083-1.189m-9.137-7.28c0-.018.018-.018.018 0 .372.706-.055 2.507-.538 2.804.241-.408.557-1.318.52-2.804M25.59 9.36c-.52-.873-.984-2.544-.78-3.566.279-1.43 1.263-1.263 1.059-1.188-2.173.854.279 4.773.204 4.977-.297.984-.594 2.563-1.801 2.804 1.356-.78 1.318-2.507 1.318-3.027m-11.588 1.281c.761.242 1.727 1.82 1.597 2.359-.111-.446-.539-1.3-1.616-2.34 0 0 0-.019.019-.019m1.114 3.455c-.984-.242-2.488-1.096-3.083-1.969-.817-1.207 0-1.783-.093-1.578-.928 2.135 3.566 3.194 3.659 3.361.501.91 1.393 2.229.706 3.269.427-1.505-.817-2.712-1.189-3.083m-7.298 9.1c.705-.372 2.507.055 2.804.538-.39-.241-1.282-.538-2.786-.52-.018.019-.018 0-.018-.018m3.231 1.653c-.873.52-2.544.984-3.566.78-1.43-.279-1.263-1.263-1.188-1.059.873 2.173 4.773-.279 4.977-.204.984.297 2.563.594 2.804 1.801-.761-1.337-2.488-1.318-3.027-1.318m3.64 10.01c-.446.111-1.3.538-2.34 1.615-.019.019-.019 0-.019-.018.242-.762 1.839-1.746 2.359-1.597m1.096.482c-.242.985-1.096 2.489-1.969 3.083-1.207.817-1.783 0-1.578.093 2.135.929 3.194-3.566 3.361-3.658.91-.502 2.229-1.393 3.269-.706-1.505-.427-2.712.817-3.083 1.188m9.137 7.28c0 .019-.019.019-.019 0-.371-.705.056-2.507.539-2.804-.242.409-.539 1.3-.52 2.804m1.634-3.231c.52.873.984 2.544.78 3.566-.278 1.43-1.263 1.263-1.058 1.188 2.172-.854-.279-4.773-.205-4.977.297-.984.595-2.563 1.802-2.804-1.356.78-1.319 2.507-1.319 3.027m11.589-1.281c-.762-.242-1.727-1.82-1.597-2.359.111.446.538 1.3 1.615 2.34 0 .019 0 .037-.018.019m-1.115-3.455c.985.242 2.489 1.096 3.083 1.969.817 1.207 0 1.783.093 1.578.929-2.135-3.566-3.194-3.658-3.361-.502-.91-1.393-2.229-.706-3.269-.427 1.523.817 2.712 1.188 3.083m-10.957 1.467A11.203 11.203 0 0 1 15.21 27.69c1.56 4.513 5.831 7.949 10.864 7.949s9.323-3.436 10.865-7.949c-1.226 4.829-5.628 8.431-10.865 8.431M22.77 27.45a.041.041 0 0 1 .055.055c-.167.297-.464.502-.724.687-.353.26-.687.502-1.059.725 0 0-.018 0 0-.019.26-.297.539-.52.855-.761.278-.223.538-.52.873-.687m-.52-7.058c-.26-.352-.502-.687-.725-1.058 0 0 0-.019.019 0 .297.26.52.538.761.854.223.297.52.557.706.892a.041.041 0 0 1-.056.055c-.297-.167-.501-.464-.705-.743m.204 7.113c-.91.929-2.136 1.746-3.38 2.136 1.188-.594 2.136-1.653 3.343-2.191.037 0 .074.037.037.055m-.427 1.56c.278-.427.538-.928 1.021-1.114.019-.019.037.019.019.037-.855 1.077-1.616 2.192-2.396 3.324h-.019c.428-.817.892-1.504 1.375-2.247m1.3-.891c.501.093.91.037 1.225-.112.112.335.353.669.78.929-.074 1.43-.427 3.25-.872 4.364a9.1 9.1 0 0 1-3.622-1.504c.483-1.096 1.579-2.619 2.489-3.677m2.34.966c.018-.038.074-.038.074 0 .019 1.3-.279 2.748-.873 3.9 0 0-.018 0 0 0 .409-1.245.334-2.675.799-3.9m.093.872c.055-.371.037-.761.13-1.114.018-.037.074-.037.092 0 .093.316.019.687-.018 1.003-.056.427-.149.836-.242 1.263h-.018c-.019-.39.018-.762.056-1.152m-2.823-4.735c.445 1.3 1.69 2.303 3.138 2.303 1.449 0 2.693-.985 3.139-2.303a3.249 3.249 0 0 1-3.139 2.433 3.228 3.228 0 0 1-3.138-2.433m1.467-.892c0-.928.743-1.671 1.671-1.671.929 0 1.672.743 1.672 1.671 0 .929-.743 1.672-1.672 1.672a1.664 1.664 0 0 1-1.671-1.672M29.9 28.36c.26.352.501.687.724 1.058 0 0 0 .019-.018 0-.297-.26-.52-.538-.762-.854-.223-.297-.52-.557-.705-.892a.041.041 0 0 1 .055-.055c.297.185.502.483.706.743m-.576-7.113c.167-.297.465-.502.725-.687.352-.26.687-.502 1.058-.725 0 0 .019 0 0 .019-.26.297-.538.52-.854.761-.297.223-.557.52-.892.706-.018.019-.055-.037-.037-.074m-2.86 7.8c.019-.019.037-.019.056.018.167 1.356.409 2.693.65 4.049 0 0-.019.018-.019 0-.278-.854-.445-1.672-.631-2.544-.111-.52-.279-1.04-.056-1.523m.353-.037c.427-.279.687-.613.799-.948.315.149.724.205 1.207.112.947 1.058 1.987 2.6 2.47 3.696a9.213 9.213 0 0 1-3.622 1.504c-.445-1.133-.761-2.972-.854-4.364m2.34-.966c-.018-.037.019-.074.056-.037.928.91 1.746 2.135 2.136 3.38-.595-1.207-1.653-2.155-2.192-3.343m1.597.39c-.427-.279-.928-.539-1.114-1.022-.019-.018.019-.037.037-.018 1.077.854 2.192 1.616 3.324 2.396v.018c-.798-.427-1.504-.891-2.247-1.374m-.891-1.3c.093-.502.037-.91-.112-1.226.335-.111.669-.353.929-.78 1.43.074 3.25.427 4.364.873a9.1 9.1 0 0 1-1.504 3.621c-1.096-.482-2.6-1.578-3.677-2.488m2.377-3.194c-.501.111-1.021.278-1.504.055-.019-.018-.019-.037.018-.055 1.356-.168 2.693-.409 4.049-.65 0 0 .018.018 0 .018-.854.279-1.69.446-2.563.632m2.507 1.671c-1.263-.427-2.674-.353-3.9-.817-.037-.019-.037-.074 0-.074 1.3 0 2.749.278 3.9.891 0-.019 0 0 0 0m-3.157-1.114c.427.055.836.148 1.263.241v.019c-.39.037-.762 0-1.152-.056-.371-.056-.761-.037-1.114-.13a.053.053 0 0 1 0-.093c.316-.111.687-.037 1.003.019m-.891-.855c-.279-.427-.613-.687-.948-.798.149-.316.205-.724.112-1.207 1.058-.947 2.6-1.987 3.696-2.47a9.213 9.213 0 0 1 1.504 3.621c-1.114.446-2.972.743-4.364.854m2.377-4.531c-1.189.594-2.136 1.653-3.343 2.191-.037.019-.074-.018-.037-.055.91-.929 2.135-1.746 3.38-2.136m-2.953.594c-.279.427-.539.929-1.022 1.115-.018.018-.037-.019-.018-.038.854-1.077 1.616-2.191 2.396-3.324h.018c-.427.799-.891 1.486-1.374 2.247m-1.3.873c-.502-.093-.91-.037-1.226.112-.111-.335-.353-.669-.78-.929.074-1.43.427-3.25.873-4.364a9.1 9.1 0 0 1 3.621 1.504c-.482 1.114-1.578 2.619-2.488 3.677m-2.34-.966c-.019.038-.074.038-.074-.018-.019-1.3.278-2.749.872-3.9 0 0 .019 0 0 0-.408 1.281-.334 2.693-.798 3.918m-.093-.872c-.056.371-.037.761-.13 1.114a.053.053 0 0 1-.093 0c-.093-.316-.018-.687.019-1.003.055-.427.148-.836.241-1.263h.019c.018.409-.019.78-.056 1.152m2.823 4.735c-.446-1.3-1.69-2.303-3.139-2.303-1.448 0-2.693.985-3.138 2.303a3.249 3.249 0 0 1 3.138-2.433 3.249 3.249 0 0 1 3.139 2.433m-3.529-3.751c-.018.018-.037 0-.055-.019-.168-1.355-.409-2.693-.65-4.048 0 0 .018-.019.018 0 .279.854.446 1.671.632 2.544.111.501.278 1.04.055 1.523m-.353.037c-.427.279-.687.613-.798.947-.316-.148-.724-.204-1.207-.111-.947-1.059-1.987-2.6-2.47-3.696a9.213 9.213 0 0 1 3.621-1.504c.464 1.114.762 2.953.854 4.364m-2.34.966c.019.037-.018.074-.055.037-.929-.91-1.746-2.136-2.136-3.38.594 1.188 1.653 2.136 2.191 3.343m-1.597-.39c.427.278.929.538 1.115 1.021.018.019-.019.037-.038.019-1.077-.855-2.191-1.616-3.324-2.396v-.019c.799.409 1.504.892 2.247 1.375m.892 1.3c-.093.501-.037.91.111 1.225-.334.112-.668.353-.928.78-1.43-.074-3.25-.427-4.365-.872a9.1 9.1 0 0 1 1.505-3.622c1.095.483 2.618 1.56 3.677 2.489m-2.377 3.194c.501-.111 1.021-.279 1.504-.056.018.019 0 .037-.019.056-1.355.167-2.693.409-4.048.65 0 0-.019-.019 0-.019.854-.297 1.69-.445 2.563-.631M17.4 23.159c1.263.427 2.675.352 3.9.817.038.018.038.074-.018.074-1.282 0-2.73-.297-3.882-.891m3.158 1.114c-.428-.056-.836-.149-1.263-.242v-.018c.39-.037.761 0 1.151.056.372.055.762.037 1.114.13a.051.051 0 0 1 0 .092c-.315.093-.668.019-1.002-.018m.891.854c.279.427.613.687.947.799-.148.315-.204.724-.111 1.207-1.059.947-2.6 1.987-3.696 2.47a9.213 9.213 0 0 1-1.504-3.622c1.133-.464 2.971-.761 4.364-.854m4.624-11.997c-5.033 0-9.323 3.436-10.864 7.949 1.244-4.848 5.627-8.432 10.864-8.432 5.237 0 9.639 3.584 10.865 8.432-1.542-4.513-5.832-7.949-10.865-7.949M44.33 25.554c-.706.372-2.507-.055-2.804-.538.39.241 1.281.538 2.785.52.019 0 .019.018.019.018m1.523-1.393c-.873-2.172-4.773.279-4.977.205-.985-.297-2.563-.595-2.805-1.802.78 1.356 2.508 1.319 3.028 1.319.872-.52 2.544-.984 3.565-.78 1.43.278 1.263 1.263 1.189 1.058" fill="#FFF"/><path d="M47.617 31.2c.594 1.189 1.244 2.359 1.579 3.51-1.727-1.449-5.72-4.049-7.113-4.086.371-.538 1.374-1.021.984-2.767-.037-.167-.148.037-.13.204.149 1.022-.446 1.393-1.133 2.099-.538.539-.668 1.746-.743 3.993-.315.241-.668.297-1.095.316-2.229.092-4.197-1.449-7.615-2.248-2.08-.482-4.178-.631-6.332-.594-2.155-.037-4.253.112-6.333.594-3.417.78-5.386 2.34-7.615 2.248-.427-.019-.78-.075-1.095-.316-.075-2.247-.223-3.436-.743-3.993-.687-.706-1.282-1.077-1.133-2.099.019-.148-.093-.352-.13-.204-.39 1.727.613 2.21.984 2.767-1.393.037-5.404 2.637-7.113 4.086.335-1.151.985-2.321 1.579-3.51-.093-.074-3.361.464-3.659.501 1.375-1.207 2.953-2.377 4.495-3.287 3.38-1.987 6.555-1.838 6.63-1.578-.112.315-.037 1.244.093 1.801-.78.037-1.412.037-1.895-.204-.891-.427.52-1.04.966-1.059.056 0 .056-.074.019-.093-.948-.26-2.21.669-1.17 1.449.947.706 2.934.26 3.992.074 2.285-.408 5.293-2.005 12.146-2.08 6.853.075 9.862 1.672 12.146 2.08 1.058.186 3.046.632 3.993-.074 1.04-.78-.223-1.727-1.17-1.449-.056.019-.037.075.018.093.446.019 1.857.613.966 1.059-.464.223-1.114.241-1.894.204.13-.538.204-1.486.093-1.801.074-.26 3.25-.39 6.63 1.578 1.56.91 3.12 2.099 4.494 3.287-.353-.037-3.603-.594-3.696-.501" fill="#FFF"/><path d="M25.944 32.036c2.322-.019 4.717.185 6.37.575 2.805.669 7.447 3.418 8.989 1.913.353-.353.148-2.433.538-3.473 1.003-.148 5.256 2.433 7.503 4.123.186.149.335.075.335.075.241-.26-.985-2.768-1.635-3.696 2.935.483 3.046.557 3.622.52.185.018.26-.074.148-.186-6.463-6.704-12.424-5.757-12.164-5.126.353.873-.019 1.839-.019 1.858-3.064-.298-6.852-2.303-13.631-2.34-6.779.037-10.567 2.042-13.631 2.34 0 0-.372-.966-.019-1.858.26-.631-5.701-1.578-12.164 5.126-.093.112-.037.186.148.186.576.018.687-.037 3.622-.52-.669.928-1.876 3.436-1.635 3.696 0 0 .149.074.335-.075 2.265-1.69 6.5-4.271 7.503-4.123.408 1.04.185 3.12.538 3.473 1.542 1.523 6.129-1.244 8.933-1.913 1.653-.408 4.086-.594 6.314-.575m21.673-.836c.594 1.189 1.244 2.359 1.579 3.51-1.727-1.449-5.72-4.049-7.113-4.086.371-.538 1.374-1.021.984-2.767-.037-.167-.148.037-.13.204.149 1.022-.446 1.393-1.133 2.099-.538.539-.668 1.746-.743 3.993-.315.241-.668.297-1.095.316-2.229.092-4.197-1.449-7.615-2.248-2.08-.482-4.178-.631-6.332-.594-2.155-.037-4.253.112-6.333.594-3.417.78-5.386 2.34-7.615 2.248-.427-.019-.78-.075-1.095-.316-.075-2.247-.223-3.436-.743-3.993-.687-.706-1.282-1.077-1.133-2.099.019-.148-.093-.352-.13-.204-.39 1.727.613 2.21.984 2.767-1.393.037-5.404 2.637-7.113 4.086.335-1.151.985-2.321 1.579-3.51-.093-.074-3.361.464-3.659.501 1.375-1.207 2.953-2.377 4.495-3.287 3.38-1.987 6.555-1.838 6.63-1.578-.112.315-.037 1.244.093 1.801-.78.037-1.412.037-1.895-.204-.891-.427.52-1.04.966-1.059.056 0 .056-.074.019-.093-.948-.26-2.21.669-1.17 1.449.947.706 2.934.26 3.992.074 2.285-.408 5.293-2.005 12.146-2.08 6.853.075 9.862 1.672 12.146 2.08 1.058.186 3.046.632 3.993-.074 1.04-.78-.223-1.727-1.17-1.449-.056.019-.037.075.018.093.446.019 1.857.613.966 1.059-.464.223-1.114.241-1.894.204.13-.538.204-1.486.093-1.801.074-.26 3.25-.39 6.63 1.578 1.56.91 3.12 2.099 4.494 3.287-.353-.037-3.603-.594-3.696-.501" fill="#FFF"/><path d="M13.724 33.577c-.835.149-.631.372-2.117.26-.167-.018-.204.242-.037.297 1.3.335 2.359-.594 2.154-.557" fill="#00365F"/><path d="M12.777 33.299c-.891.204-1.263-.056-1.244.26.018.371.891.092 1.281-.168.056-.018.019-.092-.037-.092" fill="#00365F"/><path d="M12.146 33.02c-.075 0-.13-.037-.205-.037-.872-.037-.65.371-.445.39.39.018.483-.13.668-.279.037-.018.037-.074-.018-.074m.148-3.566c-.538-.055-1.095-.074-1.615-.148-.149-.019-.706-.316-.762-.075-.111.335 1.244.558 2.377.223 0 .019 0 0 0 0m-.408.319c-.465-.119-2.006-.02-1.597.219.204.12.464.04.687.02l.873-.06c.111 0 .13-.159.037-.179m-.446.368c-.204-.037-.501-.13-.706-.018-.093.056-.093.204 0 .26.205.111.502.018.706-.019.111-.018.111-.204 0-.223m-5.311-1.745c-1.17.185-3.046 1.708-3.51 2.358-.038.056.037.13.092.093 1.059-.65.539-.78 3.436-2.396.019-.018 0-.055-.018-.055" fill="#00365F"/><path d="M5.144 29.361c-.687-.018-2.191 1.598-1.82 1.505.112-.019.167-.112.26-.205.632-.631 1.096-.872 1.579-1.225.037-.019.018-.075-.019-.075m.186.483c-.501.279-.966.557-1.43.91-.13.093 0 .26.13.167.446-.352.91-.65 1.3-1.077.019.019.019 0 0 0m1.096 1.82c-.687.26-2.377 1.337-2.767 1.857-.038.038.018.112.074.093.483-.185.873-.594 1.281-.891.446-.334 1.727-1.189 1.412-1.059m-1.096.167c-.279.056-.929.613-1.114.799-.13.13-.279.186-.39.316-.019.018.018.055.037.055.371-.074 1.671-1.225 1.467-1.17m.204-.557c-.334-.148-.947.52-1.207.78-.093.093.056.223.13.13l.52-.52c.056-.018.594-.371.557-.39m32.835 2.303c.835.149.631.372 2.117.26.167-.018.204.242.037.297-1.319.335-2.377-.594-2.154-.557" fill="#00365F"/><path d="M39.316 33.299c.891.204 1.263-.056 1.244.26-.019.371-.891.092-1.281-.168-.056-.018-.038-.092.037-.092" fill="#00365F"/><path d="M39.929 33.02c.074 0 .13-.037.204-.037.873-.037.65.371.446.39-.39.018-.483-.13-.669-.279-.019-.018-.019-.074.019-.074m-.149-3.566c.539-.055 1.096-.074 1.616-.148.148-.019.705-.316.761-.075.112.335-1.226.558-2.377.223 0 .019 0 0 0 0m.427.319c.464-.119 2.006-.02 1.597.219-.204.12-.464.04-.687.02l-.873-.06c-.111 0-.148-.159-.037-.179m.446.368c.204-.037.501-.13.706-.018.092.056.092.204 0 .26-.205.111-.502.018-.706-.019-.112-.018-.112-.204 0-.223m5.311-1.745c1.17.185 3.046 1.708 3.51 2.358.037.056-.037.13-.093.093-1.058-.65-.538-.78-3.435-2.396-.019-.018 0-.055.018-.055" fill="#00365F"/><path d="M46.949 29.361c.687-.018 2.191 1.598 1.82 1.505-.112-.019-.168-.112-.26-.205-.632-.631-1.096-.872-1.579-1.225-.037-.019-.037-.075.019-.075m-.205.483c.502.279.966.557 1.43.91.13.093 0 .26-.13.167-.445-.352-.91-.65-1.3-1.077-.018.019 0 0 0 0m-1.077 1.82c.687.26 2.377 1.337 2.767 1.857.037.038-.018.112-.074.093-.483-.185-.873-.594-1.281-.891-.446-.334-1.746-1.189-1.412-1.059m1.077.167c.279.056.929.613 1.115.799.13.13.278.186.39.316.018.018-.019.055-.038.055-.352-.074-1.671-1.225-1.467-1.17m-.204-.557c.334-.148.947.52 1.207.78.093.093-.056.223-.13.13l-.52-.52c-.056-.018-.594-.371-.557-.39" fill="#00365F"/><path fill="#FFF" d="M5.999 12.313v.018l1.411 1.542-.167.297-2.062-.279v.019l1.059.483.353.204.186-.223.278.149-.501.966-.279-.149.074-.279-1.671-.872-.186.222-.278-.148.13-.26.315-.594 2.043.297v-.019l-1.411-1.486.464-.872.279.148-.093.279 1.69.873.167-.223.297.148-.52.966-.278-.149.074-.278-.353-.186zm1.931-.056l.093-.167-1.393-2.006.316-.445 2.321.705.13-.13.26.186-.52.724-.26-.185.074-.168-.352-.111-.502.687.223.316.13-.13.26.186-.52.724-.26-.186zm-.074-1.244l.353-.483-.929-.297.576.78zm.798-3.417c.205-.223.409-.353.632-.372.223-.037.408.037.594.205a.789.789 0 0 1 .186.315.735.735 0 0 1-.037.39c.148-.074.278-.111.39-.093.13.019.241.093.352.205l.093.093a.3.3 0 0 0 .13.074c.037 0 .075-.019.112-.037l.055-.037.242.222-.186.205c-.111.13-.241.185-.353.167a.71.71 0 0 1-.334-.167l-.111-.112a.396.396 0 0 0-.298-.13.387.387 0 0 0-.278.13l-.297.316.501.483.242-.167.241.223-.743.798-.241-.223.148-.241-1.393-1.3-.222.167-.242-.223.186-.204.631-.687zm.595 1.077l.241-.26c.093-.112.149-.204.149-.316a.324.324 0 0 0-.13-.26.446.446 0 0 0-.279-.111c-.093 0-.204.055-.297.167l-.26.278.576.502zm.761-1.987l-.204-.242.817-.724.204.241-.167.223 1.263 1.412.241-.149.223.242-.817.724-.223-.242.186-.222-1.263-1.412zm2.804-2.675l.427.576-.334.242-.186-.223-.39.278 1.115 1.505.26-.13.185.26-.872.65-.205-.26.205-.205L11.904 5.2l-.39.297.167.26-.334.242-.408-.576zm.539.075l-.167-.279.928-.576.167.279-.204.186.984 1.615.279-.092.167.26-.947.575-.149-.26.205-.204-.985-1.616zm3.788-1.597h-.018l.186 2.061-.316.167-1.467-1.486v.019l.538 1.021.167.372.279-.056.13.279-.984.464-.13-.279.223-.167-.799-1.727-.279.074-.13-.297.26-.111.613-.297 1.43 1.485.019-.018-.204-2.043.872-.409.149.279-.241.186.798 1.708.279-.074.13.297-.985.464-.13-.297.223-.167-.167-.371zm2.489.798l.167-.074.223-2.414.52-.13 1.337 2.042.186-.018.074.316-.873.222-.074-.315.167-.075-.204-.315-.836.204-.018.371.185-.018.075.316-.873.222-.056-.334zm.743-.984l.594-.149-.52-.835h-.018l-.056.984zM24.7.019l.037.315-.278.093.26 2.247-.52.056-1.263-1.634h-.019l.167 1.393.279.018.037.316-1.077.13-.037-.316.278-.093L22.341.67l-.278-.02-.037-.316.278-.037.52-.056 1.263 1.635h.019L23.939.483 23.66.464 23.623.15l.798-.093zm1.69 0c.316 0 .594.111.799.315.204.205.315.483.297.799v.446c0 .315-.112.594-.335.78-.204.204-.482.297-.798.297l-1.189-.019v-.316l.279-.055L25.48.37l-.279-.055V0h.279l.91.019zm-.371.408L26 2.247h.353a.552.552 0 0 0 .446-.186.743.743 0 0 0 .167-.501v-.446a.845.845 0 0 0-.149-.501.565.565 0 0 0-.446-.204l-.352.018zM29.25.241c.297.038.52.13.669.298a.744.744 0 0 1 .185.594.688.688 0 0 1-.148.334c-.075.093-.205.149-.335.186.149.074.242.148.298.278.055.112.074.26.055.409l-.018.13c0 .056 0 .111.018.13.019.037.056.056.112.074l.055.019-.037.316-.278-.038c-.167-.018-.279-.092-.335-.185-.055-.093-.074-.223-.055-.372l.018-.148a.444.444 0 0 0-.055-.316.408.408 0 0 0-.279-.149l-.427-.055-.093.687.279.093-.038.315-1.077-.148.037-.316.279-.018.241-1.876-.278-.093.037-.316.279.037.891.13zm-.52 1.096l.371.056c.149.018.26 0 .335-.056a.364.364 0 0 0 .148-.26c.019-.111 0-.223-.074-.297-.056-.074-.167-.13-.316-.149l-.371-.055-.093.761zm2.061-.52l.056-.316 1.077.242-.074.316-.279-.019-.427 1.857.26.112-.074.315-1.059-.26.075-.297h.278L31.051.93zm.836 2.21l.186.037 1.486-1.931.52.167.037 2.433.167.093-.093.297-.854-.279.093-.297.185.019v-.372l-.817-.26-.223.316.167.093-.092.297-.855-.279.093-.334zm1.152-.446l.575.186.019-.984h-.019l-.575.798zm4.271.093l-.297.632-.372-.167.112-.279-.446-.204-.78 1.69.242.167-.13.297-1.003-.464.13-.279.278.056.78-1.69-.445-.204-.13.26-.372-.168.297-.631zm.204.483l.167-.278.948.557-.168.278-.26-.093-.947 1.635.223.185-.167.279-.947-.539.167-.278.26.093.947-1.635zm2.767 2.47l-.315-.223.148-.315a.572.572 0 0 0-.093-.223 1.06 1.06 0 0 0-.204-.205c-.186-.13-.39-.167-.576-.092a1.03 1.03 0 0 0-.52.427l-.055.074c-.149.223-.223.427-.223.65 0 .204.093.371.278.501.093.056.168.093.26.13.093.019.168.038.242.019l.241-.26.316.223-.297.427a1.141 1.141 0 0 1-.502 0 1.425 1.425 0 0 1-.52-.223c-.297-.204-.464-.464-.501-.798a1.35 1.35 0 0 1 .26-.966l.056-.074c.223-.316.483-.502.817-.576.334-.074.631 0 .928.186.168.111.298.26.39.408.093.149.149.316.168.483l-.298.427zm2.712 2.433l-.279-.279.205-.297a.494.494 0 0 0-.056-.223.873.873 0 0 0-.167-.222.597.597 0 0 0-.557-.186 1.14 1.14 0 0 0-.595.334l-.055.074c-.186.186-.298.39-.316.595a.608.608 0 0 0 .204.538c.074.075.149.13.242.167a.56.56 0 0 0 .222.056l.279-.223.279.279-.372.371a.95.95 0 0 1-.501-.074 1.48 1.48 0 0 1-.483-.297 1.14 1.14 0 0 1-.372-.873c0-.334.149-.631.409-.91l.056-.056c.26-.278.557-.427.891-.445.334-.019.632.092.892.334.148.148.26.297.315.464a1.2 1.2 0 0 1 .093.502l-.334.371zm-1.04 1.449l.241-.205.223.186 1.449-1.226-.13-.241.241-.204.167.204.353.408.186.223-.26.205-.223-.186-1.43 1.188.483.576.278-.186.26.298-.575.482zm4.104.984l-.26.167-.204-.204-1.152.761c-.148.093-.222.204-.241.334a.53.53 0 0 0 .111.39.68.68 0 0 0 .316.26c.13.038.26 0 .409-.092l1.151-.762-.111-.26.26-.167.613.91-.26.186-.205-.205-1.151.762c-.242.167-.483.204-.724.13-.242-.074-.446-.242-.632-.502-.167-.26-.241-.52-.223-.761.019-.241.167-.464.409-.613l1.151-.761-.111-.26.26-.167.148.241.298.446.148.167zm1.634 2.804c.13.279.186.52.168.724a.644.644 0 0 1-.372.483c-.111.056-.223.075-.334.056a.707.707 0 0 1-.316-.149.602.602 0 0 1-.037.409.723.723 0 0 1-.297.279c-.223.111-.427.13-.632.037-.185-.093-.352-.279-.482-.557l-.576-1.17.278-.149.168.223 1.69-.836-.075-.278.279-.149.13.26.408.817zm-1.485.334l-.687.335.222.445c.056.13.13.205.223.242a.339.339 0 0 0 .297-.019.433.433 0 0 0 .223-.223c.037-.092.019-.185-.037-.315l-.241-.465zm.334-.167l.167.335c.056.13.13.204.223.26a.298.298 0 0 0 .279-.019c.111-.056.167-.13.185-.223.019-.093 0-.204-.074-.353l-.167-.315-.613.315zM3.306 17.55l.91.13.594-.669.167.892.836.371-.799.427-.093.91-.668-.631-.892.186.39-.817zm45.11 0l-.892.13-.613-.669-.167.892-.817.371.799.427.093.91.65-.631.891.186-.39-.817z"/><path fill="#00365F" d="M20.094 28.823l-.223 2.414-.408.112-1.374-1.988.39 1.3.13.465.334-.019.093.353-1.245.334-.092-.371.315-.13-.575-2.154-.335.018-.093-.353.316-.093.799-.204 1.337 2.006.186-2.396 1.114-.297.093.353-.297.148.557 2.155.334-.019.093.353-1.244.316-.093-.353.315-.149-.13-.464zm2.767 1.467l.223-.037.78-2.73.632-.037 1.095 2.618.223.019.019.371-1.059.056-.018-.371.204-.056-.167-.409-1.003.056-.111.427.222.019.019.371-1.059.056v-.353zm1.078-.984l.705-.037-.408-1.059h-.019l-.278 1.096zm6.741-1.542l-.037.372-.334.018-.279 2.637-.613-.055-1.021-2.21-.019.018-.167 1.616.316.111-.037.372-1.263-.149.037-.353.334-.037.223-2.21-.316-.093.037-.371.335.037.613.056 1.021 2.21h.019l.167-1.634-.335-.112.056-.353.929.093zm4.03 2.099l-.446-.13.056-.409a.481.481 0 0 0-.186-.204 1.11 1.11 0 0 0-.297-.149.748.748 0 0 0-.687.112c-.186.148-.334.371-.427.668l-.037.112c-.093.297-.093.557 0 .798.074.223.241.39.501.465a.691.691 0 0 0 .334.037.48.48 0 0 0 .26-.074l.186-.372.446.13-.167.594a1.438 1.438 0 0 1-.557.205 1.97 1.97 0 0 1-.65-.056 1.309 1.309 0 0 1-.855-.706c-.167-.353-.185-.743-.074-1.17l.037-.093c.13-.427.353-.742.687-.947.335-.204.706-.241 1.096-.13.223.075.427.167.576.316.167.13.278.297.353.464l-.149.539z"/></g></svg>