<svg width="25" height="25" viewBox="0 0 25 25" xmlns="http://www.w3.org/2000/svg"><title>Shape@2x</title><path d="M12.5 0C5.609 0 0 5.609 0 12.5S5.609 25 12.5 25 25 19.391 25 12.5 19.391 0 12.5 0zM6.474 21.955c.097-3.333 2.853-6.218 6.026-6.218 3.173 0 5.93 2.885 6.026 6.218a11.068 11.068 0 0 1-6.026 1.763c-2.212 0-4.295-.641-6.026-1.763zM9.68 10.93c0-1.538 1.25-2.82 2.821-2.82 1.57 0 2.82 1.25 2.82 2.82a2.804 2.804 0 0 1-2.82 2.821 2.825 2.825 0 0 1-2.82-2.82zm10.065 10.129c-.417-3.11-2.693-5.673-5.577-6.41 1.41-.642 2.404-2.084 2.404-3.719a4.11 4.11 0 0 0-4.103-4.102 4.09 4.09 0 0 0-4.103 4.102c0 1.667.994 3.077 2.404 3.718-2.884.738-5.128 3.302-5.577 6.41a11.316 11.316 0 0 1-3.91-8.557c0-6.186 5.032-11.218 11.218-11.218S23.718 6.314 23.718 12.5c0 3.43-1.539 6.506-3.974 8.558z" fill="#666"/></svg>