<svg width="20" height="21" viewBox="0 0 20 21" xmlns="http://www.w3.org/2000/svg"><title>sond@2x</title><g fill="#00365F"><path d="M5.641 16.074H.769A.774.774 0 0 1 0 15.296V5.704c0-.43.344-.778.77-.778h4.87c.425 0 .77.348.77.778v9.592c0 .43-.345.778-.77.778zM1.538 14.52h3.334V6.48H1.538v8.038z"/><path d="M12.051 20.76a.764.764 0 0 1-.471-.164l-6.41-5.022a.781.781 0 0 1-.298-.625V5.83a.781.781 0 0 1 .297-.625l6.41-5.04a.762.762 0 0 1 .819-.08c.265.134.43.412.423.712v19.185c0 .43-.345.778-.77.778zm-5.64-6.19l4.871 3.83V2.378L6.41 6.207v8.364zm8.974 2.55a.78.78 0 0 1-.336-1.478 5.71 5.71 0 0 0 3.19-5.138 5.71 5.71 0 0 0-3.19-5.137.781.781 0 0 1-.096-1.344.762.762 0 0 1 .768-.056c2.481 1.211 4.058 3.751 4.058 6.537s-1.577 5.326-4.058 6.537a.762.762 0 0 1-.336.078z"/><path d="M15.383 13.137a.768.768 0 0 1-.678-.413.785.785 0 0 1 .042-.8 2.878 2.878 0 0 0 0-3.189.786.786 0 0 1 .21-1.084.767.767 0 0 1 1.072.213 4.448 4.448 0 0 1 0 4.926.767.767 0 0 1-.646.347z"/></g></svg>