<svg width="24" height="24" viewBox="0 0 24 24" xmlns="http://www.w3.org/2000/svg"><title>vk</title><g fill="none" fill-rule="evenodd"><path d="M0 0h24v24H0z"/><circle stroke="#00365F" cx="12" cy="12" r="11.5"/><path d="M12.396 16.326s.246-.027.372-.16c.116-.121.112-.351.112-.351s-.016-1.073.492-1.232c.5-.155 1.142 1.038 1.824 1.497.515.347.906.271.906.271l1.821-.025s.952-.057.501-.793c-.037-.06-.263-.544-1.354-1.538-1.142-1.04-.99-.872.386-2.671.838-1.096 1.173-1.765 1.068-2.051-.1-.274-.716-.201-.716-.201l-2.05.012s-.152-.02-.265.046a.569.569 0 0 0-.181.216s-.324.848-.757 1.57c-.913 1.52-1.278 1.601-1.427 1.507-.348-.22-.261-.885-.261-1.357 0-1.475.228-2.09-.444-2.249-.222-.053-.386-.088-.957-.094-.731-.007-1.35.003-1.701.171-.234.112-.414.362-.304.377.136.017.443.08.605.298.21.281.203.91.203.91s.12 1.737-.282 1.952c-.276.148-.655-.153-1.47-1.534-.416-.707-.731-1.489-.731-1.489s-.06-.146-.17-.224c-.13-.095-.314-.125-.314-.125l-1.948.013s-.293.007-.4.133c-.096.11-.008.34-.008.34s1.525 3.503 3.253 5.269c1.584 1.618 3.382 1.512 3.382 1.512h.815z" fill="#00365F"/></g></svg>