<svg width="20" height="16" viewBox="0 0 20 16" xmlns="http://www.w3.org/2000/svg"><title>volume@2x</title><path d="M17.344.328a.881.881 0 0 0-1.255-.12.913.913 0 0 0-.118 1.274c.051.063 5.038 6.328-.022 13.065a.915.915 0 0 0 .168 1.27.886.886 0 0 0 1.248-.172c5.911-7.87.038-15.244-.021-15.317zm-3.462 1.856a.88.88 0 0 0-1.251-.12.915.915 0 0 0-.123 1.272c.148.185 3.583 4.558-.02 9.354a.916.916 0 0 0 .168 1.27.89.89 0 0 0 .54.185.889.889 0 0 0 .709-.357c4.475-5.957.024-11.548-.023-11.604zm-6.066 10.4l-2.964-1.918a.874.874 0 0 0-.479-.141h-2.59V5.477h2.59c.17 0 .336-.05.479-.142l2.964-1.92v9.17zM9.136.973a.886.886 0 0 0-.908.03L4.113 3.667H.891A.898.898 0 0 0 0 4.572v6.858c0 .498.398.905.891.905h3.222l4.115 2.663a.893.893 0 0 0 .908.03.91.91 0 0 0 .463-.793V1.766a.91.91 0 0 0-.463-.794z" fill="#FFF" fill-rule="evenodd"/></svg>