<svg width="11" height="13" viewBox="0 0 11 13" xmlns="http://www.w3.org/2000/svg"><title>Shape Copy@2x</title><path d="M8.945 8.015h.504c-.141 1.998-1.592 3.588-3.425 3.846v-7.52h1.712V3.244h-1.43c.504-.301.826-.86.826-1.505C7.132.774 6.407 0 5.5 0c-.907 0-1.632.774-1.632 1.74 0 .645.343 1.204.826 1.505h-1.43V4.34h1.712v7.521c-1.833-.258-3.284-1.87-3.425-3.846h.504L1.027 6.124 0 8.014h.524C.685 10.809 2.86 13 5.5 13s4.815-2.213 4.976-4.985H11L9.973 6.124l-1.028 1.89zM5.5 2.385c-.322 0-.604-.28-.604-.645 0-.343.262-.644.604-.644.322 0 .604.28.604.644 0 .366-.282.645-.604.645z" fill="#00365F"/></svg>