<?xml version="1.0" encoding="UTF-8"?>
<svg width="73px" height="72px" viewBox="0 0 73 72" version="1.1" xmlns="http://www.w3.org/2000/svg" xmlns:xlink="http://www.w3.org/1999/xlink">
    <!-- Generator: Sketch 48.1 (47250) - http://www.bohemiancoding.com/sketch -->
    <title>steer copy 24@2x</title>
    <desc>Created with Sketch.</desc>
    <defs>
        <path d="M33.9677419,9.11311307 C19.9104155,9.11311307 8.49193548,20.3517068 8.49193548,34.1875993 C8.49193548,48.0234919 19.9104155,59.2620856 33.9677419,59.2620856 C48.025069,59.2620856 59.4435484,48.0234919 59.4435484,34.1875993 C59.4435484,20.3517068 48.025069,9.11311307 33.9677419,9.11311307 Z M33.9677419,11.2026536 C46.8777236,11.2026536 57.3205645,21.4811034 57.3205645,34.1875993 C57.3205645,46.8943042 46.8777236,57.1725451 33.9677419,57.1725451 C21.0577611,57.1725451 10.6149194,46.8943042 10.6149194,34.1875993 C10.6149194,21.4811034 21.0577611,11.2026536 33.9677419,11.2026536 Z" id="path-1"></path>
        <path d="M33.9677419,14.3369644 C22.8416442,14.3369644 13.7993952,23.2367354 13.7993952,34.1875993 C13.7993952,45.1384633 22.8416442,54.0382343 33.9677419,54.0382343 C45.0938397,54.0382343 54.1360887,45.1384633 54.1360887,34.1875993 C54.1360887,23.2367354 45.0938397,14.3369644 33.9677419,14.3369644 Z M33.9677419,16.4265049 C43.9464943,16.4265049 52.0131048,24.366132 52.0131048,34.1875993 C52.0131048,44.0092756 43.9464943,51.9486937 33.9677419,51.9486937 C23.9889896,51.9486937 15.922379,44.0092756 15.922379,34.1875993 C15.922379,24.366132 23.9889896,16.4265049 33.9677419,16.4265049 Z" id="path-2"></path>
        <path d="M33.9677419,23.7398967 C28.1178578,23.7398967 23.3528226,28.4298704 23.3528226,34.1875993 C23.3528226,39.9453282 28.1178578,44.6353019 33.9677419,44.6353019 C39.8176261,44.6353019 44.5826613,39.9453282 44.5826613,34.1875993 C44.5826613,28.4298704 39.8176261,23.7398967 33.9677419,23.7398967 Z M33.9677419,25.8294372 C38.6702807,25.8294372 42.4596774,29.5592671 42.4596774,34.1875993 C42.4596774,38.8161405 38.6702807,42.5457614 33.9677419,42.5457614 C29.2652032,42.5457614 25.4758065,38.8161405 25.4758065,34.1875993 C25.4758065,29.5592671 29.2652032,25.8294372 33.9677419,25.8294372 Z" id="path-3"></path>
        <path d="M33.9677419,28.963748 C31.0490849,28.963748 28.6602823,31.314899 28.6602823,34.1875993 C28.6602823,37.0602996 31.0490849,39.4114506 33.9677419,39.4114506 C36.8863989,39.4114506 39.2752016,37.0602996 39.2752016,34.1875993 C39.2752016,31.314899 36.8863989,28.963748 33.9677419,28.963748 Z M33.9677419,31.0532885 C35.7390514,31.0532885 37.1522177,32.4442957 37.1522177,34.1875993 C37.1522177,35.9311119 35.7390514,37.3219101 33.9677419,37.3219101 C32.1964325,37.3219101 30.7832661,35.9311119 30.7832661,34.1875993 C30.7832661,32.4442957 32.1964325,31.0532885 33.9677419,31.0532885 Z" id="path-4"></path>
        <polygon id="path-5" points="30.7832661 15.3817346 30.7832661 24.784667 32.90625 24.784667 32.90625 15.3817346"></polygon>
        <polygon id="path-6" points="35.0292339 15.3817346 35.0292339 24.784667 37.1522177 24.784667 37.1522177 15.3817346"></polygon>
        <polygon id="path-7" points="30.7832661 43.7211279 30.7832661 53.1240603 32.90625 53.1240603 32.90625 43.7211279"></polygon>
        <polygon id="path-8" points="35.0292339 43.7211279 35.0292339 53.1240603 37.1522177 53.1240603 37.1522177 43.7211279"></polygon>
        <polygon id="path-9" points="43.5875126 31.1186912 43.5875126 33.2082317 53.14094 33.2082317 53.14094 31.1186912"></polygon>
        <polygon id="path-10" points="43.5875126 35.2977722 43.5875126 37.3873127 53.14094 37.3873127 53.14094 35.2977722"></polygon>
        <polygon id="path-11" points="14.7945439 31.1186912 14.7945439 33.2082317 24.3479713 33.2082317 24.3479713 31.1186912"></polygon>
        <polygon id="path-12" points="14.7945439 35.2977722 14.7945439 37.3873127 24.3479713 37.3873127 24.3479713 35.2977722"></polygon>
        <polygon id="path-13" points="45.2751192 18.6957459 38.5164005 25.343828 40.0174159 26.8211332 46.7761346 20.173051"></polygon>
        <polygon id="path-14" points="48.27715 21.6503562 41.5225796 28.2986473 43.023595 29.7759524 49.7781675 23.1278703 48.27715 21.6503562"></polygon>
        <polygon id="path-15" points="24.9118889 38.7340216 18.1573172 45.3823127 19.658333 46.8596178 26.4129043 40.2113267"></polygon>
        <polygon id="path-16" points="27.918068 41.6888408 21.1593491 48.336923 22.6603647 49.8142281 29.4190834 43.166146 27.918068 41.6888408"></polygon>
        <polygon id="path-17" points="22.6603647 18.6957459 21.1593491 20.173051 27.918068 26.8211332 29.4190834 25.343828 22.6603647 18.6957459"></polygon>
        <polygon id="path-18" points="19.658333 21.6503562 18.1573172 23.1278703 24.9118889 29.7759524 26.4129043 28.2986473 19.658333 21.6503562"></polygon>
        <polygon id="path-19" points="43.023595 38.7340216 41.5225796 40.2113267 48.27715 46.8596178 49.7781675 45.3823127 43.023595 38.7340216"></polygon>
        <polygon id="path-20" points="40.0174159 41.6888408 38.5164005 43.166146 45.2751192 49.8142281 46.7761346 48.336923"></polygon>
        <path d="M33.9677419,0.756831577 C32.2609054,0.756831577 30.8162955,2.10458521 30.8164378,3.7849937 L30.8164378,10.7149548 L32.9394216,10.7149548 L32.9394216,3.7849937 C32.9393792,3.27807117 33.3651202,2.8463721 33.9677419,2.8463721 C34.5703636,2.8463721 34.9961047,3.27807117 34.9960622,3.7849937 L34.9960622,10.7149548 L37.1190461,10.7149548 L37.1190461,3.7849937 C37.1191884,2.10458521 35.6745785,0.756831577 33.9677419,0.756831577 Z" id="path-21"></path>
        <path d="M33.9677419,67.6221282 C32.2609054,67.6221282 30.8162955,66.2743746 30.8164378,64.5939661 L30.8164378,57.664005 L32.9394216,57.664005 L32.9394216,64.5939661 C32.9393792,65.1008886 33.3651202,65.5325877 33.9677419,65.5325877 C34.5703636,65.5325877 34.9961047,65.1008886 34.9960622,64.5939661 L34.9960622,57.664005 L37.1190461,57.664005 L37.1190461,64.5939661 C37.1191884,66.2743746 35.6745785,67.6221282 33.9677419,67.6221282 Z" id="path-22"></path>
        <path d="M67.9354839,34.1894799 C67.9354839,32.5094893 66.5661593,31.087766 64.8588556,31.087766 L57.8179796,31.087766 L57.8179796,33.1773065 L64.8588556,33.1773065 C65.3738915,33.1773065 65.8125,33.5962594 65.8125,34.1894799 C65.8125,34.7827005 65.3738915,35.2016533 64.8588556,35.2016533 L57.8179796,35.2016533 L57.8179796,37.2911939 L64.8588556,37.2911939 C66.5661593,37.2911939 67.9354839,35.8694705 67.9354839,34.1894799 Z" id="path-23"></path>
        <path d="M0,34.1894799 C0,32.5094893 1.3693246,31.087766 3.07662823,31.087766 L10.1175042,31.087766 L10.1175042,33.1773065 L3.07662823,33.1773065 C2.56159234,33.1773065 2.12298387,33.5962594 2.12298387,34.1894799 C2.12298387,34.7827005 2.56159234,35.2016533 3.07662823,35.2016533 L10.1175042,35.2016533 L10.1175042,37.2911939 L3.07662823,37.2911939 C1.3693246,37.2911939 0,35.8694705 0,34.1894799 Z" id="path-24"></path>
        <path d="M57.9865637,10.5490453 C56.7796473,9.36114153 54.7898956,9.30869407 53.5827499,10.4968068 L48.604098,15.3969883 L50.1052748,16.8745024 L55.0839267,11.9743209 C55.4480821,11.6159647 56.0592701,11.6069797 56.4853869,12.0265594 C56.9115059,12.4459302 56.9024068,13.0475089 56.5381855,13.4058651 L51.5595336,18.3062555 L53.0607103,19.7837697 L58.0393601,14.8833792 C59.2467074,13.6952665 59.1934736,11.7369491 57.9865615,10.5490453 L57.9865637,10.5490453 Z" id="path-25"></path>
        <path d="M9.94892191,57.8299145 C8.74200621,56.6420107 8.68877154,54.6836933 9.89611905,53.4955806 L14.8747701,48.5951902 L16.3759465,50.0727043 L11.3972952,54.9730947 C11.0330799,55.3314509 11.0239812,55.9330296 11.450098,56.3524004 C11.8762159,56.7717712 12.4874034,56.7627862 12.8515587,56.4046389 L17.83021,51.5044574 L19.3313863,52.9819715 L14.352735,57.882153 C13.1455896,59.0704747 11.1558376,59.0180272 9.94892169,57.8299145 L9.94892191,57.8299145 Z" id="path-26"></path>
        <path d="M9.94892063,10.5490453 C11.1558363,9.36114153 13.1455885,9.30869407 14.3527339,10.4968068 L19.331385,15.3969883 L17.8302087,16.8745024 L12.8515576,11.9743209 C12.4874022,11.6159647 11.8762149,11.6069797 11.450097,12.0265594 C11.0239791,12.4459302 11.0330775,13.0475089 11.397292,13.4058651 L16.3759431,18.3062555 L14.874767,19.7837697 L9.89611565,14.8833792 C8.68876921,13.6952665 8.74200388,11.7369491 9.94892063,10.5490453 Z" id="path-27"></path>
        <path d="M57.9865615,57.8299145 C59.1934779,56.6420107 59.2467117,54.6836933 58.0393601,53.4955806 L53.0607082,48.5951902 L51.5595315,50.0727043 L56.5381834,54.9730947 C56.9023983,55.3314509 56.9114974,55.9330296 56.4853848,56.3524004 C56.059268,56.7717712 55.44808,56.7627862 55.0839246,56.4046389 L50.1052748,51.5044574 L48.604098,52.9819715 L53.5827478,57.882153 C54.7898934,59.0704747 56.7796452,59.0180272 57.9865615,57.8299145 Z" id="path-28"></path>
    </defs>
    <g id="Cards" stroke="none" stroke-width="1" fill="none" fill-rule="evenodd" transform="translate(-894.000000, -1268.000000)">
        <g id="Group-9" transform="translate(728.000000, 1240.000000)">
            <g id="steer-copy-24" transform="translate(168.096774, 29.612903)">
                <g id="Group">
                    <g id="Shape" fill-rule="nonzero">
                        <use fill="" fill-rule="evenodd" xlink:href="#path-1"></use>
                        <path stroke="#8B3512" stroke-width="2" d="M33.9677419,8.11311307 C48.5738344,8.11311307 60.4435484,19.7958402 60.4435484,34.1875993 C60.4435484,48.5793585 48.5738344,60.2620856 33.9677419,60.2620856 C19.3616499,60.2620856 7.49193548,48.5793583 7.49193548,34.1875993 C7.49193548,19.7958404 19.3616499,8.11311307 33.9677419,8.11311307 Z M33.9677419,12.2026536 C21.6065637,12.2026536 11.6149194,22.0369333 11.6149194,34.1875993 C11.6149194,46.3384006 21.606489,56.1725451 33.9677419,56.1725451 C46.3289955,56.1725451 56.3205645,46.3384009 56.3205645,34.1875993 C56.3205645,22.0369331 46.3289207,12.2026536 33.9677419,12.2026536 Z"></path>
                    </g>
                    <g id="Shape" fill-rule="nonzero">
                        <use fill="" fill-rule="evenodd" xlink:href="#path-2"></use>
                        <path stroke="#8B3512" stroke-width="2" d="M33.9677419,13.3369644 C45.6426137,13.3369644 55.1360887,22.6808772 55.1360887,34.1875993 C55.1360887,45.6943214 45.6426137,55.0382343 33.9677419,55.0382343 C22.2928702,55.0382343 12.7993952,45.6943214 12.7993952,34.1875993 C12.7993952,22.6808772 22.2928702,13.3369644 33.9677419,13.3369644 Z M33.9677419,17.4265049 C24.5377837,17.4265049 16.922379,24.9219703 16.922379,34.1875993 C16.922379,43.4533632 24.5377085,50.9486937 33.9677419,50.9486937 C43.3977754,50.9486937 51.0131048,43.4533632 51.0131048,34.1875993 C51.0131048,24.9219703 43.3977002,17.4265049 33.9677419,17.4265049 Z"></path>
                    </g>
                    <g id="Shape" fill-rule="nonzero">
                        <use fill="" fill-rule="evenodd" xlink:href="#path-3"></use>
                        <path stroke="#8B3512" stroke-width="2" d="M33.9677419,22.7398967 C40.3663872,22.7398967 45.5826613,27.8739996 45.5826613,34.1875993 C45.5826613,40.501199 40.3663872,45.6353019 33.9677419,45.6353019 C27.5690967,45.6353019 22.3528226,40.501199 22.3528226,34.1875993 C22.3528226,27.8739996 27.5690967,22.7398967 33.9677419,22.7398967 Z M33.9677419,26.8294372 C29.814012,26.8294372 26.4758065,30.1150907 26.4758065,34.1875993 C26.4758065,38.2602407 29.8139348,41.5457614 33.9677419,41.5457614 C38.121549,41.5457614 41.4596774,38.2602407 41.4596774,34.1875993 C41.4596774,30.1150907 38.1214718,26.8294372 33.9677419,26.8294372 Z"></path>
                    </g>
                    <g id="Shape" fill-rule="nonzero">
                        <use fill="" fill-rule="evenodd" xlink:href="#path-4"></use>
                        <path stroke="#8B3512" stroke-width="2" d="M33.9677419,27.963748 C37.4351674,27.963748 40.2752016,30.7590355 40.2752016,34.1875993 C40.2752016,37.6161632 37.4351674,40.4114506 33.9677419,40.4114506 C30.5003164,40.4114506 27.6602823,37.6161632 27.6602823,34.1875993 C27.6602823,30.7590355 30.5003164,27.963748 33.9677419,27.963748 Z M33.9677419,32.0532885 C32.7452352,32.0532885 31.7832661,33.0001252 31.7832661,34.1875993 C31.7832661,35.3751995 32.7451516,36.3219101 33.9677419,36.3219101 C35.1903323,36.3219101 36.1522177,35.3751995 36.1522177,34.1875993 C36.1522177,33.0001252 35.1902486,32.0532885 33.9677419,32.0532885 Z"></path>
                    </g>
                    <g id="Shape">
                        <use fill="" fill-rule="evenodd" xlink:href="#path-5"></use>
                        <path stroke="#8B3512" stroke-width="2" d="M29.7832661,14.3817346 L33.90625,14.3817346 L33.90625,25.784667 L29.7832661,25.784667 L29.7832661,14.3817346 Z"></path>
                    </g>
                    <g id="Shape">
                        <use fill="" fill-rule="evenodd" xlink:href="#path-6"></use>
                        <path stroke="#8B3512" stroke-width="2" d="M34.0292339,14.3817346 L38.1522177,14.3817346 L38.1522177,25.784667 L34.0292339,25.784667 L34.0292339,14.3817346 Z"></path>
                    </g>
                    <g id="Shape">
                        <use fill="" fill-rule="evenodd" xlink:href="#path-7"></use>
                        <path stroke="#8B3512" stroke-width="2" d="M29.7832661,42.7211279 L33.90625,42.7211279 L33.90625,54.1240603 L29.7832661,54.1240603 L29.7832661,42.7211279 Z"></path>
                    </g>
                    <g id="Shape">
                        <use fill="" fill-rule="evenodd" xlink:href="#path-8"></use>
                        <path stroke="#8B3512" stroke-width="2" d="M34.0292339,42.7211279 L38.1522177,42.7211279 L38.1522177,54.1240603 L34.0292339,54.1240603 L34.0292339,42.7211279 Z"></path>
                    </g>
                    <g id="Shape">
                        <use fill="" fill-rule="evenodd" xlink:href="#path-9"></use>
                        <path stroke="#8B3512" stroke-width="2" d="M42.5875126,30.1186912 L54.14094,30.1186912 L54.14094,34.2082317 L42.5875126,34.2082317 L42.5875126,30.1186912 Z"></path>
                    </g>
                    <g id="Shape">
                        <use fill="" fill-rule="evenodd" xlink:href="#path-10"></use>
                        <path stroke="#8B3512" stroke-width="2" d="M42.5875126,34.2977722 L54.14094,34.2977722 L54.14094,38.3873127 L42.5875126,38.3873127 L42.5875126,34.2977722 Z"></path>
                    </g>
                    <g id="Shape">
                        <use fill="" fill-rule="evenodd" xlink:href="#path-11"></use>
                        <path stroke="#8B3512" stroke-width="2" d="M13.7945439,30.1186912 L25.3479713,30.1186912 L25.3479713,34.2082317 L13.7945439,34.2082317 L13.7945439,30.1186912 Z"></path>
                    </g>
                    <g id="Shape">
                        <use fill="" fill-rule="evenodd" xlink:href="#path-12"></use>
                        <path stroke="#8B3512" stroke-width="2" d="M13.7945439,34.2977722 L25.3479713,34.2977722 L25.3479713,38.3873127 L13.7945439,38.3873127 L13.7945439,34.2977722 Z"></path>
                    </g>
                    <g id="Shape">
                        <use fill="" fill-rule="evenodd" xlink:href="#path-13"></use>
                        <path stroke="#8B3512" stroke-width="2" d="M45.2753235,17.2928585 L48.2019532,20.1732587 L40.0172115,28.2240205 L37.0905819,25.3436203 L45.2753235,17.2928585 Z"></path>
                    </g>
                    <g id="Shape">
                        <use fill="" fill-rule="evenodd" xlink:href="#path-14"></use>
                        <path stroke="#8B3512" stroke-width="2" d="M48.2771771,20.2471978 L51.2037132,23.1279092 L43.0236059,31.1790516 L40.0969947,28.2986696 L48.2771771,20.2471978 Z"></path>
                    </g>
                    <g id="Shape">
                        <use fill="" fill-rule="evenodd" xlink:href="#path-15"></use>
                        <path stroke="#8B3512" stroke-width="2" d="M24.9118669,37.3309115 L27.8384892,40.2113044 L19.6583551,48.2627278 L16.7317322,45.382335 L24.9118669,37.3309115 Z"></path>
                    </g>
                    <g id="Shape">
                        <use fill="" fill-rule="evenodd" xlink:href="#path-16"></use>
                        <path stroke="#8B3512" stroke-width="2" d="M27.9182723,40.2859535 L30.844902,43.1663537 L22.6601604,51.2171154 L19.7335304,48.3367153 L27.9182723,40.2859535 Z"></path>
                    </g>
                    <g id="Shape">
                        <use fill="" fill-rule="evenodd" xlink:href="#path-17"></use>
                        <path stroke="#8B3512" stroke-width="2" d="M22.6601604,17.2928586 L30.844902,25.3436203 L27.9182723,28.2240205 L19.7335304,20.1732587 L22.6601604,17.2928586 Z"></path>
                    </g>
                    <g id="Shape">
                        <use fill="" fill-rule="evenodd" xlink:href="#path-18"></use>
                        <path stroke="#8B3512" stroke-width="2" d="M19.6583055,20.2471974 L27.8384892,28.2986696 L24.911878,31.1790516 L16.731772,23.1279095 L19.6583055,20.2471974 Z"></path>
                    </g>
                    <g id="Shape">
                        <use fill="" fill-rule="evenodd" xlink:href="#path-19"></use>
                        <path stroke="#8B3512" stroke-width="2" d="M43.0236169,37.3309116 L51.203753,45.3823354 L48.2771275,48.2627274 L40.0969947,40.2113044 L43.0236169,37.3309116 Z"></path>
                    </g>
                    <g id="Shape">
                        <use fill="" fill-rule="evenodd" xlink:href="#path-20"></use>
                        <path stroke="#8B3512" stroke-width="2" d="M40.0172115,40.2859535 L48.2019532,48.3367153 L45.2753235,51.2171155 L37.0905819,43.1663537 L40.0172115,40.2859535 Z"></path>
                    </g>
                    <g id="Shape">
                        <use fill="" fill-rule="evenodd" xlink:href="#path-21"></use>
                        <path stroke="#8B3512" stroke-width="2" d="M33.9960623,3.84008593 C33.9919004,3.84438671 33.9835262,3.8463721 33.9677419,3.8463721 C33.9519577,3.8463721 33.9435835,3.84438671 33.9394216,3.84008911 L33.9394216,11.7149548 L29.8164378,11.7149548 L29.8164378,10.7149548 L29.8164378,3.78507835 C29.816249,1.5549144 31.7047301,-0.243168423 33.9677419,-0.243168423 C36.2307538,-0.243168423 38.1192349,1.5549144 38.1190461,3.7849937 L38.1190461,11.7149548 L33.9960622,11.7149548 L33.9960622,10.7149548 L33.9960623,3.84008593 Z"></path>
                    </g>
                    <g id="Shape">
                        <use fill="" fill-rule="evenodd" xlink:href="#path-22"></use>
                        <path stroke="#8B3512" stroke-width="2" d="M33.9394216,64.5388739 C33.9435835,64.5345731 33.9519577,64.5325877 33.9677419,64.5325877 C33.9835262,64.5325877 33.9919004,64.5345731 33.9960622,64.5388707 L33.9960622,56.664005 L38.1190461,56.664005 L38.1190461,57.664005 L38.1190461,64.5938815 C38.1192349,66.8240454 36.2307538,68.6221282 33.9677419,68.6221282 C31.7047301,68.6221282 29.816249,66.8240454 29.8164378,64.5939661 L29.8164378,56.664005 L33.9394216,56.664005 L33.9394216,57.664005 L33.9394216,64.5388739 Z"></path>
                    </g>
                    <g id="Shape">
                        <use fill="" fill-rule="evenodd" xlink:href="#path-23"></use>
                        <path stroke="#8B3512" stroke-width="2" d="M64.814176,34.2016533 C64.8130748,34.1989042 64.8125,34.1949734 64.8125,34.1894799 C64.8125,34.1839864 64.8130748,34.1800556 64.814176,34.1773065 L56.8179796,34.1773065 L56.8179796,30.087766 L64.8588556,30.087766 C67.1083257,30.087766 68.9354839,31.946768 68.9354839,34.1894799 C68.9354839,36.4321918 67.1083257,38.2911939 64.8588556,38.2911939 L56.8179796,38.2911939 L56.8179796,34.2016533 L64.8141706,34.2016533 Z"></path>
                    </g>
                    <g id="Shape">
                        <use fill="" fill-rule="evenodd" xlink:href="#path-24"></use>
                        <path stroke="#8B3512" stroke-width="2" d="M3.12130791,34.1773065 C3.12240907,34.1800556 3.12298387,34.1839864 3.12298387,34.1894799 C3.12298387,34.1949734 3.12240907,34.1989042 3.12130791,34.2016533 L11.1175042,34.2016533 L11.1175042,38.2911939 L3.07662823,38.2911939 C0.827158146,38.2911939 -1,36.4321918 -1,34.1894799 C-1,31.946768 0.827158146,30.087766 3.07662823,30.087766 L11.1175042,30.087766 L11.1175042,34.1773065 L3.12131323,34.1773065 Z"></path>
                    </g>
                    <g id="Shape">
                        <use fill="" fill-rule="evenodd" xlink:href="#path-25"></use>
                        <path stroke="#8B3512" stroke-width="2" d="M55.7870396,12.7420612 C55.786002,12.7412197 55.7849132,12.7402389 55.7837669,12.7391107 C55.765475,12.7210994 55.7617099,12.7134446 55.7657635,12.7063436 L50.1052752,18.2776148 L47.1785155,15.3969888 L52.881284,9.78410381 C54.4729901,8.21749396 57.0867532,8.26029079 58.6880346,9.83634726 C60.2979763,11.4209352 60.3417817,14.0206318 58.7408434,15.5960652 L53.0607259,21.1868969 L50.1339665,18.3062712 L50.8580505,17.5935694 L55.7870393,12.7420615 Z"></path>
                    </g>
                    <g id="Shape">
                        <use fill="" fill-rule="evenodd" xlink:href="#path-26"></use>
                        <path stroke="#8B3512" stroke-width="2" d="M12.1484575,55.6368824 C12.1494373,55.6376857 12.1504629,55.6386138 12.1515397,55.6396735 C12.1700767,55.657917 12.1738182,55.6655466 12.169583,55.6727528 L17.8302095,50.1013449 L20.7569686,52.9819711 L20.0328542,53.6946725 L15.0542636,58.5947943 C13.4625411,60.1616962 10.8486824,60.1188978 9.24738797,58.5425508 L9.24745078,58.5426124 C7.63750398,56.9580262 7.59369645,54.3583288 9.1946359,52.7828946 L14.8747547,47.1920629 L17.8015134,50.0726886 L17.0774296,50.7853903 L12.1484558,55.6368841 Z"></path>
                    </g>
                    <g id="Shape">
                        <use fill="" fill-rule="evenodd" xlink:href="#path-27"></use>
                        <path stroke="#8B3512" stroke-width="2" d="M12.1696812,12.7063047 C12.1737638,12.7134311 12.1699872,12.7211208 12.1515386,12.7392863 C12.1504614,12.7403464 12.1494355,12.7412748 12.1484554,12.7420784 L17.8015099,18.3062711 L14.8747516,21.1868969 L14.1732838,20.4964557 L9.19470901,15.5961406 C7.59369368,14.0206303 7.63750208,11.4209328 9.24744982,9.83634713 C10.8487303,8.26029076 13.4624941,8.21749391 15.0542019,9.78410581 L20.7569673,15.3969887 L17.8302082,18.2776149 L17.1287407,17.5872034 L12.1696812,12.7063047 Z"></path>
                    </g>
                    <g id="Shape">
                        <use fill="" fill-rule="evenodd" xlink:href="#path-28"></use>
                        <path stroke="#8B3512" stroke-width="2" d="M58.6880638,58.5425817 C57.0867662,60.1188983 54.4729316,60.1616859 52.8812798,58.5948539 L47.1785157,52.9819709 L50.1052754,50.1013449 L50.8067428,50.7917565 L55.7658475,55.672701 C55.7616646,55.6655462 55.7654057,55.6579175 55.7839387,55.6396779 C55.7850164,55.6386172 55.7860428,55.6376885 55.7870233,55.6368847 L50.1339644,50.0726886 L53.0607237,47.1920631 L53.7621913,47.8825041 L58.7407653,52.7828178 C60.341776,54.3583169 60.2979815,56.9579919 58.6880638,58.5425817 Z"></path>
                    </g>
                </g>
            </g>
        </g>
    </g>
</svg>