<?xml version="1.0" encoding="UTF-8"?>
<svg width="12px" height="9px" viewBox="0 0 12 9" version="1.1" xmlns="http://www.w3.org/2000/svg" xmlns:xlink="http://www.w3.org/1999/xlink">
    <!-- Generator: Sketch 48.1 (47250) - http://www.bohemiancoding.com/sketch -->
    <title>CN@2x</title>
    <desc>Created with Sketch.</desc>
    <defs>
        <rect id="path-1" x="0" y="0" width="12" height="8.57142857" rx="2"></rect>
    </defs>
    <g id="Desktop_MAC" stroke="none" stroke-width="1" fill="none" fill-rule="evenodd" transform="translate(-1287.000000, -168.000000)">
        <g id="Group-3" transform="translate(1272.000000, 36.000000)">
            <g id="CN" transform="translate(15.000000, 132.000000)">
                <mask id="mask-2" fill="white">
                    <use xlink:href="#path-1"></use>
                </mask>
                <use id="Mask" fill="#FFFFFF" xlink:href="#path-1"></use>
                <rect id="Mask" fill="#F1361D" mask="url(#mask-2)" x="0" y="0" width="12" height="8.57142857"></rect>
                <path d="M5.78823401,2.56169309 L5.42857143,2.78058595 L5.43830691,2.35966258 L5.21941405,2 L5.64033742,2.00973548 L6,1.79084263 L5.99026452,2.21176599 L6.20915737,2.57142857 L5.78823401,2.56169309 Z M4.73189396,1.39965544 L4.31684653,1.32889609 L4.60034456,1.01760824 L4.67110391,0.602560814 L4.98239176,0.886058844 L5.39743919,0.956818197 L5.11394116,1.26810604 L5.0431818,1.68315347 L4.73189396,1.39965544 Z M4.94067763,5.13037279 L4.58887339,5.36168434 L4.58391293,4.94067763 L4.35260138,4.58887339 L4.77360808,4.58391293 L5.12541232,4.35260138 L5.13037279,4.77360808 L5.36168434,5.12541232 L4.94067763,5.13037279 Z M5.66467195,3.99565936 L5.24619883,4.04204368 L5.43291207,3.66467195 L5.38652775,3.24619883 L5.76389948,3.43291207 L6.1823726,3.38652775 L5.99565936,3.76389948 L6.04204368,4.1823726 L5.66467195,3.99565936 Z" id="Star-2" fill="#FFDC42" mask="url(#mask-2)"></path>
                <polygon id="Star-8" fill="#FFDC42" mask="url(#mask-2)" points="2.85714286 3.52571431 1.849511 4.24402913 2.22129362 3.0637428 1.22676026 2.32739944 2.46416642 2.31625719 2.85714286 1.14285714 3.2501193 2.31625719 4.48752546 2.32739944 3.4929921 3.0637428 3.86477472 4.24402913"></polygon>
            </g>
        </g>
    </g>
</svg>