<?xml version="1.0" encoding="UTF-8"?>
<svg width="22px" height="18px" viewBox="0 0 22 18" version="1.1" xmlns="http://www.w3.org/2000/svg" xmlns:xlink="http://www.w3.org/1999/xlink">
    <!-- Generator: Sketch 48.1 (47250) - http://www.bohemiancoding.com/sketch -->
    <title>Full@2x</title>
    <desc>Created with Sketch.</desc>
    <defs></defs>
    <g id="Gallery" stroke="none" stroke-width="1" fill="none" fill-rule="evenodd" transform="translate(-1109.000000, -1452.000000)">
        <g id="Video_Player" transform="translate(251.000000, 928.000000)" fill="#FFFFFF">
            <g id="Timeline" transform="translate(38.000000, 502.000000)">
                <path d="M841,32.286 C840.447,32.286 840,32.733 840,33.285 L840,38 L835.444,38 C834.893,38 834.444,38.447 834.444,39 C834.444,39.553 834.893,40 835.444,40 L841,40 C841.552,40 842,39.553 842,39 L842,33.285 C842,32.733 841.552,32.286 841,32.286 M826.556,38 L822,38 L822,33.285 C822,32.733 821.552,32.286 821,32.286 C820.447,32.286 820,32.733 820,33.285 L820,39 C820,39.553 820.447,40 821,40 L826.556,40 C827.107,40 827.556,39.553 827.556,39 C827.556,38.447 827.107,38 826.556,38 M841,22 L835.444,22 C834.893,22 834.444,22.448 834.444,23 C834.444,23.553 834.893,24 835.444,24 L840,24 L840,28.714 C840,29.266 840.447,29.714 841,29.714 C841.552,29.714 842,29.266 842,28.714 L842,23 C842,22.448 841.552,22 841,22 M826.556,22 L821,22 C820.447,22 820,22.448 820,23 L820,28.714 C820,29.266 820.447,29.714 821,29.714 C821.552,29.714 822,29.266 822,28.714 L822,24 L826.556,24 C827.107,24 827.556,23.553 827.556,23 C827.556,22.448 827.107,22 826.556,22" id="Full"></path>
            </g>
        </g>
    </g>
</svg>