<?xml version="1.0" encoding="UTF-8"?>
<svg width="24px" height="24px" viewBox="0 0 24 24" version="1.1" xmlns="http://www.w3.org/2000/svg" xmlns:xlink="http://www.w3.org/1999/xlink">
    <!-- Generator: Sketch 48.1 (47250) - http://www.bohemiancoding.com/sketch -->
    <title>instagram</title>
    <desc>Created with Sketch.</desc>
    <defs></defs>
    <g id="Cards" stroke="none" stroke-width="1" fill="none" fill-rule="evenodd" transform="translate(-73.000000, -445.000000)">
        <g id="Group-3" transform="translate(73.000000, 328.000000)">
            <g id="instagram" transform="translate(0.000000, 117.000000)">
                <rect id="Rectangle" x="0" y="0" width="24" height="24"></rect>
                <circle id="Oval" stroke="#00365F" cx="12" cy="12" r="11.5"></circle>
                <path d="M11.9999881,7.08110297 C13.6020649,7.08110297 13.7918153,7.08720013 14.4244911,7.11606638 C15.0094851,7.14276528 15.3271806,7.2405104 15.5386283,7.32265536 C15.818669,7.43149922 16.0185654,7.56154025 16.2285126,7.77148743 C16.4384598,7.98143462 16.5685008,8.18133102 16.6773208,8.46137174 C16.7594896,8.6728194 16.8572347,8.99051486 16.8839336,9.57548512 C16.9127999,10.2081847 16.918897,10.3979351 16.918897,12.0000119 C16.918897,13.6020888 16.9127999,13.7918391 16.8839336,14.4245149 C16.8572347,15.009509 16.7594896,15.3272044 16.6773208,15.5386521 C16.5685008,15.8186928 16.4384598,16.0185892 16.2285126,16.2285364 C16.0185654,16.4384836 15.818669,16.5685246 15.5386283,16.6773446 C15.3271806,16.7595134 15.0094851,16.8572585 14.4244911,16.8839574 C13.7919105,16.9128237 13.6021602,16.9189209 11.9999881,16.9189209 C10.397816,16.9189209 10.2080656,16.9128237 9.57548512,16.8839574 C8.99049105,16.8572585 8.67279558,16.7595134 8.46137174,16.6773446 C8.1813072,16.5685246 7.9814108,16.4384836 7.77146362,16.2285364 C7.56151643,16.0185892 7.43147541,15.8186928 7.32265536,15.5386521 C7.24048658,15.3272044 7.14274146,15.009509 7.11604256,14.4245387 C7.08717631,13.7918391 7.08107915,13.6020888 7.08107915,12.0000119 C7.08107915,10.3979351 7.08717631,10.2081847 7.11604256,9.57550894 C7.14274146,8.99051486 7.24048658,8.6728194 7.32265536,8.46137174 C7.43147541,8.18133102 7.56151643,7.98143462 7.77146362,7.77148743 C7.9814108,7.56154025 8.1813072,7.43149922 8.46137174,7.32265536 C8.67279558,7.2405104 8.99049105,7.14276528 9.57546131,7.11606638 C10.2081609,7.08720013 10.3979112,7.08110297 11.9999881,7.08110297 M11.9999881,6 C13.6295022,6 13.8338285,6.00690694 14.4737685,6.03610663 C15.1124224,6.06525868 15.54856,6.16667163 15.930228,6.31500414 C16.324781,6.46833823 16.6593866,6.67349819 16.9929442,7.0070558 C17.3265018,7.34061341 17.5316618,7.67521897 17.6849959,8.06977201 C17.8333284,8.45144004 17.9347413,8.88757763 17.9638934,9.52623149 C17.9930931,10.1661715 18,10.3704978 18,12.0000119 C18,13.629526 17.9930931,13.8338523 17.9638934,14.4737923 C17.9347413,15.1124462 17.8333284,15.5485838 17.6849959,15.9302518 C17.5316618,16.3248048 17.3265018,16.6594104 16.9929442,16.992968 C16.6593866,17.3265256 16.324781,17.5316856 15.930228,17.6850197 C15.54856,17.8333522 15.1124224,17.9347651 14.4737685,17.9639172 C13.8338285,17.9931169 13.6295022,18 11.9999881,18 C10.370474,18 10.1661715,17.9931169 9.52620767,17.9639172 C8.88755381,17.9347651 8.45141622,17.8333522 8.06974819,17.6850197 C7.67519515,17.5316856 7.34058959,17.3265256 7.00703198,16.992968 C6.67347437,16.6594104 6.46831441,16.324781 6.31498032,15.9302518 C6.16664781,15.5485838 6.06523487,15.1124462 6.03608281,14.4737923 C6.00688312,13.8338523 6,13.629526 6,12.0000119 C6,10.3704978 6.00688312,10.1661715 6.03608281,9.52623149 C6.06523487,8.88757763 6.16664781,8.45144004 6.31498032,8.06977201 C6.46831441,7.67521897 6.67347437,7.34061341 7.00703198,7.0070558 C7.34058959,6.67349819 7.67519515,6.46833823 8.06974819,6.31500414 C8.45141622,6.16667163 8.88755381,6.06525868 9.52620767,6.03610663 C10.1661715,6.00690694 10.370474,6 11.9999881,6 Z M12.0119048,8.92857143 C10.3090343,8.92857143 8.92857143,10.3090343 8.92857143,12.0119048 C8.92857143,13.7147752 10.3090343,15.0952381 12.0119048,15.0952381 C13.7147752,15.0952381 15.0952381,13.7147752 15.0952381,12.0119048 C15.0952381,10.3090343 13.7147752,8.92857143 12.0119048,8.92857143 Z M12.0119048,14.0133722 C10.9065382,14.0133722 10.0104373,13.1172714 10.0104373,12.0119048 C10.0104373,10.9065382 10.9065382,10.0104373 12.0119048,10.0104373 C13.1172714,10.0104373 14.0133722,10.9065382 14.0133722,12.0119048 C14.0133722,13.1172714 13.1172714,14.0133722 12.0119048,14.0133722 Z M15.9047619,8.78570247 C15.9047619,8.39120968 15.5849808,8.07142857 15.190488,8.07142857 C14.7959952,8.07142857 14.4761905,8.39120968 14.4761905,8.78570247 C14.4761905,9.18019526 14.7959952,9.5 15.190488,9.5 C15.5849808,9.5 15.9047619,9.18019526 15.9047619,8.78570247 Z" id="Shape" fill="#00365F"></path>
            </g>
        </g>
    </g>
</svg>