<?xml version="1.0" encoding="UTF-8"?>
<svg width="52px" height="45px" viewBox="0 0 52 45" version="1.1" xmlns="http://www.w3.org/2000/svg" xmlns:xlink="http://www.w3.org/1999/xlink">
    <!-- Generator: Sketch 48.1 (47250) - http://www.bohemiancoding.com/sketch -->
    <title>manc_logo_blue copy@2x</title>
    <desc>Created with Sketch.</desc>
    <defs></defs>
    <g id="Documents" stroke="none" stroke-width="1" fill="none" fill-rule="evenodd" transform="translate(-249.000000, -1740.000000)">
        <g id="manc_logo_white-copy" transform="translate(249.000000, 1740.000000)">
            <g id="manc_logo">
                <path d="M44.7571429,22.8242857 C43.5128571,22.6757143 41.2285714,23.2885714 41.0057143,23.6414286 C39.3528571,23.5485714 38.7585714,23.1028571 38.4428571,22.5642857 C38.1457143,20.4842857 37.31,18.5528571 36.1214286,16.9371429 C35.9542857,16.2871429 36.1028571,15.6 37.18,14.3557143 C37.5142857,14.43 38.9814286,13.91 40.3,12.4057143 C40.8385714,11.7928571 41.0242857,10.7342857 40.3742857,10.1028571 C39.78,9.52714286 38.8142857,9.58285714 38.2014286,10.0657143 C37.2171429,10.8457143 36.0285714,12.8885714 36.1214286,13.2971429 C34.8957143,14.3928571 34.1528571,14.5042857 33.54,14.3371429 C31.9242857,13.13 30.0114286,12.3128571 27.9128571,12.0157143 C27.3371429,11.6814286 26.9471429,11.0871429 26.8357143,9.45285714 C27.1142857,9.26714286 27.8014286,7.85571429 27.6714286,5.86857143 C27.6157143,5.05142857 27.0028571,4.17857143 26.0928571,4.17857143 C25.2571429,4.17857143 24.6257143,4.92142857 24.5328571,5.68285714 C24.3842857,6.92714286 24.9971429,9.21142857 25.35,9.43428571 C25.2571429,11.0871429 24.8114286,11.6814286 24.2728571,11.9971429 C22.1928571,12.2942857 20.2614286,13.13 18.6457143,14.3185714 C17.9957143,14.4857143 17.3085714,14.3371429 16.0642857,13.26 C16.1385714,12.9257143 15.6185714,11.4585714 14.1142857,10.14 C13.5014286,9.60142857 12.4428571,9.41571429 11.8114286,10.0657143 C11.2357143,10.66 11.2914286,11.6257143 11.7742857,12.2385714 C12.5542857,13.2228571 14.5971429,14.4114286 15.0057143,14.3185714 C16.1014286,15.5442857 16.2128571,16.2871429 16.0457143,16.9 C14.8385714,18.5157143 14.0214286,20.4285714 13.7242857,22.5271429 C13.39,23.1028571 12.7957143,23.4928571 11.1614286,23.6042857 C10.9757143,23.3257143 9.56428571,22.6385714 7.57714286,22.7685714 C6.76,22.8242857 5.88714286,23.4371429 5.88714286,24.3471429 C5.88714286,25.1828571 6.63,25.8142857 7.39142857,25.9071429 C8.63571429,26.0557143 10.92,25.4428571 11.1428571,25.09 C12.7957143,25.1828571 13.39,25.6285714 13.7057143,26.1671429 C14.0028571,28.2471429 14.8385714,30.1785714 16.0271429,31.7942857 C16.1942857,32.4442857 16.0457143,33.1314286 14.9685714,34.3757143 C14.6342857,34.3014286 13.1671429,34.8214286 11.8485714,36.3257143 C11.31,36.9385714 11.1242857,37.9971429 11.7742857,38.6285714 C12.3685714,39.2042857 13.3342857,39.1485714 13.9471429,38.6657143 C14.9314286,37.8857143 16.12,35.8428571 16.0271429,35.4342857 C17.2528571,34.3385714 17.9957143,34.2271429 18.6085714,34.3942857 C20.2242857,35.6014286 22.1371429,36.4185714 24.2357143,36.7157143 C24.8114286,37.05 25.2014286,37.6442857 25.3128571,39.2785714 C25.0342857,39.4642857 24.3471429,40.8757143 24.4771429,42.8628571 C24.5328571,43.68 25.1457143,44.5528571 26.0557143,44.5528571 C26.8914286,44.5528571 27.5228571,43.81 27.6157143,43.0485714 C27.7642857,41.8042857 27.1514286,39.52 26.7985714,39.2971429 C26.8914286,37.6442857 27.3371429,37.05 27.8757143,36.7342857 C29.9557143,36.4371429 31.8871429,35.6014286 33.5028571,34.4128571 C34.1528571,34.2457143 34.84,34.3942857 36.0842857,35.4714286 C36.01,35.8057143 36.53,37.2728571 38.0342857,38.5914286 C38.6471429,39.13 39.7057143,39.3157143 40.3371429,38.6657143 C40.9128571,38.0714286 40.8571429,37.1057143 40.3742857,36.4928571 C39.5942857,35.5085714 37.5514286,34.32 37.1428571,34.4128571 C36.0471429,33.1871429 35.9357143,32.4442857 36.1028571,31.8314286 C37.31,30.2157143 38.1271429,28.3028571 38.4242857,26.2042857 C38.7585714,25.6285714 39.3528571,25.2385714 40.9871429,25.1271429 C41.1728571,25.4057143 42.5842857,26.0928571 44.5714286,25.9628571 C45.3885714,25.9071429 46.2614286,25.2942857 46.2614286,24.3842857 C46.2428571,23.5485714 45.5185714,22.8985714 44.7571429,22.8242857 M37.4585714,13.91 C37.9042857,13.7985714 38.7585714,13.3714286 39.7985714,12.2942857 C39.8171429,12.2757143 39.8171429,12.2942857 39.8171429,12.3128571 C39.5757143,13.0742857 37.9971429,14.04 37.4585714,13.91 M36.3628571,13.4271429 C36.6042857,12.4428571 37.4585714,10.9385714 38.3314286,10.3442857 C39.5385714,9.52714286 40.1142857,10.3442857 39.91,10.2514286 C37.7742857,9.32285714 36.7157143,13.8171429 36.5485714,13.91 C35.6385714,14.4114286 34.32,15.3028571 33.28,14.6157143 C34.7842857,15.0428571 35.9914286,13.7985714 36.3628571,13.4271429 M27.2257143,6.14714286 C27.2257143,6.12857143 27.2442857,6.12857143 27.2442857,6.14714286 C27.6157143,6.85285714 27.1885714,8.65428571 26.7057143,8.95142857 C26.9471429,8.54285714 27.2628571,7.63285714 27.2257143,6.14714286 M25.5914286,9.36 C25.0714286,8.48714286 24.6071429,6.81571429 24.8114286,5.79428571 C25.09,4.36428571 26.0742857,4.53142857 25.87,4.60571429 C23.6971429,5.46 26.1485714,9.37857143 26.0742857,9.58285714 C25.7771429,10.5671429 25.48,12.1457143 24.2728571,12.3871429 C25.6285714,11.6071429 25.5914286,9.88 25.5914286,9.36 M14.0028571,10.6414286 C14.7642857,10.8828571 15.73,12.4614286 15.6,13 C15.4885714,12.5542857 15.0614286,11.7 13.9842857,10.66 C13.9842857,10.66 13.9842857,10.6414286 14.0028571,10.6414286 M15.1171429,14.0957143 C14.1328571,13.8542857 12.6285714,13 12.0342857,12.1271429 C11.2171429,10.92 12.0342857,10.3442857 11.9414286,10.5485714 C11.0128571,12.6842857 15.5071429,13.7428571 15.6,13.91 C16.1014286,14.82 16.9928571,16.1385714 16.3057143,17.1785714 C16.7328571,15.6742857 15.4885714,14.4671429 15.1171429,14.0957143 M7.81857143,23.1957143 C8.52428571,22.8242857 10.3257143,23.2514286 10.6228571,23.7342857 C10.2328571,23.4928571 9.34142857,23.1957143 7.83714286,23.2142857 C7.81857143,23.2328571 7.81857143,23.2142857 7.81857143,23.1957143 M11.05,24.8485714 C10.1771429,25.3685714 8.50571429,25.8328571 7.48428571,25.6285714 C6.05428571,25.35 6.22142857,24.3657143 6.29571429,24.57 C7.16857143,26.7428571 11.0685714,24.2914286 11.2728571,24.3657143 C12.2571429,24.6628571 13.8357143,24.96 14.0771429,26.1671429 C13.3157143,24.83 11.5885714,24.8485714 11.05,24.8485714 M14.69,34.8585714 C14.2442857,34.97 13.39,35.3971429 12.35,36.4742857 C12.3314286,36.4928571 12.3314286,36.4742857 12.3314286,36.4557143 C12.5728571,35.6942857 14.17,34.71 14.69,34.8585714 M15.7857143,35.3414286 C15.5442857,36.3257143 14.69,37.83 13.8171429,38.4242857 C12.61,39.2414286 12.0342857,38.4242857 12.2385714,38.5171429 C14.3742857,39.4457143 15.4328571,34.9514286 15.6,34.8585714 C16.51,34.3571429 17.8285714,33.4657143 18.8685714,34.1528571 C17.3642857,33.7257143 16.1571429,34.97 15.7857143,35.3414286 M24.9228571,42.6214286 C24.9228571,42.64 24.9042857,42.64 24.9042857,42.6214286 C24.5328571,41.9157143 24.96,40.1142857 25.4428571,39.8171429 C25.2014286,40.2257143 24.9042857,41.1171429 24.9228571,42.6214286 M26.5571429,39.39 C27.0771429,40.2628571 27.5414286,41.9342857 27.3371429,42.9557143 C27.0585714,44.3857143 26.0742857,44.2185714 26.2785714,44.1442857 C28.4514286,43.29 26,39.3714286 26.0742857,39.1671429 C26.3714286,38.1828571 26.6685714,36.6042857 27.8757143,36.3628571 C26.52,37.1428571 26.5571429,38.87 26.5571429,39.39 M38.1457143,38.1085714 C37.3842857,37.8671429 36.4185714,36.2885714 36.5485714,35.75 C36.66,36.1957143 37.0871429,37.05 38.1642857,38.09 C38.1642857,38.1085714 38.1642857,38.1271429 38.1457143,38.1085714 M37.0314286,34.6542857 C38.0157143,34.8957143 39.52,35.75 40.1142857,36.6228571 C40.9314286,37.83 40.1142857,38.4057143 40.2071429,38.2014286 C41.1357143,36.0657143 36.6414286,35.0071429 36.5485714,34.84 C36.0471429,33.93 35.1557143,32.6114286 35.8428571,31.5714286 C35.4157143,33.0942857 36.66,34.2828571 37.0314286,34.6542857 M26.0742857,36.1214286 C20.8371429,36.1214286 16.4357143,32.5371429 15.21,27.69 C16.77,32.2028571 21.0414286,35.6385714 26.0742857,35.6385714 C31.1071429,35.6385714 35.3971429,32.2028571 36.9385714,27.69 C35.7128571,32.5185714 31.3114286,36.1214286 26.0742857,36.1214286 M22.7685714,27.4485714 C22.8057143,27.43 22.8428571,27.4671429 22.8242857,27.5042857 C22.6571429,27.8014286 22.36,28.0057143 22.1,28.1914286 C21.7471429,28.4514286 21.4128571,28.6928571 21.0414286,28.9157143 C21.0414286,28.9157143 21.0228571,28.9157143 21.0414286,28.8971429 C21.3014286,28.6 21.58,28.3771429 21.8957143,28.1357143 C22.1742857,27.9128571 22.4342857,27.6157143 22.7685714,27.4485714 M22.2485714,20.3914286 C21.9885714,20.0385714 21.7471429,19.7042857 21.5242857,19.3328571 C21.5242857,19.3328571 21.5242857,19.3142857 21.5428571,19.3328571 C21.84,19.5928571 22.0628571,19.8714286 22.3042857,20.1871429 C22.5271429,20.4842857 22.8242857,20.7442857 23.01,21.0785714 C23.0285714,21.1157143 22.9914286,21.1528571 22.9542857,21.1342857 C22.6571429,20.9671429 22.4528571,20.67 22.2485714,20.3914286 M22.4528571,27.5042857 C21.5428571,28.4328571 20.3171429,29.25 19.0728571,29.64 C19.0728571,29.64 19.0728571,29.64 19.0728571,29.64 C20.2614286,29.0457143 21.2085714,27.9871429 22.4157143,27.4485714 C22.4528571,27.4485714 22.49,27.4857143 22.4528571,27.5042857 M22.0257143,29.0642857 C22.3042857,28.6371429 22.5642857,28.1357143 23.0471429,27.95 C23.0657143,27.9314286 23.0842857,27.9685714 23.0657143,27.9871429 C22.2114286,29.0642857 21.45,30.1785714 20.67,31.3114286 C20.67,31.3114286 20.6514286,31.3114286 20.6514286,31.3114286 C21.0785714,30.4942857 21.5428571,29.8071429 22.0257143,29.0642857 M23.3257143,28.1728571 C23.8271429,28.2657143 24.2357143,28.21 24.5514286,28.0614286 C24.6628571,28.3957143 24.9042857,28.73 25.3314286,28.99 C25.2571429,30.42 24.9042857,32.24 24.4585714,33.3542857 C23.1214286,33.1128571 21.8957143,32.5928571 20.8371429,31.85 C21.32,30.7542857 22.4157143,29.2314286 23.3257143,28.1728571 M25.6657143,29.1385714 C25.6842857,29.1014286 25.74,29.1014286 25.74,29.1385714 C25.7585714,30.4385714 25.4614286,31.8871429 24.8671429,33.0385714 C24.8671429,33.0385714 24.8485714,33.0385714 24.8671429,33.0385714 C25.2757143,31.7942857 25.2014286,30.3642857 25.6657143,29.1385714 M25.7585714,30.0114286 C25.8142857,29.64 25.7957143,29.25 25.8885714,28.8971429 C25.9071429,28.86 25.9628571,28.86 25.9814286,28.8971429 C26.0742857,29.2128571 26,29.5842857 25.9628571,29.9 C25.9071429,30.3271429 25.8142857,30.7357143 25.7214286,31.1628571 C25.7214286,31.1628571 25.7028571,31.1628571 25.7028571,31.1628571 C25.6842857,30.7728571 25.7214286,30.4014286 25.7585714,30.0114286 M22.9357143,25.2757143 C23.3814286,26.5757143 24.6257143,27.5785714 26.0742857,27.5785714 C27.5228571,27.5785714 28.7671429,26.5942857 29.2128571,25.2757143 C28.86,26.6685714 27.5785714,27.7085714 26.0742857,27.7085714 C24.57,27.7085714 23.2885714,26.6871429 22.9357143,25.2757143 M24.4028571,24.3842857 C24.4028571,23.4557143 25.1457143,22.7128571 26.0742857,22.7128571 C27.0028571,22.7128571 27.7457143,23.4557143 27.7457143,24.3842857 C27.7457143,25.3128571 27.0028571,26.0557143 26.0742857,26.0557143 C25.1457143,26.0557143 24.4028571,25.3128571 24.4028571,24.3842857 M29.9,28.3585714 C30.16,28.7114286 30.4014286,29.0457143 30.6242857,29.4171429 C30.6242857,29.4171429 30.6242857,29.4357143 30.6057143,29.4171429 C30.3085714,29.1571429 30.0857143,28.8785714 29.8442857,28.5628571 C29.6214286,28.2657143 29.3242857,28.0057143 29.1385714,27.6714286 C29.12,27.6342857 29.1571429,27.5971429 29.1942857,27.6157143 C29.4914286,27.8014286 29.6957143,28.0985714 29.9,28.3585714 M29.3242857,21.2457143 C29.4914286,20.9485714 29.7885714,20.7442857 30.0485714,20.5585714 C30.4014286,20.2985714 30.7357143,20.0571429 31.1071429,19.8342857 C31.1071429,19.8342857 31.1257143,19.8342857 31.1071429,19.8528571 C30.8471429,20.15 30.5685714,20.3728571 30.2528571,20.6142857 C29.9557143,20.8371429 29.6957143,21.1342857 29.3614286,21.32 C29.3428571,21.3385714 29.3057143,21.2828571 29.3242857,21.2457143 M26.4642857,29.0457143 C26.4828571,29.0271429 26.5014286,29.0271429 26.52,29.0642857 C26.6871429,30.42 26.9285714,31.7571429 27.17,33.1128571 C27.17,33.1128571 27.1514286,33.1314286 27.1514286,33.1128571 C26.8728571,32.2585714 26.7057143,31.4414286 26.52,30.5685714 C26.4085714,30.0485714 26.2414286,29.5285714 26.4642857,29.0457143 M26.8171429,29.0085714 C27.2442857,28.73 27.5042857,28.3957143 27.6157143,28.0614286 C27.9314286,28.21 28.34,28.2657143 28.8228571,28.1728571 C29.77,29.2314286 30.81,30.7728571 31.2928571,31.8685714 C30.2342857,32.6114286 28.99,33.1314286 27.6714286,33.3728571 C27.2257143,32.24 26.91,30.4014286 26.8171429,29.0085714 M29.1571429,28.0428571 C29.1385714,28.0057143 29.1757143,27.9685714 29.2128571,28.0057143 C30.1414286,28.9157143 30.9585714,30.1414286 31.3485714,31.3857143 C31.3485714,31.3857143 31.3485714,31.3857143 31.3485714,31.3857143 C30.7542857,30.1785714 29.6957143,29.2314286 29.1571429,28.0428571 M30.7542857,28.4328571 C30.3271429,28.1542857 29.8257143,27.8942857 29.64,27.4114286 C29.6214286,27.3928571 29.6585714,27.3742857 29.6771429,27.3928571 C30.7542857,28.2471429 31.8685714,29.0085714 33.0014286,29.7885714 C33.0014286,29.7885714 33.0014286,29.8071429 33.0014286,29.8071429 C32.2028571,29.38 31.4971429,28.9157143 30.7542857,28.4328571 M29.8628571,27.1328571 C29.9557143,26.6314286 29.9,26.2228571 29.7514286,25.9071429 C30.0857143,25.7957143 30.42,25.5542857 30.68,25.1271429 C32.11,25.2014286 33.93,25.5542857 35.0442857,26 C34.8028571,27.3371429 34.2828571,28.5628571 33.54,29.6214286 C32.4442857,29.1385714 30.94,28.0428571 29.8628571,27.1328571 M32.24,23.9385714 C31.7385714,24.05 31.2185714,24.2171429 30.7357143,23.9942857 C30.7171429,23.9757143 30.7171429,23.9571429 30.7542857,23.9385714 C32.11,23.7714286 33.4471429,23.53 34.8028571,23.2885714 C34.8028571,23.2885714 34.8214286,23.3071429 34.8028571,23.3071429 C33.9485714,23.5857143 33.1128571,23.7528571 32.24,23.9385714 M34.7471429,25.61 C33.4842857,25.1828571 32.0728571,25.2571429 30.8471429,24.7928571 C30.81,24.7742857 30.81,24.7185714 30.8471429,24.7185714 C32.1471429,24.7185714 33.5957143,24.9971429 34.7471429,25.61 C34.7471429,25.5914286 34.7471429,25.61 34.7471429,25.61 M31.59,24.4957143 C32.0171429,24.5514286 32.4257143,24.6442857 32.8528571,24.7371429 C32.8528571,24.7371429 32.8528571,24.7557143 32.8528571,24.7557143 C32.4628571,24.7928571 32.0914286,24.7557143 31.7014286,24.7 C31.33,24.6442857 30.94,24.6628571 30.5871429,24.57 C30.55,24.5514286 30.55,24.4957143 30.5871429,24.4771429 C30.9028571,24.3657143 31.2742857,24.44 31.59,24.4957143 M30.6985714,23.6414286 C30.42,23.2142857 30.0857143,22.9542857 29.7514286,22.8428571 C29.9,22.5271429 29.9557143,22.1185714 29.8628571,21.6357143 C30.9214286,20.6885714 32.4628571,19.6485714 33.5585714,19.1657143 C34.3014286,20.2242857 34.8214286,21.4685714 35.0628571,22.7871429 C33.9485714,23.2328571 32.0914286,23.53 30.6985714,23.6414286 M33.0757143,19.11 C31.8871429,19.7042857 30.94,20.7628571 29.7328571,21.3014286 C29.6957143,21.32 29.6585714,21.2828571 29.6957143,21.2457143 C30.6057143,20.3171429 31.8314286,19.5 33.0757143,19.11 C33.0757143,19.11 33.0757143,19.11 33.0757143,19.11 M30.1228571,19.7042857 C29.8442857,20.1314286 29.5842857,20.6328571 29.1014286,20.8185714 C29.0828571,20.8371429 29.0642857,20.8 29.0828571,20.7814286 C29.9371429,19.7042857 30.6985714,18.59 31.4785714,17.4571429 C31.4785714,17.4571429 31.4971429,17.4571429 31.4971429,17.4571429 C31.07,18.2557143 30.6057143,18.9428571 30.1228571,19.7042857 M28.8228571,20.5771429 C28.3214286,20.4842857 27.9128571,20.54 27.5971429,20.6885714 C27.4857143,20.3542857 27.2442857,20.02 26.8171429,19.76 C26.8914286,18.33 27.2442857,16.51 27.69,15.3957143 C29.0271429,15.6371429 30.2528571,16.1571429 31.3114286,16.9 C30.8285714,18.0142857 29.7328571,19.5185714 28.8228571,20.5771429 M26.4828571,19.6114286 C26.4642857,19.6485714 26.4085714,19.6485714 26.4085714,19.5928571 C26.39,18.2928571 26.6871429,16.8442857 27.2814286,15.6928571 C27.2814286,15.6928571 27.3,15.6928571 27.2814286,15.6928571 C26.8728571,16.9742857 26.9471429,18.3857143 26.4828571,19.6114286 M26.39,18.7385714 C26.3342857,19.11 26.3528571,19.5 26.26,19.8528571 C26.2414286,19.89 26.1857143,19.89 26.1671429,19.8528571 C26.0742857,19.5371429 26.1485714,19.1657143 26.1857143,18.85 C26.2414286,18.4228571 26.3342857,18.0142857 26.4271429,17.5871429 C26.4271429,17.5871429 26.4457143,17.5871429 26.4457143,17.5871429 C26.4642857,17.9957143 26.4271429,18.3671429 26.39,18.7385714 M29.2128571,23.4742857 C28.7671429,22.1742857 27.5228571,21.1714286 26.0742857,21.1714286 C24.6257143,21.1714286 23.3814286,22.1557143 22.9357143,23.4742857 C23.2885714,22.0814286 24.57,21.0414286 26.0742857,21.0414286 C27.5785714,21.0414286 28.86,22.0814286 29.2128571,23.4742857 M25.6842857,19.7228571 C25.6657143,19.7414286 25.6471429,19.7228571 25.6285714,19.7042857 C25.4614286,18.3485714 25.22,17.0114286 24.9785714,15.6557143 C24.9785714,15.6557143 24.9971429,15.6371429 24.9971429,15.6557143 C25.2757143,16.51 25.4428571,17.3271429 25.6285714,18.2 C25.74,18.7014286 25.9071429,19.24 25.6842857,19.7228571 M25.3314286,19.76 C24.9042857,20.0385714 24.6442857,20.3728571 24.5328571,20.7071429 C24.2171429,20.5585714 23.8085714,20.5028571 23.3257143,20.5957143 C22.3785714,19.5371429 21.3385714,17.9957143 20.8557143,16.9 C21.9142857,16.1571429 23.1585714,15.6371429 24.4771429,15.3957143 C24.9414286,16.51 25.2385714,18.3485714 25.3314286,19.76 M22.9914286,20.7257143 C23.01,20.7628571 22.9728571,20.8 22.9357143,20.7628571 C22.0071429,19.8528571 21.19,18.6271429 20.8,17.3828571 C20.8,17.3828571 20.8,17.3828571 20.8,17.3828571 C21.3942857,18.5714286 22.4528571,19.5185714 22.9914286,20.7257143 M21.3942857,20.3357143 C21.8214286,20.6142857 22.3228571,20.8742857 22.5085714,21.3571429 C22.5271429,21.3757143 22.49,21.3942857 22.4714286,21.3757143 C21.3942857,20.5214286 20.28,19.76 19.1471429,18.98 C19.1471429,18.98 19.1471429,18.9614286 19.1471429,18.9614286 C19.9457143,19.37 20.6514286,19.8528571 21.3942857,20.3357143 M22.2857143,21.6357143 C22.1928571,22.1371429 22.2485714,22.5457143 22.3971429,22.8614286 C22.0628571,22.9728571 21.7285714,23.2142857 21.4685714,23.6414286 C20.0385714,23.5671429 18.2185714,23.2142857 17.1042857,22.7685714 C17.3457143,21.4314286 17.8657143,20.2057143 18.6085714,19.1471429 C19.7042857,19.63 21.2271429,20.7071429 22.2857143,21.6357143 M19.9085714,24.83 C20.41,24.7185714 20.93,24.5514286 21.4128571,24.7742857 C21.4314286,24.7928571 21.4128571,24.8114286 21.3942857,24.83 C20.0385714,24.9971429 18.7014286,25.2385714 17.3457143,25.48 C17.3457143,25.48 17.3271429,25.4614286 17.3457143,25.4614286 C18.2,25.1642857 19.0357143,25.0157143 19.9085714,24.83 M17.4014286,23.1585714 C18.6642857,23.5857143 20.0757143,23.5114286 21.3014286,23.9757143 C21.3385714,23.9942857 21.3385714,24.05 21.2828571,24.05 C20.0014286,24.05 18.5528571,23.7528571 17.4014286,23.1585714 C17.4014286,23.1585714 17.4014286,23.1585714 17.4014286,23.1585714 M20.5585714,24.2728571 C20.1314286,24.2171429 19.7228571,24.1242857 19.2957143,24.0314286 C19.2957143,24.0314286 19.2957143,24.0128571 19.2957143,24.0128571 C19.6857143,23.9757143 20.0571429,24.0128571 20.4471429,24.0685714 C20.8185714,24.1242857 21.2085714,24.1057143 21.5614286,24.1985714 C21.5985714,24.2171429 21.5985714,24.2728571 21.5614286,24.2914286 C21.2457143,24.3842857 20.8928571,24.31 20.5585714,24.2728571 M21.45,25.1271429 C21.7285714,25.5542857 22.0628571,25.8142857 22.3971429,25.9257143 C22.2485714,26.2414286 22.1928571,26.65 22.2857143,27.1328571 C21.2271429,28.08 19.6857143,29.12 18.59,29.6028571 C17.8471429,28.5442857 17.3271429,27.3 17.0857143,25.9814286 C18.2185714,25.5171429 20.0571429,25.22 21.45,25.1271429 M26.0742857,13.13 C21.0414286,13.13 16.7514286,16.5657143 15.21,21.0785714 C16.4542857,16.2314286 20.8371429,12.6471429 26.0742857,12.6471429 C31.3114286,12.6471429 35.7128571,16.2314286 36.9385714,21.0785714 C35.3971429,16.5657143 31.1071429,13.13 26.0742857,13.13 M44.33,25.5542857 C43.6242857,25.9257143 41.8228571,25.4985714 41.5257143,25.0157143 C41.9157143,25.2571429 42.8071429,25.5542857 44.3114286,25.5357143 C44.33,25.5357143 44.33,25.5542857 44.33,25.5542857 M45.8528571,24.1614286 C44.98,21.9885714 41.08,24.44 40.8757143,24.3657143 C39.8914286,24.0685714 38.3128571,23.7714286 38.0714286,22.5642857 C38.8514286,23.92 40.5785714,23.8828571 41.0985714,23.8828571 C41.9714286,23.3628571 43.6428571,22.8985714 44.6642857,23.1028571 C46.0942857,23.3814286 45.9271429,24.3657143 45.8528571,24.1614286" id="Shape" fill="#FFFFFF" fill-rule="nonzero"></path>
                <path d="M47.6171429,31.2 C48.2114286,32.3885714 48.8614286,33.5585714 49.1957143,34.71 C47.4685714,33.2614286 43.4757143,30.6614286 42.0828571,30.6242857 C42.4542857,30.0857143 43.4571429,29.6028571 43.0671429,27.8571429 C43.03,27.69 42.9185714,27.8942857 42.9371429,28.0614286 C43.0857143,29.0828571 42.4914286,29.4542857 41.8042857,30.16 C41.2657143,30.6985714 41.1357143,31.9057143 41.0614286,34.1528571 C40.7457143,34.3942857 40.3928571,34.45 39.9657143,34.4685714 C37.7371429,34.5614286 35.7685714,33.02 32.3514286,32.2214286 C30.2714286,31.7385714 28.1728571,31.59 26.0185714,31.6271429 C23.8642857,31.59 21.7657143,31.7385714 19.6857143,32.2214286 C16.2685714,33.0014286 14.3,34.5614286 12.0714286,34.4685714 C11.6442857,34.45 11.2914286,34.3942857 10.9757143,34.1528571 C10.9014286,31.9057143 10.7528571,30.7171429 10.2328571,30.16 C9.54571429,29.4542857 8.95142857,29.0828571 9.1,28.0614286 C9.11857143,27.9128571 9.00714286,27.7085714 8.97,27.8571429 C8.58,29.5842857 9.58285714,30.0671429 9.95428571,30.6242857 C8.56142857,30.6614286 4.55,33.2614286 2.84142857,34.71 C3.17571429,33.5585714 3.82571429,32.3885714 4.42,31.2 C4.32714286,31.1257143 1.05857143,31.6642857 0.761428571,31.7014286 C2.13571429,30.4942857 3.71428571,29.3242857 5.25571429,28.4142857 C8.63571429,26.4271429 11.8114286,26.5757143 11.8857143,26.8357143 C11.7742857,27.1514286 11.8485714,28.08 11.9785714,28.6371429 C11.1985714,28.6742857 10.5671429,28.6742857 10.0842857,28.4328571 C9.19285714,28.0057143 10.6042857,27.3928571 11.05,27.3742857 C11.1057143,27.3742857 11.1057143,27.3 11.0685714,27.2814286 C10.1214286,27.0214286 8.85857143,27.95 9.89857143,28.73 C10.8457143,29.4357143 12.8328571,28.99 13.8914286,28.8042857 C16.1757143,28.3957143 19.1842857,26.7985714 26.0371429,26.7242857 C32.89,26.7985714 35.8985714,28.3957143 38.1828571,28.8042857 C39.2414286,28.99 41.2285714,29.4357143 42.1757143,28.73 C43.2157143,27.95 41.9528571,27.0028571 41.0057143,27.2814286 C40.95,27.3 40.9685714,27.3557143 41.0242857,27.3742857 C41.47,27.3928571 42.8814286,27.9871429 41.99,28.4328571 C41.5257143,28.6557143 40.8757143,28.6742857 40.0957143,28.6371429 C40.2257143,28.0985714 40.3,27.1514286 40.1885714,26.8357143 C40.2628571,26.5757143 43.4385714,26.4457143 46.8185714,28.4142857 C48.3785714,29.3242857 49.9385714,30.5128571 51.3128571,31.7014286 C50.96,31.6642857 47.71,31.1071429 47.6171429,31.2" id="Shape" fill="#FFFFFF" fill-rule="nonzero"></path>
                <path d="M25.9442857,32.0357143 C28.2657143,32.0171429 30.6614286,32.2214286 32.3142857,32.6114286 C35.1185714,33.28 39.7614286,36.0285714 41.3028571,34.5242857 C41.6557143,34.1714286 41.4514286,32.0914286 41.8414286,31.0514286 C42.8442857,30.9028571 47.0971429,33.4842857 49.3442857,35.1742857 C49.53,35.3228571 49.6785714,35.2485714 49.6785714,35.2485714 C49.92,34.9885714 48.6942857,32.4814286 48.0442857,31.5528571 C50.9785714,32.0357143 51.09,32.11 51.6657143,32.0728571 C51.8514286,32.0914286 51.9257143,31.9985714 51.8142857,31.8871429 C45.3514286,25.1828571 39.39,26.13 39.65,26.7614286 C40.0028571,27.6342857 39.6314286,28.6 39.6314286,28.6185714 C36.5671429,28.3214286 32.7785714,26.3157143 26,26.2785714 C19.2214286,26.3157143 15.4328571,28.3214286 12.3685714,28.6185714 C12.3685714,28.6185714 11.9971429,27.6528571 12.35,26.7614286 C12.61,26.13 6.64857143,25.1828571 0.185714286,31.8871429 C0.0928571429,31.9985714 0.148571429,32.0728571 0.334285714,32.0728571 C0.91,32.0914286 1.02142857,32.0357143 3.95571429,31.5528571 C3.28714286,32.4814286 2.08,34.9885714 2.32142857,35.2485714 C2.32142857,35.2485714 2.47,35.3228571 2.65571429,35.1742857 C4.92142857,33.4842857 9.15571429,30.9028571 10.1585714,31.0514286 C10.5671429,32.0914286 10.3442857,34.1714286 10.6971429,34.5242857 C12.2385714,36.0471429 16.8257143,33.28 19.63,32.6114286 C21.2828571,32.2028571 23.7157143,32.0171429 25.9442857,32.0357143 M47.6171429,31.2 C48.2114286,32.3885714 48.8614286,33.5585714 49.1957143,34.71 C47.4685714,33.2614286 43.4757143,30.6614286 42.0828571,30.6242857 C42.4542857,30.0857143 43.4571429,29.6028571 43.0671429,27.8571429 C43.03,27.69 42.9185714,27.8942857 42.9371429,28.0614286 C43.0857143,29.0828571 42.4914286,29.4542857 41.8042857,30.16 C41.2657143,30.6985714 41.1357143,31.9057143 41.0614286,34.1528571 C40.7457143,34.3942857 40.3928571,34.45 39.9657143,34.4685714 C37.7371429,34.5614286 35.7685714,33.02 32.3514286,32.2214286 C30.2714286,31.7385714 28.1728571,31.59 26.0185714,31.6271429 C23.8642857,31.59 21.7657143,31.7385714 19.6857143,32.2214286 C16.2685714,33.0014286 14.3,34.5614286 12.0714286,34.4685714 C11.6442857,34.45 11.2914286,34.3942857 10.9757143,34.1528571 C10.9014286,31.9057143 10.7528571,30.7171429 10.2328571,30.16 C9.54571429,29.4542857 8.95142857,29.0828571 9.1,28.0614286 C9.11857143,27.9128571 9.00714286,27.7085714 8.97,27.8571429 C8.58,29.5842857 9.58285714,30.0671429 9.95428571,30.6242857 C8.56142857,30.6614286 4.55,33.2614286 2.84142857,34.71 C3.17571429,33.5585714 3.82571429,32.3885714 4.42,31.2 C4.32714286,31.1257143 1.05857143,31.6642857 0.761428571,31.7014286 C2.13571429,30.4942857 3.71428571,29.3242857 5.25571429,28.4142857 C8.63571429,26.4271429 11.8114286,26.5757143 11.8857143,26.8357143 C11.7742857,27.1514286 11.8485714,28.08 11.9785714,28.6371429 C11.1985714,28.6742857 10.5671429,28.6742857 10.0842857,28.4328571 C9.19285714,28.0057143 10.6042857,27.3928571 11.05,27.3742857 C11.1057143,27.3742857 11.1057143,27.3 11.0685714,27.2814286 C10.1214286,27.0214286 8.85857143,27.95 9.89857143,28.73 C10.8457143,29.4357143 12.8328571,28.99 13.8914286,28.8042857 C16.1757143,28.3957143 19.1842857,26.7985714 26.0371429,26.7242857 C32.89,26.7985714 35.8985714,28.3957143 38.1828571,28.8042857 C39.2414286,28.99 41.2285714,29.4357143 42.1757143,28.73 C43.2157143,27.95 41.9528571,27.0028571 41.0057143,27.2814286 C40.95,27.3 40.9685714,27.3557143 41.0242857,27.3742857 C41.47,27.3928571 42.8814286,27.9871429 41.99,28.4328571 C41.5257143,28.6557143 40.8757143,28.6742857 40.0957143,28.6371429 C40.2257143,28.0985714 40.3,27.1514286 40.1885714,26.8357143 C40.2628571,26.5757143 43.4385714,26.4457143 46.8185714,28.4142857 C48.3785714,29.3242857 49.9385714,30.5128571 51.3128571,31.7014286 C50.96,31.6642857 47.71,31.1071429 47.6171429,31.2" id="Shape" fill="#FFFFFF" fill-rule="nonzero"></path>
                <path d="M13.7242857,33.5771429 C12.8885714,33.7257143 13.0928571,33.9485714 11.6071429,33.8371429 C11.44,33.8185714 11.4028571,34.0785714 11.57,34.1342857 C12.87,34.4685714 13.9285714,33.54 13.7242857,33.5771429" id="Shape" fill="#00365F" fill-rule="nonzero"></path>
                <path d="M12.7771429,33.2985714 C11.8857143,33.5028571 11.5142857,33.2428571 11.5328571,33.5585714 C11.5514286,33.93 12.4242857,33.6514286 12.8142857,33.3914286 C12.87,33.3728571 12.8328571,33.2985714 12.7771429,33.2985714" id="Shape" fill="#00365F" fill-rule="nonzero"></path>
                <path d="M12.1457143,33.02 C12.0714286,33.02 12.0157143,32.9828571 11.9414286,32.9828571 C11.0685714,32.9457143 11.2914286,33.3542857 11.4957143,33.3728571 C11.8857143,33.3914286 11.9785714,33.2428571 12.1642857,33.0942857 C12.2014286,33.0757143 12.2014286,33.02 12.1457143,33.02" id="Shape" fill="#00365F" fill-rule="nonzero"></path>
                <path d="M12.2942857,29.4542857 C11.7557143,29.3985714 11.1985714,29.38 10.6785714,29.3057143 C10.53,29.2871429 9.97285714,28.99 9.91714286,29.2314286 C9.80571429,29.5657143 11.1614286,29.7885714 12.2942857,29.4542857 C12.2942857,29.4728571 12.2942857,29.4542857 12.2942857,29.4542857" id="Shape" fill="#00365F" fill-rule="nonzero"></path>
                <path d="M11.8857143,29.7733024 C11.4214286,29.6540803 9.88,29.753432 10.2885714,29.9918763 C10.4928571,30.1110984 10.7528571,30.031617 10.9757143,30.0117467 C11.2728571,29.9918763 11.5514286,29.9720059 11.8485714,29.9521356 C11.96,29.9521356 11.9785714,29.7931727 11.8857143,29.7733024" id="Shape" fill="#00365F" fill-rule="nonzero"></path>
                <path d="M11.44,30.1414286 C11.2357143,30.1042857 10.9385714,30.0114286 10.7342857,30.1228571 C10.6414286,30.1785714 10.6414286,30.3271429 10.7342857,30.3828571 C10.9385714,30.4942857 11.2357143,30.4014286 11.44,30.3642857 C11.5514286,30.3457143 11.5514286,30.16 11.44,30.1414286" id="Shape" fill="#00365F" fill-rule="nonzero"></path>
                <path d="M6.12857143,28.3957143 C4.95857143,28.5814286 3.08285714,30.1042857 2.61857143,30.7542857 C2.58142857,30.81 2.65571429,30.8842857 2.71142857,30.8471429 C3.77,30.1971429 3.25,30.0671429 6.14714286,28.4514286 C6.16571429,28.4328571 6.14714286,28.3957143 6.12857143,28.3957143" id="Shape" fill="#00365F" fill-rule="nonzero"></path>
                <path d="M5.14428571,29.3614286 C4.45714286,29.3428571 2.95285714,30.9585714 3.32428571,30.8657143 C3.43571429,30.8471429 3.49142857,30.7542857 3.58428571,30.6614286 C4.21571429,30.03 4.68,29.7885714 5.16285714,29.4357143 C5.2,29.4171429 5.18142857,29.3614286 5.14428571,29.3614286" id="Shape" fill="#00365F" fill-rule="nonzero"></path>
                <path d="M5.33,29.8442857 C4.82857143,30.1228571 4.36428571,30.4014286 3.9,30.7542857 C3.77,30.8471429 3.9,31.0142857 4.03,30.9214286 C4.47571429,30.5685714 4.94,30.2714286 5.33,29.8442857 C5.34857143,29.8628571 5.34857143,29.8442857 5.33,29.8442857" id="Shape" fill="#00365F" fill-rule="nonzero"></path>
                <path d="M6.42571429,31.6642857 C5.73857143,31.9242857 4.04857143,33.0014286 3.65857143,33.5214286 C3.62142857,33.5585714 3.67714286,33.6328571 3.73285714,33.6142857 C4.21571429,33.4285714 4.60571429,33.02 5.01428571,32.7228571 C5.46,32.3885714 6.74142857,31.5342857 6.42571429,31.6642857" id="Shape" fill="#00365F" fill-rule="nonzero"></path>
                <path d="M5.33,31.8314286 C5.05142857,31.8871429 4.40142857,32.4442857 4.21571429,32.63 C4.08571429,32.76 3.93714286,32.8157143 3.82571429,32.9457143 C3.80714286,32.9642857 3.84428571,33.0014286 3.86285714,33.0014286 C4.23428571,32.9271429 5.53428571,31.7757143 5.33,31.8314286" id="Shape" fill="#00365F" fill-rule="nonzero"></path>
                <path d="M5.53428571,31.2742857 C5.2,31.1257143 4.58714286,31.7942857 4.32714286,32.0542857 C4.23428571,32.1471429 4.38285714,32.2771429 4.45714286,32.1842857 C4.62428571,32.0171429 4.81,31.8314286 4.97714286,31.6642857 C5.03285714,31.6457143 5.57142857,31.2928571 5.53428571,31.2742857" id="Shape" fill="#00365F" fill-rule="nonzero"></path>
                <path d="M38.3685714,33.5771429 C39.2042857,33.7257143 39,33.9485714 40.4857143,33.8371429 C40.6528571,33.8185714 40.69,34.0785714 40.5228571,34.1342857 C39.2042857,34.4685714 38.1457143,33.54 38.3685714,33.5771429" id="Shape" fill="#00365F" fill-rule="nonzero"></path>
                <path d="M39.3157143,33.2985714 C40.2071429,33.5028571 40.5785714,33.2428571 40.56,33.5585714 C40.5414286,33.93 39.6685714,33.6514286 39.2785714,33.3914286 C39.2228571,33.3728571 39.2414286,33.2985714 39.3157143,33.2985714" id="Shape" fill="#00365F" fill-rule="nonzero"></path>
                <path d="M39.9285714,33.02 C40.0028571,33.02 40.0585714,32.9828571 40.1328571,32.9828571 C41.0057143,32.9457143 40.7828571,33.3542857 40.5785714,33.3728571 C40.1885714,33.3914286 40.0957143,33.2428571 39.91,33.0942857 C39.8914286,33.0757143 39.8914286,33.02 39.9285714,33.02" id="Shape" fill="#00365F" fill-rule="nonzero"></path>
                <path d="M39.78,29.4542857 C40.3185714,29.3985714 40.8757143,29.38 41.3957143,29.3057143 C41.5442857,29.2871429 42.1014286,28.99 42.1571429,29.2314286 C42.2685714,29.5657143 40.9314286,29.7885714 39.78,29.4542857 C39.78,29.4728571 39.78,29.4542857 39.78,29.4542857" id="Shape" fill="#00365F" fill-rule="nonzero"></path>
                <path d="M40.2071429,29.7733024 C40.6714286,29.6540803 42.2128571,29.753432 41.8042857,29.9918763 C41.6,30.1110984 41.34,30.031617 41.1171429,30.0117467 C40.82,29.9918763 40.5414286,29.9720059 40.2442857,29.9521356 C40.1328571,29.9521356 40.0957143,29.7931727 40.2071429,29.7733024" id="Shape" fill="#00365F" fill-rule="nonzero"></path>
                <path d="M40.6528571,30.1414286 C40.8571429,30.1042857 41.1542857,30.0114286 41.3585714,30.1228571 C41.4514286,30.1785714 41.4514286,30.3271429 41.3585714,30.3828571 C41.1542857,30.4942857 40.8571429,30.4014286 40.6528571,30.3642857 C40.5414286,30.3457143 40.5414286,30.16 40.6528571,30.1414286" id="Shape" fill="#00365F" fill-rule="nonzero"></path>
                <path d="M45.9642857,28.3957143 C47.1342857,28.5814286 49.01,30.1042857 49.4742857,30.7542857 C49.5114286,30.81 49.4371429,30.8842857 49.3814286,30.8471429 C48.3228571,30.1971429 48.8428571,30.0671429 45.9457143,28.4514286 C45.9271429,28.4328571 45.9457143,28.3957143 45.9642857,28.3957143" id="Shape" fill="#00365F" fill-rule="nonzero"></path>
                <path d="M46.9485714,29.3614286 C47.6357143,29.3428571 49.14,30.9585714 48.7685714,30.8657143 C48.6571429,30.8471429 48.6014286,30.7542857 48.5085714,30.6614286 C47.8771429,30.03 47.4128571,29.7885714 46.93,29.4357143 C46.8928571,29.4171429 46.8928571,29.3614286 46.9485714,29.3614286" id="Shape" fill="#00365F" fill-rule="nonzero"></path>
                <path d="M46.7442857,29.8442857 C47.2457143,30.1228571 47.71,30.4014286 48.1742857,30.7542857 C48.3042857,30.8471429 48.1742857,31.0142857 48.0442857,30.9214286 C47.5985714,30.5685714 47.1342857,30.2714286 46.7442857,29.8442857 C46.7257143,29.8628571 46.7442857,29.8442857 46.7442857,29.8442857" id="Shape" fill="#00365F" fill-rule="nonzero"></path>
                <path d="M45.6671429,31.6642857 C46.3542857,31.9242857 48.0442857,33.0014286 48.4342857,33.5214286 C48.4714286,33.5585714 48.4157143,33.6328571 48.36,33.6142857 C47.8771429,33.4285714 47.4871429,33.02 47.0785714,32.7228571 C46.6328571,32.3885714 45.3328571,31.5342857 45.6671429,31.6642857" id="Shape" fill="#00365F" fill-rule="nonzero"></path>
                <path d="M46.7442857,31.8314286 C47.0228571,31.8871429 47.6728571,32.4442857 47.8585714,32.63 C47.9885714,32.76 48.1371429,32.8157143 48.2485714,32.9457143 C48.2671429,32.9642857 48.23,33.0014286 48.2114286,33.0014286 C47.8585714,32.9271429 46.54,31.7757143 46.7442857,31.8314286" id="Shape" fill="#00365F" fill-rule="nonzero"></path>
                <path d="M46.54,31.2742857 C46.8742857,31.1257143 47.4871429,31.7942857 47.7471429,32.0542857 C47.84,32.1471429 47.6914286,32.2771429 47.6171429,32.1842857 C47.45,32.0171429 47.2642857,31.8314286 47.0971429,31.6642857 C47.0414286,31.6457143 46.5028571,31.2928571 46.54,31.2742857" id="Shape" fill="#00365F" fill-rule="nonzero"></path>
                <polygon id="Shape" fill="#FFFFFF" fill-rule="nonzero" points="5.99857143 12.3128571 5.99857143 12.3314286 7.41 13.8728571 7.24285714 14.17 5.18142857 13.8914286 5.18142857 13.91 6.24 14.3928571 6.59285714 14.5971429 6.77857143 14.3742857 7.05714286 14.5228571 6.55571429 15.4885714 6.27714286 15.34 6.35142857 15.0614286 4.68 14.1885714 4.49428571 14.4114286 4.21571429 14.2628571 4.34571429 14.0028571 4.66142857 13.4085714 6.70428571 13.7057143 6.70428571 13.6871429 5.29285714 12.2014286 5.75714286 11.3285714 6.03571429 11.4771429 5.94285714 11.7557143 7.63285714 12.6285714 7.8 12.4057143 8.09714286 12.5542857 7.57714286 13.52 7.29857143 13.3714286 7.37285714 13.0928571 7.02 12.9071429"></polygon>
                <path d="M7.93,12.2571429 L8.02285714,12.09 L6.63,10.0842857 L6.94571429,9.63857143 L9.26714286,10.3442857 L9.39714286,10.2142857 L9.65714286,10.4 L9.13714286,11.1242857 L8.87714286,10.9385714 L8.95142857,10.7714286 L8.59857143,10.66 L8.09714286,11.3471429 L8.32,11.6628571 L8.45,11.5328571 L8.71,11.7185714 L8.19,12.4428571 L7.93,12.2571429 Z M7.85571429,11.0128571 L8.20857143,10.53 L7.28,10.2328571 L7.85571429,11.0128571 Z" id="Shape" fill="#FFFFFF" fill-rule="nonzero"></path>
                <path d="M8.65428571,7.59571429 C8.85857143,7.37285714 9.06285714,7.24285714 9.28571429,7.22428571 C9.50857143,7.18714286 9.69428571,7.26142857 9.88,7.42857143 C9.97285714,7.52142857 10.0285714,7.63285714 10.0657143,7.74428571 C10.0842857,7.85571429 10.0842857,7.98571429 10.0285714,8.13428571 C10.1771429,8.06 10.3071429,8.02285714 10.4185714,8.04142857 C10.5485714,8.06 10.66,8.13428571 10.7714286,8.24571429 L10.8642857,8.33857143 C10.9014286,8.37571429 10.9385714,8.39428571 10.9942857,8.41285714 C11.0314286,8.41285714 11.0685714,8.39428571 11.1057143,8.37571429 L11.1614286,8.33857143 L11.4028571,8.56142857 L11.2171429,8.76571429 C11.1057143,8.89571429 10.9757143,8.95142857 10.8642857,8.93285714 C10.7528571,8.91428571 10.6414286,8.85857143 10.53,8.76571429 L10.4185714,8.65428571 C10.3257143,8.56142857 10.2328571,8.52428571 10.1214286,8.52428571 C10.0285714,8.52428571 9.93571429,8.56142857 9.84285714,8.65428571 L9.54571429,8.97 L10.0471429,9.45285714 L10.2885714,9.28571429 L10.53,9.50857143 L9.78714286,10.3071429 L9.54571429,10.0842857 L9.69428571,9.84285714 L8.30142857,8.54285714 L8.07857143,8.71 L7.83714286,8.48714286 L8.02285714,8.28285714 L8.65428571,7.59571429 Z M9.24857143,8.67285714 L9.49,8.41285714 C9.58285714,8.30142857 9.63857143,8.20857143 9.63857143,8.09714286 C9.63857143,8.00428571 9.60142857,7.91142857 9.50857143,7.83714286 C9.41571429,7.76285714 9.32285714,7.72571429 9.23,7.72571429 C9.13714286,7.72571429 9.02571429,7.78142857 8.93285714,7.89285714 L8.67285714,8.17142857 L9.24857143,8.67285714 Z" id="Shape" fill="#FFFFFF" fill-rule="nonzero"></path>
                <polygon id="Shape" fill="#FFFFFF" fill-rule="nonzero" points="10.01 6.68571429 9.80571429 6.44428571 10.6228571 5.72 10.8271429 5.96142857 10.66 6.18428571 11.9228571 7.59571429 12.1642857 7.44714286 12.3871429 7.68857143 11.57 8.41285714 11.3471429 8.17142857 11.5328571 7.94857143 10.27 6.53714286"></polygon>
                <polygon id="Shape" fill="#FFFFFF" fill-rule="nonzero" points="12.8142857 4.01142857 13.2414286 4.58714286 12.9071429 4.82857143 12.7214286 4.60571429 12.3314286 4.88428571 13.4457143 6.38857143 13.7057143 6.25857143 13.8914286 6.51857143 13.0185714 7.16857143 12.8142857 6.90857143 13.0185714 6.70428571 11.9042857 5.2 11.5142857 5.49714286 11.6814286 5.75714286 11.3471429 5.99857143 10.9385714 5.42285714"></polygon>
                <polygon id="Shape" fill="#FFFFFF" fill-rule="nonzero" points="13.3528571 4.08571429 13.1857143 3.80714286 14.1142857 3.23142857 14.2814286 3.51 14.0771429 3.69571429 15.0614286 5.31142857 15.34 5.21857143 15.5071429 5.47857143 14.56 6.05428571 14.4114286 5.79428571 14.6157143 5.59 13.6314286 3.97428571"></polygon>
                <polygon id="Shape" fill="#FFFFFF" fill-rule="nonzero" points="17.1414286 2.48857143 17.1228571 2.48857143 17.3085714 4.55 16.9928571 4.71714286 15.5257143 3.23142857 15.5257143 3.25 16.0642857 4.27142857 16.2314286 4.64285714 16.51 4.58714286 16.64 4.86571429 15.6557143 5.33 15.5257143 5.05142857 15.7485714 4.88428571 14.95 3.15714286 14.6714286 3.23142857 14.5414286 2.93428571 14.8014286 2.82285714 15.4142857 2.52571429 16.8442857 4.01142857 16.8628571 3.99285714 16.6585714 1.95 17.5314286 1.54142857 17.68 1.82 17.4385714 2.00571429 18.2371429 3.71428571 18.5157143 3.64 18.6457143 3.93714286 17.6614286 4.40142857 17.5314286 4.10428571 17.7542857 3.93714286 17.5871429 3.56571429"></polygon>
                <path d="M19.63,3.28714286 L19.7971429,3.21285714 L20.02,0.798571429 L20.54,0.668571429 L21.8771429,2.71142857 L22.0628571,2.69285714 L22.1371429,3.00857143 L21.2642857,3.23142857 L21.19,2.91571429 L21.3571429,2.84142857 L21.1528571,2.52571429 L20.3171429,2.73 L20.2985714,3.10142857 L20.4842857,3.08285714 L20.5585714,3.39857143 L19.6857143,3.62142857 L19.63,3.28714286 Z M20.3728571,2.30285714 L20.9671429,2.15428571 L20.4471429,1.31857143 L20.4285714,1.31857143 L20.3728571,2.30285714 Z" id="Shape" fill="#FFFFFF" fill-rule="nonzero"></path>
                <polygon id="Shape" fill="#FFFFFF" fill-rule="nonzero" points="24.7 0.0185714286 24.7371429 0.334285714 24.4585714 0.427142857 24.7185714 2.67428571 24.1985714 2.73 22.9357143 1.09571429 22.9171429 1.09571429 23.0842857 2.48857143 23.3628571 2.50714286 23.4 2.82285714 22.3228571 2.95285714 22.2857143 2.63714286 22.5642857 2.54428571 22.3414286 0.668571429 22.0628571 0.65 22.0257143 0.334285714 22.3042857 0.297142857 22.8242857 0.241428571 24.0871429 1.87571429 24.1057143 1.87571429 23.9385714 0.482857143 23.66 0.464285714 23.6228571 0.148571429 24.4214286 0.0557142857"></polygon>
                <path d="M26.39,0.0185714286 C26.7057143,0.0185714286 26.9842857,0.13 27.1885714,0.334285714 C27.3928571,0.538571429 27.5042857,0.817142857 27.4857143,1.13285714 L27.4857143,1.57857143 C27.4857143,1.89428571 27.3742857,2.17285714 27.1514286,2.35857143 C26.9471429,2.56285714 26.6685714,2.65571429 26.3528571,2.65571429 L25.1642857,2.63714286 L25.1642857,2.32142857 L25.4428571,2.26571429 L25.48,0.371428571 L25.2014286,0.315714286 L25.2014286,0 L25.48,0 L26.39,0.0185714286 Z M26.0185714,0.427142857 L26,2.24714286 L26.3528571,2.24714286 C26.5385714,2.24714286 26.6871429,2.19142857 26.7985714,2.06142857 C26.91,1.93142857 26.9657143,1.76428571 26.9657143,1.56 L26.9657143,1.11428571 C26.9657143,0.91 26.91,0.742857143 26.8171429,0.612857143 C26.7057143,0.482857143 26.5571429,0.408571429 26.3714286,0.408571429 L26.0185714,0.427142857 Z" id="Shape" fill="#FFFFFF" fill-rule="nonzero"></path>
                <path d="M29.25,0.241428571 C29.5471429,0.278571429 29.77,0.371428571 29.9185714,0.538571429 C30.0671429,0.705714286 30.1228571,0.891428571 30.1042857,1.13285714 C30.0857143,1.26285714 30.03,1.37428571 29.9557143,1.46714286 C29.8814286,1.56 29.7514286,1.61571429 29.6214286,1.65285714 C29.77,1.72714286 29.8628571,1.80142857 29.9185714,1.93142857 C29.9742857,2.04285714 29.9928571,2.19142857 29.9742857,2.34 L29.9557143,2.47 C29.9557143,2.52571429 29.9557143,2.58142857 29.9742857,2.6 C29.9928571,2.63714286 30.03,2.65571429 30.0857143,2.67428571 L30.1414286,2.69285714 L30.1042857,3.00857143 L29.8257143,2.97142857 C29.6585714,2.95285714 29.5471429,2.87857143 29.4914286,2.78571429 C29.4357143,2.69285714 29.4171429,2.56285714 29.4357143,2.41428571 L29.4542857,2.26571429 C29.4728571,2.13571429 29.4542857,2.04285714 29.3985714,1.95 C29.3428571,1.87571429 29.25,1.82 29.12,1.80142857 L28.6928571,1.74571429 L28.6,2.43285714 L28.8785714,2.52571429 L28.8414286,2.84142857 L27.7642857,2.69285714 L27.8014286,2.37714286 L28.08,2.35857143 L28.3214286,0.482857143 L28.0428571,0.39 L28.08,0.0742857143 L28.3585714,0.111428571 L29.25,0.241428571 Z M28.73,1.33714286 L29.1014286,1.39285714 C29.25,1.41142857 29.3614286,1.39285714 29.4357143,1.33714286 C29.51,1.28142857 29.5657143,1.20714286 29.5842857,1.07714286 C29.6028571,0.965714286 29.5842857,0.854285714 29.51,0.78 C29.4542857,0.705714286 29.3428571,0.65 29.1942857,0.631428571 L28.8228571,0.575714286 L28.73,1.33714286 Z" id="Shape" fill="#FFFFFF" fill-rule="nonzero"></path>
                <polygon id="Shape" fill="#FFFFFF" fill-rule="nonzero" points="30.7914286 0.817142857 30.8471429 0.501428571 31.9242857 0.742857143 31.85 1.05857143 31.5714286 1.04 31.1442857 2.89714286 31.4042857 3.00857143 31.33 3.32428571 30.2714286 3.06428571 30.3457143 2.76714286 30.6242857 2.76714286 31.0514286 0.928571429"></polygon>
                <path d="M31.6271429,3.02714286 L31.8128571,3.06428571 L33.2985714,1.13285714 L33.8185714,1.3 L33.8557143,3.73285714 L34.0228571,3.82571429 L33.93,4.12285714 L33.0757143,3.84428571 L33.1685714,3.54714286 L33.3542857,3.56571429 L33.3542857,3.19428571 L32.5371429,2.93428571 L32.3142857,3.25 L32.4814286,3.34285714 L32.3885714,3.64 L31.5342857,3.36142857 L31.6271429,3.02714286 Z M32.7785714,2.58142857 L33.3542857,2.76714286 L33.3728571,1.78285714 L33.3542857,1.78285714 L32.7785714,2.58142857 Z" id="Shape" fill="#FFFFFF" fill-rule="nonzero"></path>
                <polygon id="Shape" fill="#FFFFFF" fill-rule="nonzero" points="37.05 2.67428571 36.7528571 3.30571429 36.3814286 3.13857143 36.4928571 2.86 36.0471429 2.65571429 35.2671429 4.34571429 35.5085714 4.51285714 35.3785714 4.81 34.3757143 4.34571429 34.5057143 4.06714286 34.7842857 4.12285714 35.5642857 2.43285714 35.1185714 2.22857143 34.9885714 2.48857143 34.6171429 2.32142857 34.9142857 1.69"></polygon>
                <polygon id="Shape" fill="#FFFFFF" fill-rule="nonzero" points="37.2542857 3.15714286 37.4214286 2.87857143 38.3685714 3.43571429 38.2014286 3.71428571 37.9414286 3.62142857 36.9942857 5.25571429 37.2171429 5.44142857 37.05 5.72 36.1028571 5.18142857 36.27 4.90285714 36.53 4.99571429 37.4771429 3.36142857"></polygon>
                <path d="M40.0214286,5.62714286 L39.7057143,5.40428571 L39.8542857,5.08857143 C39.8357143,5.01428571 39.8171429,4.94 39.7614286,4.86571429 C39.7057143,4.79142857 39.65,4.73571429 39.5571429,4.66142857 C39.3714286,4.53142857 39.1671429,4.49428571 38.9814286,4.56857143 C38.7771429,4.64285714 38.61,4.77285714 38.4614286,4.99571429 L38.4057143,5.07 C38.2571429,5.29285714 38.1828571,5.49714286 38.1828571,5.72 C38.1828571,5.92428571 38.2757143,6.09142857 38.4614286,6.22142857 C38.5542857,6.27714286 38.6285714,6.31428571 38.7214286,6.35142857 C38.8142857,6.37 38.8885714,6.38857143 38.9628571,6.37 L39.2042857,6.11 L39.52,6.33285714 L39.2228571,6.76 C39.0742857,6.79714286 38.8885714,6.79714286 38.7214286,6.76 C38.5357143,6.72285714 38.3685714,6.64857143 38.2014286,6.53714286 C37.9042857,6.33285714 37.7371429,6.07285714 37.7,5.73857143 C37.6628571,5.40428571 37.7371429,5.08857143 37.96,4.77285714 L38.0157143,4.69857143 C38.2385714,4.38285714 38.4985714,4.19714286 38.8328571,4.12285714 C39.1671429,4.04857143 39.4642857,4.12285714 39.7614286,4.30857143 C39.9285714,4.42 40.0585714,4.56857143 40.1514286,4.71714286 C40.2442857,4.86571429 40.3,5.03285714 40.3185714,5.2 L40.0214286,5.62714286 Z" id="Shape" fill="#FFFFFF" fill-rule="nonzero"></path>
                <path d="M42.7328571,8.06 L42.4542857,7.78142857 L42.6585714,7.48428571 C42.6585714,7.41 42.64,7.33571429 42.6028571,7.26142857 C42.5657143,7.18714286 42.51,7.11285714 42.4357143,7.03857143 C42.2685714,6.87142857 42.0828571,6.81571429 41.8785714,6.85285714 C41.6742857,6.89 41.47,7.00142857 41.2842857,7.18714286 L41.2285714,7.26142857 C41.0428571,7.44714286 40.9314286,7.65142857 40.9128571,7.85571429 C40.8942857,8.06 40.95,8.24571429 41.1171429,8.39428571 C41.1914286,8.46857143 41.2657143,8.52428571 41.3585714,8.56142857 C41.4328571,8.59857143 41.5257143,8.61714286 41.5814286,8.61714286 L41.86,8.39428571 L42.1385714,8.67285714 L41.7671429,9.04428571 C41.6,9.06285714 41.4328571,9.04428571 41.2657143,8.97 C41.0985714,8.91428571 40.9314286,8.80285714 40.7828571,8.67285714 C40.5228571,8.43142857 40.4114286,8.13428571 40.4114286,7.8 C40.4114286,7.46571429 40.56,7.16857143 40.82,6.89 L40.8757143,6.83428571 C41.1357143,6.55571429 41.4328571,6.40714286 41.7671429,6.38857143 C42.1014286,6.37 42.3985714,6.48142857 42.6585714,6.72285714 C42.8071429,6.87142857 42.9185714,7.02 42.9742857,7.18714286 C43.0485714,7.35428571 43.0671429,7.52142857 43.0671429,7.68857143 L42.7328571,8.06 Z" id="Shape" fill="#FFFFFF" fill-rule="nonzero"></path>
                <polygon id="Shape" fill="#FFFFFF" fill-rule="nonzero" points="41.6928571 9.50857143 41.9342857 9.30428571 42.1571429 9.49 43.6057143 8.26428571 43.4757143 8.02285714 43.7171429 7.81857143 43.8842857 8.02285714 44.2371429 8.43142857 44.4228571 8.65428571 44.1628571 8.85857143 43.94 8.67285714 42.51 9.86142857 42.9928571 10.4371429 43.2714286 10.2514286 43.5314286 10.5485714 42.9557143 11.0314286"></polygon>
                <path d="M45.7971429,10.4928571 L45.5371429,10.66 L45.3328571,10.4557143 L44.1814286,11.2171429 C44.0328571,11.31 43.9585714,11.4214286 43.94,11.5514286 C43.9214286,11.6814286 43.9585714,11.8114286 44.0514286,11.9414286 C44.1442857,12.0714286 44.2557143,12.1642857 44.3671429,12.2014286 C44.4971429,12.2385714 44.6271429,12.2014286 44.7757143,12.1085714 L45.9271429,11.3471429 L45.8157143,11.0871429 L46.0757143,10.92 L46.6885714,11.83 L46.4285714,12.0157143 L46.2242857,11.8114286 L45.0728571,12.5728571 C44.8314286,12.74 44.59,12.7771429 44.3485714,12.7028571 C44.1071429,12.6285714 43.9028571,12.4614286 43.7171429,12.2014286 C43.55,11.9414286 43.4757143,11.6814286 43.4942857,11.44 C43.5128571,11.1985714 43.6614286,10.9757143 43.9028571,10.8271429 L45.0542857,10.0657143 L44.9428571,9.80571429 L45.2028571,9.63857143 L45.3514286,9.88 L45.6485714,10.3257143 L45.7971429,10.4928571 Z" id="Shape" fill="#FFFFFF" fill-rule="nonzero"></path>
                <path d="M47.4314286,13.2971429 C47.5614286,13.5757143 47.6171429,13.8171429 47.5985714,14.0214286 C47.5614286,14.2257143 47.45,14.3928571 47.2271429,14.5042857 C47.1157143,14.56 47.0042857,14.5785714 46.8928571,14.56 C46.7814286,14.5414286 46.67,14.4857143 46.5771429,14.4114286 C46.6142857,14.56 46.5957143,14.7085714 46.54,14.82 C46.4842857,14.9314286 46.3728571,15.0242857 46.2428571,15.0985714 C46.02,15.21 45.8157143,15.2285714 45.6114286,15.1357143 C45.4257143,15.0428571 45.2585714,14.8571429 45.1285714,14.5785714 L44.5528571,13.4085714 L44.8314286,13.26 L44.9985714,13.4828571 L46.6885714,12.6471429 L46.6142857,12.3685714 L46.8928571,12.22 L47.0228571,12.48 L47.4314286,13.2971429 Z M45.9457143,13.6314286 L45.2585714,13.9657143 L45.4814286,14.4114286 C45.5371429,14.5414286 45.6114286,14.6157143 45.7042857,14.6528571 C45.7971429,14.69 45.89,14.69 46.0014286,14.6342857 C46.1128571,14.5785714 46.1871429,14.5042857 46.2242857,14.4114286 C46.2614286,14.3185714 46.2428571,14.2257143 46.1871429,14.0957143 L45.9457143,13.6314286 Z M46.28,13.4642857 L46.4471429,13.7985714 C46.5028571,13.9285714 46.5771429,14.0028571 46.67,14.0585714 C46.7628571,14.0957143 46.8557143,14.0957143 46.9485714,14.04 C47.06,13.9842857 47.1157143,13.91 47.1342857,13.8171429 C47.1528571,13.7242857 47.1342857,13.6128571 47.06,13.4642857 L46.8928571,13.1485714 L46.28,13.4642857 Z" id="Shape" fill="#FFFFFF" fill-rule="nonzero"></path>
                <polygon id="Shape" fill="#FFFFFF" fill-rule="nonzero" points="3.30571429 17.55 4.21571429 17.68 4.81 17.0114286 4.97714286 17.9028571 5.81285714 18.2742857 5.01428571 18.7014286 4.92142857 19.6114286 4.25285714 18.98 3.36142857 19.1657143 3.75142857 18.3485714"></polygon>
                <polygon id="Shape" fill="#FFFFFF" fill-rule="nonzero" points="48.4157143 17.55 47.5242857 17.68 46.9114286 17.0114286 46.7442857 17.9028571 45.9271429 18.2742857 46.7257143 18.7014286 46.8185714 19.6114286 47.4685714 18.98 48.36 19.1657143 47.97 18.3485714"></polygon>
                <polygon id="Shape" fill="#00365F" fill-rule="nonzero" points="20.0942857 28.8228571 20.0942857 28.8228571 19.8714286 31.2371429 19.4628571 31.3485714 18.0885714 29.3614286 18.0885714 29.3614286 18.4785714 30.6614286 18.6085714 31.1257143 18.9428571 31.1071429 19.0357143 31.46 17.7914286 31.7942857 17.6985714 31.4228571 18.0142857 31.2928571 17.4385714 29.1385714 17.1042857 29.1571429 17.0114286 28.8042857 17.3271429 28.7114286 18.1257143 28.5071429 19.4628571 30.5128571 19.4628571 30.5128571 19.6485714 28.1171429 20.7628571 27.82 20.8557143 28.1728571 20.5585714 28.3214286 21.1157143 30.4757143 21.45 30.4571429 21.5428571 30.81 20.2985714 31.1257143 20.2057143 30.7728571 20.5214286 30.6242857 20.3914286 30.16"></polygon>
                <path d="M22.8614286,30.29 L23.0842857,30.2528571 L23.8642857,27.5228571 L24.4957143,27.4857143 L25.5914286,30.1042857 L25.8142857,30.1228571 L25.8328571,30.4942857 L24.7742857,30.55 L24.7557143,30.1785714 L24.96,30.1228571 L24.7928571,29.7142857 L23.79,29.77 L23.6785714,30.1971429 L23.9014286,30.2157143 L23.92,30.5871429 L22.8614286,30.6428571 L22.8614286,30.29 Z M23.9385714,29.3057143 L24.6442857,29.2685714 L24.2357143,28.21 L24.2171429,28.21 L23.9385714,29.3057143 Z" id="Shape" fill="#00365F" fill-rule="nonzero"></path>
                <polygon id="Shape" fill="#00365F" fill-rule="nonzero" points="30.68 27.7642857 30.6428571 28.1357143 30.3085714 28.1542857 30.03 30.7914286 29.4171429 30.7357143 28.3957143 28.5257143 28.3771429 28.5442857 28.21 30.16 28.5257143 30.2714286 28.4885714 30.6428571 27.2257143 30.4942857 27.2628571 30.1414286 27.5971429 30.1042857 27.82 27.8942857 27.5042857 27.8014286 27.5414286 27.43 27.8757143 27.4671429 28.4885714 27.5228571 29.51 29.7328571 29.5285714 29.7328571 29.6957143 28.0985714 29.3614286 27.9871429 29.4171429 27.6342857 30.3457143 27.7271429"></polygon>
                <path d="M34.71,29.8628571 L34.2642857,29.7328571 L34.32,29.3242857 C34.2828571,29.25 34.2271429,29.1757143 34.1342857,29.12 C34.06,29.0642857 33.9485714,29.0085714 33.8371429,28.9714286 C33.5771429,28.8971429 33.3542857,28.9342857 33.15,29.0828571 C32.9642857,29.2314286 32.8157143,29.4542857 32.7228571,29.7514286 L32.6857143,29.8628571 C32.5928571,30.16 32.5928571,30.42 32.6857143,30.6614286 C32.76,30.8842857 32.9271429,31.0514286 33.1871429,31.1257143 C33.2985714,31.1628571 33.41,31.1814286 33.5214286,31.1628571 C33.6328571,31.1628571 33.7257143,31.1257143 33.7814286,31.0885714 L33.9671429,30.7171429 L34.4128571,30.8471429 L34.2457143,31.4414286 C34.0785714,31.5528571 33.8928571,31.6085714 33.6885714,31.6457143 C33.4842857,31.6642857 33.2614286,31.6457143 33.0385714,31.59 C32.6485714,31.4785714 32.3514286,31.2371429 32.1842857,30.8842857 C32.0171429,30.5314286 31.9985714,30.1414286 32.11,29.7142857 L32.1471429,29.6214286 C32.2771429,29.1942857 32.5,28.8785714 32.8342857,28.6742857 C33.1685714,28.47 33.54,28.4328571 33.93,28.5442857 C34.1528571,28.6185714 34.3571429,28.7114286 34.5057143,28.86 C34.6728571,28.99 34.7842857,29.1571429 34.8585714,29.3242857 L34.71,29.8628571 Z" id="Shape" fill="#00365F" fill-rule="nonzero"></path>
            </g>
        </g>
    </g>
</svg>