<?xml version="1.0" encoding="UTF-8"?>
<svg width="82px" height="82px" viewBox="0 0 82 82" version="1.1" xmlns="http://www.w3.org/2000/svg" xmlns:xlink="http://www.w3.org/1999/xlink">
    <!-- Generator: Sketch 48.1 (47250) - http://www.bohemiancoding.com/sketch -->
    <title>Group@2x</title>
    <desc>Created with Sketch.</desc>
    <defs>
        <path d="M39,10.4632039 C22.8601067,10.4632039 9.75,23.3667744 9.75,39.2524289 C9.75,55.1380833 22.8601067,68.0416538 39,68.0416538 C55.1398941,68.0416538 68.25,55.1380833 68.25,39.2524289 C68.25,23.3667744 55.1398941,10.4632039 39,10.4632039 Z M39,12.862306 C53.8225716,12.862306 65.8125,24.6634891 65.8125,39.2524289 C65.8125,53.8416085 53.8225716,65.6425517 39,65.6425517 C24.1774294,65.6425517 12.1875,53.8416085 12.1875,39.2524289 C12.1875,24.6634891 24.1774294,12.862306 39,12.862306 Z" id="path-1"></path>
        <path d="M39,16.4609591 C26.2255914,16.4609591 15.84375,26.6792147 15.84375,39.2524289 C15.84375,51.825643 26.2255914,62.0438986 39,62.0438986 C51.7744086,62.0438986 62.15625,51.825643 62.15625,39.2524289 C62.15625,26.6792147 51.7744086,16.4609591 39,16.4609591 Z M39,18.8600612 C50.4570861,18.8600612 59.71875,27.9759293 59.71875,39.2524289 C59.71875,50.5291683 50.4570861,59.6447965 39,59.6447965 C27.5429139,59.6447965 18.28125,50.5291683 18.28125,39.2524289 C18.28125,27.9759293 27.5429139,18.8600612 39,18.8600612 Z" id="path-2"></path>
        <path d="M39,27.2569185 C32.2834663,27.2569185 26.8125,32.6417031 26.8125,39.2524289 C26.8125,45.8631546 32.2834663,51.2479392 39,51.2479392 C45.7165337,51.2479392 51.1875,45.8631546 51.1875,39.2524289 C51.1875,32.6417031 45.7165337,27.2569185 39,27.2569185 Z M39,29.6560205 C44.3992112,29.6560205 48.75,33.9384177 48.75,39.2524289 C48.75,44.5666799 44.3992112,48.8488372 39,48.8488372 C33.6007888,48.8488372 29.25,44.5666799 29.25,39.2524289 C29.25,33.9384177 33.6007888,29.6560205 39,29.6560205 Z" id="path-3"></path>
        <path d="M39,33.2546737 C35.6489494,33.2546737 32.90625,35.9541433 32.90625,39.2524289 C32.90625,42.5507144 35.6489494,45.2501841 39,45.2501841 C42.3510506,45.2501841 45.09375,42.5507144 45.09375,39.2524289 C45.09375,35.9541433 42.3510506,33.2546737 39,33.2546737 Z M39,35.6537757 C41.0337257,35.6537757 42.65625,37.250858 42.65625,39.2524289 C42.65625,41.2542396 41.0337257,42.851082 39,42.851082 C36.9662743,42.851082 35.34375,41.2542396 35.34375,39.2524289 C35.34375,37.250858 36.9662743,35.6537757 39,35.6537757 Z" id="path-4"></path>
        <polygon id="path-5" points="35.34375 17.6605101 35.34375 28.4564695 37.78125 28.4564695 37.78125 17.6605101"></polygon>
        <polygon id="path-6" points="40.21875 17.6605101 40.21875 28.4564695 42.65625 28.4564695 42.65625 17.6605101"></polygon>
        <polygon id="path-7" points="35.34375 50.1983321 35.34375 60.9942914 37.78125 60.9942914 37.78125 50.1983321"></polygon>
        <polygon id="path-8" points="40.21875 50.1983321 40.21875 60.9942914 42.65625 60.9942914 42.65625 50.1983321"></polygon>
        <polygon id="path-9" points="50.0449219 35.7288676 50.0449219 38.1279697 61.0136719 38.1279697 61.0136719 35.7288676"></polygon>
        <polygon id="path-10" points="50.0449219 40.5270718 50.0449219 42.9261739 61.0136719 42.9261739 61.0136719 40.5270718"></polygon>
        <polygon id="path-11" points="16.9863281 35.7288676 16.9863281 38.1279697 27.9550781 38.1279697 27.9550781 35.7288676"></polygon>
        <polygon id="path-12" points="16.9863281 40.5270718 16.9863281 42.9261739 27.9550781 42.9261739 27.9550781 40.5270718"></polygon>
        <polygon id="path-13" points="51.9825443 21.465486 44.2225339 29.0984692 45.9459219 30.7946344 53.7059323 23.1616512"></polygon>
        <polygon id="path-14" points="55.4293204 24.8578164 47.6740729 32.4910395 49.3974609 34.1872046 57.1527109 26.5542215 55.4293204 24.8578164"></polygon>
        <polygon id="path-15" points="28.6025391 44.4723952 20.8472901 52.1056182 22.5706787 53.8017834 30.3259271 46.1685603"></polygon>
        <polygon id="path-16" points="32.0540781 47.8649654 24.2940674 55.4979486 26.0174558 57.1941138 33.7774661 49.5611306 32.0540781 47.8649654"></polygon>
        <polygon id="path-17" points="26.0174558 21.465486 24.2940674 23.1616512 32.0540781 30.7946344 33.7774661 29.0984692 26.0174558 21.465486"></polygon>
        <polygon id="path-18" points="22.5706787 24.8578164 20.8472901 26.5542215 28.6025391 34.1872046 30.3259271 32.4910395 22.5706787 24.8578164"></polygon>
        <polygon id="path-19" points="49.3974609 44.4723952 47.6740729 46.1685603 55.4293204 53.8017834 57.1527109 52.1056182 49.3974609 44.4723952"></polygon>
        <polygon id="path-20" points="45.9459219 47.8649654 44.2225339 49.5611306 51.9825443 57.1941138 53.7059323 55.4979486"></polygon>
        <path d="M39,0.868954773 C37.0402987,0.868954773 35.3816726,2.41637561 35.3818359,4.34573351 L35.3818359,12.3023556 L37.8193359,12.3023556 L37.8193359,4.34573351 C37.8192872,3.76371134 38.308101,3.26805685 39,3.26805685 C39.691899,3.26805685 40.1807128,3.76371134 40.1806641,4.34573351 L40.1806641,12.3023556 L42.6181641,12.3023556 L42.6181641,4.34573351 C42.6183274,2.41637561 40.9597012,0.868954773 39,0.868954773 Z" id="path-21"></path>
        <path d="M39,77.6402213 C37.0402987,77.6402213 35.3816726,76.0928005 35.3818359,74.1634426 L35.3818359,66.2068205 L37.8193359,66.2068205 L37.8193359,74.1634426 C37.8192872,74.7454647 38.308101,75.2411192 39,75.2411192 C39.691899,75.2411192 40.1807128,74.7454647 40.1806641,74.1634426 L40.1806641,66.2068205 L42.6181641,66.2068205 L42.6181641,74.1634426 C42.6183274,76.0928005 40.9597012,77.6402213 39,77.6402213 Z" id="path-22"></path>
        <path d="M78,39.254588 C78,37.32571 76.4278125,35.6933609 74.467575,35.6933609 L66.3836063,35.6933609 L66.3836063,38.092463 L74.467575,38.092463 C75.0589125,38.092463 75.5625,38.573483 75.5625,39.254588 C75.5625,39.9356931 75.0589125,40.4167131 74.467575,40.4167131 L66.3836063,40.4167131 L66.3836063,42.8158152 L74.467575,42.8158152 C76.4278125,42.8158152 78,41.1834661 78,39.254588 Z" id="path-23"></path>
        <path d="M0,39.254588 C0,37.32571 1.5721875,35.6933609 3.532425,35.6933609 L11.6163938,35.6933609 L11.6163938,38.092463 L3.532425,38.092463 C2.9410875,38.092463 2.4375,38.573483 2.4375,39.254588 C2.4375,39.9356931 2.9410875,40.4167131 3.532425,40.4167131 L11.6163938,40.4167131 L11.6163938,42.8158152 L3.532425,42.8158152 C1.5721875,42.8158152 0,41.1834661 0,39.254588 Z" id="path-24"></path>
        <path d="M66.5771657,12.1118668 C65.1914469,10.7479773 62.9069171,10.6877599 61.5209351,12.0518893 L55.8047051,17.6780236 L57.5282784,19.3744287 L63.2445084,13.7482944 C63.6626128,13.3368484 64.3643471,13.3265322 64.8535924,13.8082719 C65.3428401,14.2897717 65.3323929,14.9804732 64.914213,15.3919192 L59.197983,21.0182934 L60.9215563,22.7146985 L66.6377839,17.0883243 C68.0239974,15.7241948 67.9628771,13.4757564 66.5771633,12.1118668 L66.5771657,12.1118668 Z" id="path-25"></path>
        <path d="M11.4228363,66.3973092 C10.0371182,65.0334197 9.97599696,62.7849812 11.3622108,61.4208518 L17.0784398,55.7944776 L18.8020126,57.4908827 L13.0857833,63.1172569 C12.6676102,63.5287029 12.6571636,64.2194044 13.1464088,64.7009042 C13.6356553,65.1824039 14.3373891,65.1720878 14.7554933,64.7608817 L20.4717225,59.1347474 L22.1952954,60.8311525 L16.4790661,66.4572868 C15.0930843,67.8216561 12.8085543,67.7614387 11.422836,66.3973092 L11.4228363,66.3973092 Z" id="path-26"></path>
        <path d="M11.4228348,12.1118668 C12.8085528,10.7479773 15.0930831,10.6877599 16.4790649,12.0518893 L22.1952939,17.6780236 L20.4717211,19.3744287 L14.7554921,13.7482944 C14.3373877,13.3368484 13.6356541,13.3265322 13.1464076,13.8082719 C12.6571612,14.2897717 12.6676076,14.9804732 13.0857797,15.3919192 L18.8020087,21.0182934 L17.0784361,22.7146985 L11.3622069,17.0883243 C9.97599428,15.7241948 10.0371156,13.4757564 11.4228348,12.1118668 Z" id="path-27"></path>
        <path d="M66.5771633,66.3973092 C67.962882,65.0334197 68.0240023,62.7849812 66.6377839,61.4208518 L60.9215539,55.7944776 L59.1979806,57.4908827 L64.9142106,63.1172569 C65.3323832,63.5287029 65.3428303,64.2194044 64.8535899,64.7009042 C64.3643447,65.1824039 63.6626104,65.1720878 63.244506,64.7608817 L57.5282784,59.1347474 L55.8047051,60.8311525 L61.5209327,66.4572868 C62.9069147,67.8216561 65.1914445,67.7614387 66.5771633,66.3973092 Z" id="path-28"></path>
    </defs>
    <g id="Cards" stroke="none" stroke-width="1" fill="none" fill-rule="evenodd" transform="translate(-474.000000, -447.000000)">
        <g id="Group-11" transform="translate(313.000000, 415.000000)">
            <g id="steer-copy-10" transform="translate(163.000000, 34.000000)">
                <g id="Group">
                    <g id="Shape" fill-rule="nonzero">
                        <use fill="" fill-rule="evenodd" xlink:href="#path-1"></use>
                        <path stroke="#949494" stroke-width="2" d="M39,9.4632039 C55.68866,9.4632039 69.25,22.8109084 69.25,39.2524289 C69.25,55.6939493 55.68866,69.0416538 39,69.0416538 C22.3113405,69.0416538 8.75,55.6939491 8.75,39.2524289 C8.75,22.8109086 22.3113405,9.4632039 39,9.4632039 Z M39,13.862306 C24.7262379,13.862306 13.1875,25.2193132 13.1875,39.2524289 C13.1875,53.2857001 24.7261523,64.6425517 39,64.6425517 C53.2738483,64.6425517 64.8125,53.2857004 64.8125,39.2524289 C64.8125,25.2193129 53.2737627,13.862306 39,13.862306 Z"></path>
                    </g>
                    <g id="Shape" fill-rule="nonzero">
                        <use fill="" fill-rule="evenodd" xlink:href="#path-2"></use>
                        <path stroke="#949494" stroke-width="2" d="M39,15.4609591 C52.3231844,15.4609591 63.15625,26.1233583 63.15625,39.2524289 C63.15625,52.3814994 52.3231844,63.0438986 39,63.0438986 C25.6768156,63.0438986 14.84375,52.3814994 14.84375,39.2524289 C14.84375,26.1233583 25.6768156,15.4609591 39,15.4609591 Z M39,19.8600612 C28.0917127,19.8600612 19.28125,28.531763 19.28125,39.2524289 C19.28125,49.9732498 28.0916267,58.6447965 39,58.6447965 C49.9083733,58.6447965 58.71875,49.9732498 58.71875,39.2524289 C58.71875,28.531763 49.9082873,19.8600612 39,19.8600612 Z"></path>
                    </g>
                    <g id="Shape" fill-rule="nonzero">
                        <use fill="" fill-rule="evenodd" xlink:href="#path-3"></use>
                        <path stroke="#949494" stroke-width="2" d="M39,26.2569185 C46.2652947,26.2569185 52.1875,32.0858321 52.1875,39.2524289 C52.1875,46.4190256 46.2652947,52.2479392 39,52.2479392 C31.7347053,52.2479392 25.8125,46.4190256 25.8125,39.2524289 C25.8125,32.0858321 31.7347053,26.2569185 39,26.2569185 Z M39,30.6560205 C34.1496043,30.6560205 30.25,34.4942349 30.25,39.2524289 C30.25,44.0107759 34.1495162,47.8488372 39,47.8488372 C43.8504838,47.8488372 47.75,44.0107759 47.75,39.2524289 C47.75,34.4942349 43.8503957,30.6560205 39,30.6560205 Z"></path>
                    </g>
                    <g id="Shape" fill-rule="nonzero">
                        <use fill="" fill-rule="evenodd" xlink:href="#path-4"></use>
                        <path stroke="#949494" stroke-width="2" d="M39,32.2546737 C42.8998202,32.2546737 46.09375,35.3982808 46.09375,39.2524289 C46.09375,43.1065769 42.8998202,46.2501841 39,46.2501841 C35.1001798,46.2501841 31.90625,43.1065769 31.90625,39.2524289 C31.90625,35.3982808 35.1001798,32.2546737 39,32.2546737 Z M39,36.6537757 C37.5150824,36.6537757 36.34375,37.8066823 36.34375,39.2524289 C36.34375,40.6983218 37.5149879,41.851082 39,41.851082 C40.4850121,41.851082 41.65625,40.6983218 41.65625,39.2524289 C41.65625,37.8066823 40.4849176,36.6537757 39,36.6537757 Z"></path>
                    </g>
                    <g id="Shape">
                        <use fill="" fill-rule="evenodd" xlink:href="#path-5"></use>
                        <path stroke="#949494" stroke-width="2" d="M34.34375,16.6605101 L38.78125,16.6605101 L38.78125,29.4564695 L34.34375,29.4564695 L34.34375,16.6605101 Z"></path>
                    </g>
                    <g id="Shape">
                        <use fill="" fill-rule="evenodd" xlink:href="#path-6"></use>
                        <path stroke="#949494" stroke-width="2" d="M39.21875,16.6605101 L43.65625,16.6605101 L43.65625,29.4564695 L39.21875,29.4564695 L39.21875,16.6605101 Z"></path>
                    </g>
                    <g id="Shape">
                        <use fill="" fill-rule="evenodd" xlink:href="#path-7"></use>
                        <path stroke="#949494" stroke-width="2" d="M34.34375,49.1983321 L38.78125,49.1983321 L38.78125,61.9942914 L34.34375,61.9942914 L34.34375,49.1983321 Z"></path>
                    </g>
                    <g id="Shape">
                        <use fill="" fill-rule="evenodd" xlink:href="#path-8"></use>
                        <path stroke="#949494" stroke-width="2" d="M39.21875,49.1983321 L43.65625,49.1983321 L43.65625,61.9942914 L39.21875,61.9942914 L39.21875,49.1983321 Z"></path>
                    </g>
                    <g id="Shape">
                        <use fill="" fill-rule="evenodd" xlink:href="#path-9"></use>
                        <path stroke="#949494" stroke-width="2" d="M49.0449219,34.7288676 L62.0136719,34.7288676 L62.0136719,39.1279697 L49.0449219,39.1279697 L49.0449219,34.7288676 Z"></path>
                    </g>
                    <g id="Shape">
                        <use fill="" fill-rule="evenodd" xlink:href="#path-10"></use>
                        <path stroke="#949494" stroke-width="2" d="M49.0449219,39.5270718 L62.0136719,39.5270718 L62.0136719,43.9261739 L49.0449219,43.9261739 L49.0449219,39.5270718 Z"></path>
                    </g>
                    <g id="Shape">
                        <use fill="" fill-rule="evenodd" xlink:href="#path-11"></use>
                        <path stroke="#949494" stroke-width="2" d="M15.9863281,34.7288676 L28.9550781,34.7288676 L28.9550781,39.1279697 L15.9863281,39.1279697 L15.9863281,34.7288676 Z"></path>
                    </g>
                    <g id="Shape">
                        <use fill="" fill-rule="evenodd" xlink:href="#path-12"></use>
                        <path stroke="#949494" stroke-width="2" d="M15.9863281,39.5270718 L28.9550781,39.5270718 L28.9550781,43.9261739 L15.9863281,43.9261739 L15.9863281,39.5270718 Z"></path>
                    </g>
                    <g id="Shape">
                        <use fill="" fill-rule="evenodd" xlink:href="#path-13"></use>
                        <path stroke="#949494" stroke-width="2" d="M51.9827486,20.0625987 L55.1317509,23.1618589 L45.9457176,32.1975217 L42.7967153,29.0982615 L51.9827486,20.0625987 Z"></path>
                    </g>
                    <g id="Shape">
                        <use fill="" fill-rule="evenodd" xlink:href="#path-14"></use>
                        <path stroke="#949494" stroke-width="2" d="M55.4293475,23.4546579 L58.5782565,26.5542603 L49.3974718,35.5903038 L46.248488,32.4910618 L55.4293475,23.4546579 Z"></path>
                    </g>
                    <g id="Shape">
                        <use fill="" fill-rule="evenodd" xlink:href="#path-15"></use>
                        <path stroke="#949494" stroke-width="2" d="M28.6025171,43.0692851 L31.751512,46.168538 L22.5707007,55.2048934 L19.4217051,52.1056406 L28.6025171,43.0692851 Z"></path>
                    </g>
                    <g id="Shape">
                        <use fill="" fill-rule="evenodd" xlink:href="#path-16"></use>
                        <path stroke="#949494" stroke-width="2" d="M32.0542824,46.4620781 L35.2032847,49.5613383 L26.0172515,58.5970011 L22.8682488,55.4977409 L32.0542824,46.4620781 Z"></path>
                    </g>
                    <g id="Shape">
                        <use fill="" fill-rule="evenodd" xlink:href="#path-17"></use>
                        <path stroke="#949494" stroke-width="2" d="M26.0172515,20.0625987 L35.2032847,29.0982615 L32.0542824,32.1975217 L22.8682488,23.1618588 L26.0172515,20.0625987 Z"></path>
                    </g>
                    <g id="Shape">
                        <use fill="" fill-rule="evenodd" xlink:href="#path-18"></use>
                        <path stroke="#949494" stroke-width="2" d="M22.5706511,23.4546576 L31.751512,32.4910618 L28.6025282,35.5903038 L19.4217449,26.5542607 L22.5706511,23.4546576 Z"></path>
                    </g>
                    <g id="Shape">
                        <use fill="" fill-rule="evenodd" xlink:href="#path-19"></use>
                        <path stroke="#949494" stroke-width="2" d="M49.3974828,43.0692852 L58.5782964,52.105641 L55.4292979,55.204893 L46.248488,46.168538 L49.3974828,43.0692852 Z"></path>
                    </g>
                    <g id="Shape">
                        <use fill="" fill-rule="evenodd" xlink:href="#path-20"></use>
                        <path stroke="#949494" stroke-width="2" d="M45.9457176,46.4620781 L55.1317509,55.4977409 L51.9827486,58.5970011 L42.7967153,49.5613383 L45.9457176,46.4620781 Z"></path>
                    </g>
                    <g id="Shape">
                        <use fill="" fill-rule="evenodd" xlink:href="#path-21"></use>
                        <path stroke="#949494" stroke-width="2" d="M39,-0.131045227 C41.518032,-0.131045227 43.6183737,1.86875688 43.6181641,4.34573351 L43.6181641,13.3023556 L39.1806641,13.3023556 L39.1806641,12.3023556 L39.1806641,4.34564975 C39.1806669,4.31216772 39.1338604,4.26805685 39,4.26805685 C38.8661396,4.26805685 38.8193331,4.31216772 38.8193359,4.34573351 L38.8193359,13.3023556 L34.3818359,13.3023556 L34.3818359,12.3023556 L34.3818359,4.34581815 C34.3816263,1.86875688 36.481968,-0.131045227 39,-0.131045227 Z"></path>
                    </g>
                    <g id="Shape">
                        <use fill="" fill-rule="evenodd" xlink:href="#path-22"></use>
                        <path stroke="#949494" stroke-width="2" d="M39,78.6402213 C36.481968,78.6402213 34.3816263,76.6404192 34.3818359,74.1634426 L34.3818359,65.2068205 L38.8193359,65.2068205 L38.8193359,66.2068205 L38.8193359,74.1635263 C38.8193331,74.1970084 38.8661396,74.2411192 39,74.2411192 C39.1338604,74.2411192 39.1806669,74.1970084 39.1806641,74.1634426 L39.1806641,65.2068205 L43.6181641,65.2068205 L43.6181641,66.2068205 L43.6181641,74.1633579 C43.6183737,76.6404192 41.518032,78.6402213 39,78.6402213 Z"></path>
                    </g>
                    <g id="Shape">
                        <use fill="" fill-rule="evenodd" xlink:href="#path-23"></use>
                        <path stroke="#949494" stroke-width="2" d="M79,39.254588 C79,41.7483011 76.9679015,43.8158152 74.467575,43.8158152 L65.3836063,43.8158152 L65.3836063,39.4167131 L74.467575,39.4167131 C74.5181876,39.4167131 74.5625,39.3711634 74.5625,39.254588 C74.5625,39.1380127 74.5181876,39.092463 74.467575,39.092463 L65.3836063,39.092463 L65.3836063,34.6933609 L74.467575,34.6933609 C76.9679015,34.6933609 79,36.760875 79,39.254588 Z"></path>
                    </g>
                    <g id="Shape">
                        <use fill="" fill-rule="evenodd" xlink:href="#path-24"></use>
                        <path stroke="#949494" stroke-width="2" d="M-1,39.254588 C-1,36.760875 1.03209848,34.6933609 3.532425,34.6933609 L12.6163938,34.6933609 L12.6163938,39.092463 L3.532425,39.092463 C3.48181245,39.092463 3.4375,39.1380127 3.4375,39.254588 C3.4375,39.3711634 3.48181245,39.4167131 3.532425,39.4167131 L12.6163938,39.4167131 L12.6163938,43.8158152 L3.532425,43.8158152 C1.03209848,43.8158152 -1,41.7483011 -1,39.254588 Z"></path>
                    </g>
                    <g id="Shape">
                        <use fill="" fill-rule="evenodd" xlink:href="#path-25"></use>
                        <path stroke="#949494" stroke-width="2" d="M67.2786354,11.39917 C69.068904,13.1612427 69.1175972,16.0510112 67.3392671,17.8010102 L60.9215719,24.1178257 L57.772416,21.0183091 L58.4964999,20.3056073 L64.2128688,14.6790964 C64.2381767,14.6541961 64.2370822,14.6045853 64.1519724,14.5208232 C64.0584602,14.4287456 63.9804516,14.4270692 63.9459763,14.4609954 L57.5282789,20.777541 L54.3791226,17.6780241 L60.8194692,11.3391863 C62.5885408,9.59800737 65.4970322,9.64562998 67.2786366,11.3991688 Z"></path>
                    </g>
                    <g id="Shape">
                        <use fill="" fill-rule="evenodd" xlink:href="#path-26"></use>
                        <path stroke="#949494" stroke-width="2" d="M22.8966713,61.5439441 L17.1805947,67.1699281 C15.4115064,68.91143 12.5029193,68.8638058 10.7213023,67.1099455 L10.7213651,67.1100071 C8.93109184,65.347935 8.88239631,62.4581657 10.6607276,60.7081658 L17.0784244,54.3913504 L20.2275795,57.4908671 L19.5034957,58.2035687 L13.7871334,63.8300739 C13.7618254,63.8549748 13.7629201,63.9045914 13.8478505,63.9881773 C13.9414056,64.080251 14.0197059,64.0819338 14.0540253,64.0481807 L20.4717221,57.7316349 L23.6208777,60.8311521 L22.8968553,61.543763 Z"></path>
                    </g>
                    <g id="Shape">
                        <use fill="" fill-rule="evenodd" xlink:href="#path-27"></use>
                        <path stroke="#949494" stroke-width="2" d="M10.7213637,11.399169 C12.5029674,9.64562994 15.4114595,9.59800732 17.1805328,11.3391883 L23.6208762,17.678024 L20.4717206,20.7775412 L19.7702531,20.0871297 L14.0540834,14.4610538 C14.0195487,14.427069 13.9415402,14.4287455 13.8478493,14.5209988 C13.7629175,14.6045857 13.7618228,14.6542023 13.7872628,14.6792332 L20.2275755,21.018309 L17.0784208,24.1178258 L16.376953,23.4273845 L10.6608002,17.8010856 C8.88239314,16.0510096 8.93108965,13.1612402 10.721364,11.3991687 Z"></path>
                    </g>
                    <g id="Shape">
                        <use fill="" fill-rule="evenodd" xlink:href="#path-28"></use>
                        <path stroke="#949494" stroke-width="2" d="M67.2786655,67.1099765 C65.4970452,68.8638063 62.5884823,68.9114197 60.8194646,67.1699877 L54.3791228,60.8311519 L57.5282791,57.7316349 L58.2297465,58.4220465 L63.9457067,64.0479178 C63.9802933,64.0819337 64.0585935,64.0802509 64.1521439,63.9881816 C64.2370743,63.9045949 64.238169,63.8549752 64.2127275,63.829943 L57.7724135,57.490867 L60.9215693,54.3913505 L61.623037,55.0817915 L67.339189,60.708089 C69.1175921,62.4581538 69.0689099,65.3479006 67.2786655,67.1099765 Z"></path>
                    </g>
                </g>
            </g>
        </g>
    </g>
</svg>