<?xml version="1.0" encoding="UTF-8"?>
<svg width="21px" height="21px" viewBox="0 0 21 21" version="1.1" xmlns="http://www.w3.org/2000/svg" xmlns:xlink="http://www.w3.org/1999/xlink">
    <!-- Generator: Sketch 48.1 (47250) - http://www.bohemiancoding.com/sketch -->
    <title>Combined Shape Copy@2x</title>
    <desc>Created with Sketch.</desc>
    <defs></defs>
    <g id="Partners" stroke="none" stroke-width="1" fill="none" fill-rule="evenodd" transform="translate(-1135.000000, -1168.000000)">
        <path d="M1146.66667,1177.33333 L1154.83333,1177.33333 C1155.47767,1177.33333 1156,1177.85567 1156,1178.5 C1156,1179.14433 1155.47767,1179.66667 1154.83333,1179.66667 L1146.66667,1179.66667 L1146.66667,1187.83333 C1146.66667,1188.47767 1146.14433,1189 1145.5,1189 C1144.85567,1189 1144.33333,1188.47767 1144.33333,1187.83333 L1144.33333,1179.66667 L1136.16667,1179.66667 C1135.52233,1179.66667 1135,1179.14433 1135,1178.5 C1135,1177.85567 1135.52233,1177.33333 1136.16667,1177.33333 L1144.33333,1177.33333 L1144.33333,1169.16667 C1144.33333,1168.52233 1144.85567,1168 1145.5,1168 C1146.14433,1168 1146.66667,1168.52233 1146.66667,1169.16667 L1146.66667,1177.33333 Z" id="Combined-Shape-Copy" fill="#FFFFFF"></path>
    </g>
</svg>