<?xml version="1.0" encoding="UTF-8"?>
<svg width="25px" height="25px" viewBox="0 0 25 25" version="1.1" xmlns="http://www.w3.org/2000/svg" xmlns:xlink="http://www.w3.org/1999/xlink">
    <!-- Generator: Sketch 48.1 (47250) - http://www.bohemiancoding.com/sketch -->
    <title>Shape@2x</title>
    <desc>Created with Sketch.</desc>
    <defs></defs>
    <g id="Documents" stroke="none" stroke-width="1" fill="none" fill-rule="evenodd" transform="translate(-1225.000000, -20.000000)">
        <path d="M1237.5,20 C1230.60897,20 1225,25.6089744 1225,32.5 C1225,39.3910256 1230.60897,45 1237.5,45 C1244.39103,45 1250,39.3910256 1250,32.5 C1250,25.6089744 1244.39103,20 1237.5,20 Z M1231.47436,41.9551282 C1231.57051,38.6217949 1234.32692,35.7371795 1237.5,35.7371795 C1240.67308,35.7371795 1243.42949,38.6217949 1243.52564,41.9551282 C1241.79487,43.0769231 1239.71154,43.7179487 1237.5,43.7179487 C1235.28846,43.7179487 1233.20513,43.0769231 1231.47436,41.9551282 Z M1234.67949,30.9294872 C1234.67949,29.3910256 1235.92949,28.1089744 1237.5,28.1089744 C1239.07051,28.1089744 1240.32051,29.3589744 1240.32051,30.9294872 C1240.32051,32.5 1239.07051,33.75 1237.5,33.75 C1235.92949,33.75 1234.67949,32.4679487 1234.67949,30.9294872 Z M1244.74359,41.0576923 C1244.32692,37.9487179 1242.05128,35.3846154 1239.16667,34.6474359 C1240.57692,34.0064103 1241.57051,32.5641026 1241.57051,30.9294872 C1241.57051,28.6858974 1239.74359,26.8269231 1237.46795,26.8269231 C1235.19231,26.8269231 1233.36538,28.6538462 1233.36538,30.9294872 C1233.36538,32.5961538 1234.35897,34.0064103 1235.76923,34.6474359 C1232.88462,35.3846154 1230.64103,37.9487179 1230.19231,41.0576923 C1227.82051,39.0064103 1226.28205,35.9294872 1226.28205,32.5 C1226.28205,26.3141026 1231.3141,21.2820513 1237.5,21.2820513 C1243.6859,21.2820513 1248.71795,26.3141026 1248.71795,32.5 C1248.71795,35.9294872 1247.17949,39.0064103 1244.74359,41.0576923 Z" id="Shape" fill="#666666" fill-rule="nonzero"></path>
    </g>
</svg>