<?xml version="1.0" encoding="UTF-8"?>
<svg width="20px" height="21px" viewBox="0 0 20 21" version="1.1" xmlns="http://www.w3.org/2000/svg" xmlns:xlink="http://www.w3.org/1999/xlink">
    <!-- Generator: Sketch 48.1 (47250) - http://www.bohemiancoding.com/sketch -->
    <title>sond@2x</title>
    <desc>Created with Sketch.</desc>
    <defs></defs>
    <g id="Desktop_MAC" stroke="none" stroke-width="1" fill="none" fill-rule="evenodd" transform="translate(-792.000000, -570.000000)">
        <g id="sond" transform="translate(792.000000, 570.000000)" fill="#00365F" fill-rule="nonzero">
            <path d="M5.64102564,16.0740741 L0.769230769,16.0740741 C0.344396346,16.0740741 0,15.7258511 0,15.2962963 L0,5.7037037 C0,5.2741489 0.344396346,4.92592593 0.769230769,4.92592593 L5.64102564,4.92592593 C6.06586006,4.92592593 6.41025641,5.2741489 6.41025641,5.7037037 L6.41025641,15.2962963 C6.41025641,15.7258511 6.06586006,16.0740741 5.64102564,16.0740741 Z M1.53846154,14.5185185 L4.87179487,14.5185185 L4.87179487,6.48148148 L1.53846154,6.48148148 L1.53846154,14.5185185 Z" id="Shape"></path>
            <path d="M12.0513517,20.7592013 C11.8805119,20.7592404 11.7145203,20.7017748 11.5795568,20.595868 L5.16930041,15.5740161 C4.97873862,15.4244276 4.86862235,15.1931096 4.87186452,14.9492013 L4.87186452,5.82846057 C4.86862235,5.58455231 4.97873862,5.35323431 5.16930041,5.20364576 L11.5795568,0.163645759 C11.8140953,-0.0206429828 12.1326134,-0.0519292879 12.3978475,0.08326949 C12.6630817,0.218468268 12.8276304,0.49599 12.8205825,0.796238351 L12.8205825,19.9814235 C12.8205825,20.4109783 12.4761861,20.7592013 12.0513517,20.7592013 Z M6.41032605,14.5706828 L11.2821209,18.3999421 L11.2821209,2.37771983 L6.41032605,6.20697909 L6.41032605,14.5706828 Z" id="Shape"></path>
            <path d="M15.3852894,17.1191548 C15.0266108,17.1194367 14.7153436,16.8690376 14.6350049,16.515588 C14.5546661,16.1621384 14.726581,15.7994583 15.049392,15.641377 C16.9998386,14.6900482 18.2395087,12.6937385 18.2395087,10.5041548 C18.2395087,8.31457101 16.9998386,6.31826135 15.049392,5.36693254 C14.8020543,5.24559456 14.6375265,5.00005439 14.6177846,4.72280465 C14.5980428,4.4455549 14.7260862,4.1787164 14.9536821,4.02280463 C15.181278,3.86689287 15.4738491,3.84559455 15.7211868,3.96693254 C18.2023863,5.17817537 19.7791619,7.71829262 19.7791619,10.5041548 C19.7791619,13.2900169 18.2023863,15.8301341 15.7211868,17.041377 C15.6164788,17.0926529 15.5016317,17.1192461 15.3852894,17.1191548 Z" id="Shape"></path>
            <path d="M15.3832132,13.1372766 C15.0988954,13.136752 14.838049,12.9776987 14.7049214,12.7236826 C14.5717937,12.4696665 14.588097,12.1621157 14.7473157,11.9239432 C15.3899927,10.960293 15.3899927,9.69870453 14.7473157,8.73505433 C14.5094084,8.37709199 14.6035435,7.89190132 14.9575721,7.65135063 C15.3116008,7.41079994 15.7914597,7.50598088 16.029367,7.86394322 C17.0215475,9.35268547 17.0215475,11.3011269 16.029367,12.7898691 C15.885747,13.0084837 15.6427726,13.1391199 15.3832132,13.1372766 Z" id="Shape"></path>
        </g>
    </g>
</svg>