<?xml version="1.0" encoding="UTF-8"?>
<svg width="24px" height="24px" viewBox="0 0 24 24" version="1.1" xmlns="http://www.w3.org/2000/svg" xmlns:xlink="http://www.w3.org/1999/xlink">
    <!-- Generator: Sketch 48.1 (47250) - http://www.bohemiancoding.com/sketch -->
    <title>vk</title>
    <desc>Created with Sketch.</desc>
    <defs></defs>
    <g id="News_2" stroke="none" stroke-width="1" fill="none" fill-rule="evenodd" transform="translate(-1026.000000, -1842.000000)">
        <g id="Group-3-Copy" transform="translate(1026.000000, 1803.000000)">
            <g id="vk" transform="translate(0.000000, 39.000000)">
                <rect id="Rectangle" x="0" y="0" width="24" height="24"></rect>
                <circle id="Oval" stroke="#FFFFFF" opacity="0.146795743" cx="12" cy="12" r="11.5"></circle>
                <path d="M12.3960205,16.3261538 C12.3960205,16.3261538 12.6421269,16.2993119 12.7681814,16.1664117 C12.8835646,16.0446411 12.8795629,15.8148481 12.8795629,15.8148481 C12.8795629,15.8148481 12.8642229,14.7418263 13.3717757,14.5833936 C13.871992,14.4275795 14.5142697,15.6210626 15.1958978,16.0799939 C15.7107871,16.4269747 16.1016228,16.3510317 16.1016228,16.3510317 L17.923077,16.3261538 C17.923077,16.3261538 18.8754888,16.2685419 18.4239603,15.5333354 C18.3866108,15.4731048 18.160513,14.9892957 17.0700415,13.9954902 C15.9275475,12.9552024 16.0809471,13.1234554 17.4562085,11.3237379 C18.293904,10.2278023 18.6287155,9.55871848 18.5240035,9.27262298 C18.4246272,8.99896641 17.8083607,9.07163597 17.8083607,9.07163597 L15.7581409,9.08407491 C15.7581409,9.08407491 15.6060751,9.06377981 15.4933597,9.12990257 C15.3833122,9.19471596 15.311948,9.34594723 15.311948,9.34594723 C15.311948,9.34594723 14.9878078,10.1937589 14.554954,10.9152171 C13.6418925,12.4366952 13.2770681,12.517221 13.1276702,12.422947 C12.7801866,12.2023195 12.8668907,11.5378185 12.8668907,11.0657937 C12.8668907,9.59079784 13.0949894,8.97605258 12.4233656,8.81696515 C12.2006026,8.763936 12.0365317,8.72923792 11.4662851,8.72334579 C10.7346354,8.7161443 10.1157011,8.72596452 9.76488277,8.89421748 C9.5314485,9.0061679 9.35137063,9.25625596 9.46141822,9.27065894 C9.5968101,9.28833532 9.90360942,9.35183935 10.0663465,9.56919338 C10.2764373,9.85005144 10.2691008,10.4798544 10.2691008,10.4798544 C10.2691008,10.4798544 10.3898197,12.2160678 9.9869788,12.4314578 C9.71085941,12.5794157 9.33202894,12.2776078 8.51767682,10.896886 C8.10082991,10.1898308 7.78602712,9.4081419 7.78602712,9.4081419 C7.78602712,9.4081419 7.72533421,9.26214809 7.61662053,9.18358639 C7.48523039,9.08865768 7.30181775,9.05919704 7.30181775,9.05919704 L5.35364203,9.07163597 C5.35364203,9.07163597 5.06084876,9.07949214 4.953469,9.20453618 C4.85809442,9.31517723 4.94613249,9.54497019 4.94613249,9.54497019 C4.94613249,9.54497019 6.4714587,13.0481671 8.1988723,14.8138412 C9.78289056,16.4322121 11.5810014,16.3261538 11.5810014,16.3261538 L12.3960205,16.3261538 Z" id="Shape" fill="#FFFFFF"></path>
            </g>
        </g>
    </g>
</svg>