<?xml version="1.0" encoding="UTF-8"?>
<svg width="20px" height="16px" viewBox="0 0 20 16" version="1.1" xmlns="http://www.w3.org/2000/svg" xmlns:xlink="http://www.w3.org/1999/xlink">
    <!-- Generator: Sketch 48.1 (47250) - http://www.bohemiancoding.com/sketch -->
    <title>volume@2x</title>
    <desc>Created with Sketch.</desc>
    <defs></defs>
    <g id="Gallery" stroke="none" stroke-width="1" fill="none" fill-rule="evenodd" transform="translate(-1058.000000, -1453.000000)">
        <g id="Video_Player" transform="translate(251.000000, 928.000000)" fill="#FFFFFF">
            <g id="Timeline" transform="translate(38.000000, 502.000000)">
                <path d="M786.344017,23.3280681 C786.028509,22.9425369 785.467904,22.8891417 785.089116,23.2086077 C784.709437,23.5271687 784.656853,24.0973204 784.970578,24.4819465 C785.022271,24.5452967 790.008899,30.8097255 784.949188,37.5474706 C784.650614,37.9429568 784.72548,38.5122035 785.116745,38.8162844 C785.278956,38.9402698 785.468795,39 785.656852,39 C785.924231,39 786.19072,38.8787296 786.365408,38.6452389 C792.276277,30.7753354 786.402841,23.4013733 786.344017,23.3280681 L786.344017,23.3280681 Z M782.882344,25.1842286 C782.568619,24.7996025 782.009796,24.7471123 781.631008,25.0638633 C781.251329,25.3806142 781.196962,25.9498609 781.508013,26.3362971 C781.655963,26.5209176 785.090899,30.8938907 781.487514,35.6895001 C781.18894,36.0877013 781.264698,36.656043 781.655963,36.9592189 C781.817282,37.0822993 782.007122,37.1447444 782.19607,37.1447444 C782.463449,37.1447444 782.729046,37.0207591 782.904626,36.7881734 C787.379667,30.8314455 782.92869,25.2403388 782.882344,25.1842286 L782.882344,25.1842286 Z M776.816394,35.5845198 L773.852047,33.665914 C773.709444,33.5726987 773.542778,33.5247336 773.373437,33.5247336 L770.78253,33.5247336 L770.78253,28.4766285 L773.373437,28.4766285 C773.542778,28.4766285 773.709444,28.4277583 773.852047,28.3345431 L776.816394,26.4159373 L776.816394,35.5845198 Z M778.136358,23.971525 C777.84937,23.8140545 777.502668,23.8258195 777.228159,24.0022951 L773.113188,26.6666231 L769.891265,26.6666231 C769.398395,26.6666231 769,27.0720643 769,27.5716258 L769,34.4297363 C769,34.9283928 769.398395,35.334739 769.891265,35.334739 L773.113188,35.334739 L777.228159,37.998162 C777.374326,38.0913773 777.540993,38.1393424 777.707659,38.1393424 C777.854718,38.1393424 778.001777,38.1022373 778.136358,38.0280271 C778.420671,37.8687466 778.598924,37.5646657 778.598924,37.2352447 L778.598924,24.7661174 C778.598924,24.4348864 778.420671,24.1308055 778.136358,23.971525 L778.136358,23.971525 Z" id="volume"></path>
            </g>
        </g>
    </g>
</svg>