<?xml version="1.0" encoding="UTF-8"?>
<svg width="17px" height="17px" viewBox="0 0 17 17" version="1.1" xmlns="http://www.w3.org/2000/svg" xmlns:xlink="http://www.w3.org/1999/xlink">
    <!-- Generator: Sketch 48.1 (47250) - http://www.bohemiancoding.com/sketch -->
    <title>Combined Shape Copy 2@2x</title>
    <desc>Created with Sketch.</desc>
    <defs></defs>
    <g id="Partners" stroke="none" stroke-width="1" fill="none" fill-rule="evenodd" transform="translate(-1137.000000, -1261.000000)">
        <g id="Group" transform="translate(250.000000, 1224.000000)" fill="#00365F">
            <path d="M896.666667,44.3333333 L904.833333,44.3333333 C905.477666,44.3333333 906,44.8556678 906,45.5 C906,46.1443322 905.477666,46.6666667 904.833333,46.6666667 L896.666667,46.6666667 L896.666667,54.8333333 C896.666667,55.4776655 896.144332,56 895.5,56 C894.855668,56 894.333333,55.4776655 894.333333,54.8333333 L894.333333,46.6666667 L886.166667,46.6666667 C885.522334,46.6666667 885,46.1443322 885,45.5 C885,44.8556678 885.522334,44.3333333 886.166667,44.3333333 L894.333333,44.3333333 L894.333333,36.1666667 C894.333333,35.5223345 894.855668,35 895.5,35 C896.144332,35 896.666667,35.5223345 896.666667,36.1666667 L896.666667,44.3333333 Z" id="Combined-Shape-Copy-2" transform="translate(895.500000, 45.500000) rotate(-45.000000) translate(-895.500000, -45.500000) "></path>
        </g>
    </g>
</svg>