<?xml version="1.0" encoding="UTF-8"?>
<svg width="11px" height="13px" viewBox="0 0 11 13" version="1.1" xmlns="http://www.w3.org/2000/svg" xmlns:xlink="http://www.w3.org/1999/xlink">
    <!-- Generator: Sketch 48.1 (47250) - http://www.bohemiancoding.com/sketch -->
    <title>Shape Copy@2x</title>
    <desc>Created with Sketch.</desc>
    <defs></defs>
    <g id="Desktop_MAC" stroke="none" stroke-width="1" fill="none" fill-rule="evenodd" transform="translate(-1023.000000, -2531.000000)">
        <path d="M1031.94505,2539.01488 L1032.44872,2539.01488 C1032.30769,2541.01322 1030.85714,2542.60331 1029.02381,2542.86116 L1029.02381,2535.3405 L1030.73626,2535.3405 L1030.73626,2534.24463 L1029.30586,2534.24463 C1029.80952,2533.9438 1030.13187,2533.38512 1030.13187,2532.7405 C1030.13187,2531.77355 1029.40659,2531 1028.5,2531 C1027.59341,2531 1026.86813,2531.77355 1026.86813,2532.7405 C1026.86813,2533.38512 1027.21062,2533.9438 1027.69414,2534.24463 L1026.26374,2534.24463 L1026.26374,2535.3405 L1027.97619,2535.3405 L1027.97619,2542.86116 C1026.14286,2542.60331 1024.69231,2540.99174 1024.55128,2539.01488 L1025.05495,2539.01488 L1024.02747,2537.12397 L1023,2539.01488 L1023.52381,2539.01488 C1023.68498,2541.80826 1025.86081,2544 1028.5,2544 C1031.13919,2544 1033.31502,2541.78678 1033.47619,2539.01488 L1034,2539.01488 L1032.97253,2537.12397 L1031.94505,2539.01488 Z M1028.5,2533.38512 C1028.17766,2533.38512 1027.8956,2533.10579 1027.8956,2532.7405 C1027.8956,2532.39669 1028.15751,2532.09587 1028.5,2532.09587 C1028.82234,2532.09587 1029.1044,2532.37521 1029.1044,2532.7405 C1029.1044,2533.10579 1028.82234,2533.38512 1028.5,2533.38512 Z" id="Shape-Copy" fill="#00365F" fill-rule="nonzero"></path>
    </g>
</svg>